<?xml version="1.0" encoding="utf-8"?>
<!-- Generator: Adobe Illustrator 20.0.0, SVG Export Plug-In . SVG Version: 6.00 Build 0)  -->
<!DOCTYPE svg PUBLIC "-//W3C//DTD SVG 1.1//EN" "http://www.w3.org/Graphics/SVG/1.1/DTD/svg11.dtd">
<svg version="1.1" id="Warstwa_1" xmlns="http://www.w3.org/2000/svg" xmlns:xlink="http://www.w3.org/1999/xlink" x="0px" y="0px"
	 viewBox="0 0 107.8 107.5" style="enable-background:new 0 0 107.8 107.5;" xml:space="preserve">
<style type="text/css">
	.st0{fill:#FFFFFF;}
</style>
<g>
	<g>
		<path class="st0" d="M107.8,29.4H91.1c0.9,0.5,9.3,5.2,9.5,5.2c0.1,0-9.3,0-9.6,0V40c1,0.8,1.5,1.9,1.5,3.4v0.1
			c0,0.8-0.2,1.5-0.5,2.2h15.7l-6.4-7.9L107.8,29.4z"/>
		<path class="st0" d="M7.1,34.6c0.2,0,8.7-4.7,9.5-5.2H0l6.4,8.4L0,45.7h15.2v-6.6h1.5v-4.5C16.4,34.7,7,34.6,7.1,34.6z"/>
		<g>
			<polygon class="st0" points="49.1,37.6 49.1,24.8 39.6,30.3 39.6,37.6 			"/>
			<polygon class="st0" points="68.2,37.6 68.2,30.3 58.6,24.8 58.6,37.6 			"/>
			<polygon class="st0" points="58.6,49.6 58.6,63.3 53.9,66 49.1,63.3 49.1,49.6 39.6,49.6 39.6,68.8 53.9,77 68.2,68.8 68.2,49.6 
							"/>
		</g>
		<g>
			<polygon class="st0" points="30,37.3 30,24.8 53.8,11 77.7,24.8 77.7,37.3 87.2,37.3 87.2,19.2 53.9,0 20.5,19.3 20.5,37.3 			
				"/>
			<polygon class="st0" points="20.5,50.9 20.5,57.8 30.1,63.3 30,50.9 			"/>
			<polygon class="st0" points="77.7,50.9 77.7,63.3 87.2,57.8 87.2,50.9 			"/>
		</g>
		<g>
			<path class="st0" d="M18.3,40.7h-1.1v2.5h1.1c1,0,1.5-0.4,1.5-1.3v0C19.9,41,19.3,40.7,18.3,40.7z"/>
			<path class="st0" d="M87.8,40.7H87v5.8h0.8c1.8,0,2.6-1,2.6-2.8v-0.1C90.5,41.7,89.7,40.7,87.8,40.7z"/>
			<path class="st0" d="M71.9,40.7h-1.1v2.5h1.1c1,0,1.5-0.4,1.5-1.3v0C73.5,41,72.9,40.7,71.9,40.7z"/>
			<path class="st0" d="M7,34.5v18.2h93.6V34.5H7z M20.2,48l-2.1-3.4h-0.9V48h-2v-8.9h3.2c2.1,0,3.4,0.9,3.4,2.7v0
				c0,1.3-0.8,2.1-1.8,2.4l2.3,3.8H20.2z M29.7,48h-6v-8.9h5.8v1.6h-3.8v2.1h3v1.5h-3v2.2h4V48z M39.4,44.2c0,2.4-1.5,4-4.2,4
				c-2.9,0-4.5-1.9-4.5-4.5v-0.1c0-2.7,1.9-4.5,4.5-4.5c2,0,3.7,0.9,4,3.1h-2c-0.2-1-0.9-1.5-1.9-1.5c-1.5,0-2.4,1.2-2.4,3v0.1
				c0,1.7,0.7,2.9,2.5,2.9c1.5,0,2.1-0.9,2.1-1.9h-2v-1.5h4V44.2z M43.3,48h-2v-8.9h2V48z M48.6,48.1c-2.4,0-3.6-1.1-3.7-2.9h1.9
				c0.1,0.8,0.4,1.5,1.7,1.5c0.9,0,1.5-0.5,1.5-1.2c0-0.7-0.4-1-1.7-1.2c-2.3-0.3-3.2-1-3.2-2.7c0-1.5,1.3-2.6,3.2-2.6
				c2,0,3.2,0.9,3.3,2.7h-1.9c-0.1-0.8-0.6-1.2-1.5-1.2s-1.3,0.4-1.3,1c0,0.6,0.3,0.9,1.7,1.1c2.1,0.3,3.3,0.9,3.3,2.7
				C52,46.9,50.7,48.1,48.6,48.1z M59.8,40.7h-2.4V48h-2v-7.3H53v-1.6h6.8V40.7z M67.2,48h-6v-8.9H67v1.6h-3.8v2.1h3v1.5h-3v2.2h4
				V48z M73.8,48l-2.1-3.4h-0.9V48h-2v-8.9H72c2.1,0,3.4,0.9,3.4,2.7v0c0,1.3-0.8,2.1-1.8,2.4l2.3,3.8H73.8z M83.3,48h-6v-8.9h5.8
				v1.6h-3.8v2.1h3v1.5h-3v2.2h4V48z M92.6,43.6c0,2.7-1.6,4.4-4.7,4.4H85v-8.9h2.9C91,39.1,92.6,40.8,92.6,43.6L92.6,43.6z"/>
		</g>
	</g>
	<g id="XMLID_75_">
		<path id="XMLID_128_" class="st0" d="M25.3,79.9h2.1l1.6,4.3l1.6-4.3h2v6.9H31V82l-1.9,4.8h-0.5L26.7,82v4.8h-1.4V79.9z"/>
		<path id="XMLID_125_" class="st0" d="M37.6,79.9h2l2.2,6.9h-1.6l-0.5-1.5h-2.5l-0.5,1.5h-1.5L37.6,79.9z M37.7,84.2h1.8l-0.9-3
			L37.7,84.2z"/>
		<path id="XMLID_123_" class="st0" d="M44.1,83.4L44.1,83.4c0-2.2,1.5-3.6,3.5-3.6c1.5,0,2.9,0.7,3.1,2.4h-1.6
			c-0.1-0.8-0.7-1.2-1.5-1.2c-1.2,0-1.9,0.9-1.9,2.3v0.1c0,1.3,0.6,2.3,1.9,2.3c1.2,0,1.6-0.7,1.7-1.5h-1.6v-1.1h3.1v0.7
			c0,1.8-1.2,3.1-3.2,3.1C45.4,86.9,44.1,85.5,44.1,83.4z"/>
		<path id="XMLID_121_" class="st0" d="M54,79.9h4.5v1.2h-2.9v1.6h2.4v1.1h-2.4v1.7h3.1v1.2H54V79.9z"/>
		<path id="XMLID_119_" class="st0" d="M61.6,79.9h1.8l2.6,4.5v-4.5h1.4v6.9h-1.6L63,81.9v4.9h-1.4V79.9z"/>
		<path id="XMLID_117_" class="st0" d="M72.1,81.1h-1.9v-1.2h5.3v1.2h-1.9v5.7h-1.6V81.1z"/>
		<path id="XMLID_114_" class="st0" d="M77.8,83.4L77.8,83.4c0-2.1,1.5-3.6,3.5-3.6c2.1,0,3.5,1.4,3.5,3.5v0.1
			c0,2.1-1.4,3.5-3.6,3.5C79.2,86.9,77.8,85.4,77.8,83.4z M83.3,83.4L83.3,83.4c0-1.4-0.7-2.3-1.9-2.3c-1.2,0-1.9,0.9-1.9,2.3v0.1
			c0,1.4,0.8,2.3,1.9,2.3C82.6,85.7,83.3,84.8,83.3,83.4z"/>
		<path id="XMLID_112_" class="st0" d="M17.5,95H19c0.1,0.6,0.3,1.1,1.3,1.1c0.7,0,1.1-0.4,1.1-0.9c0-0.6-0.3-0.7-1.3-0.9
			c-1.8-0.2-2.5-0.8-2.5-2.1c0-1.2,1-2.1,2.5-2.1c1.6,0,2.5,0.7,2.6,2.1h-1.4c-0.1-0.6-0.5-0.9-1.1-0.9s-1,0.3-1,0.8
			c0,0.5,0.2,0.7,1.3,0.9c1.7,0.2,2.5,0.7,2.5,2.1c0,1.2-1,2.2-2.6,2.2C18.4,97.3,17.6,96.4,17.5,95z"/>
		<path id="XMLID_109_" class="st0" d="M25.6,93.8L25.6,93.8c0-2.1,1.5-3.6,3.5-3.6c2.1,0,3.5,1.4,3.5,3.5v0.1
			c0,2.1-1.4,3.5-3.6,3.5C27,97.3,25.6,95.8,25.6,93.8z M31.1,93.7L31.1,93.7c0-1.4-0.7-2.3-1.9-2.3c-1.2,0-1.9,0.9-1.9,2.3v0.1
			c0,1.4,0.8,2.3,1.9,2.3C30.3,96,31.1,95.1,31.1,93.7z"/>
		<path id="XMLID_107_" class="st0" d="M35.7,90.3h1.6v5.7h2.8v1.2h-4.4V90.3z"/>
		<path id="XMLID_105_" class="st0" d="M42.8,94.5v-4.2h1.6v4.1c0,1.1,0.3,1.6,1.3,1.6c0.9,0,1.3-0.4,1.3-1.7v-4.1h1.6v4.1
			c0,1.9-1.1,2.9-2.9,2.9C43.8,97.3,42.8,96.3,42.8,94.5z"/>
		<path id="XMLID_103_" class="st0" d="M53.1,91.5h-1.9v-1.2h5.3v1.2h-1.9v5.7h-1.6V91.5z"/>
		<path id="XMLID_101_" class="st0" d="M59.4,90.3H61v6.9h-1.6V90.3z"/>
		<path id="XMLID_98_" class="st0" d="M64,93.8L64,93.8c0-2.1,1.5-3.6,3.5-3.6c2.1,0,3.5,1.4,3.5,3.5v0.1c0,2.1-1.4,3.5-3.6,3.5
			C65.4,97.3,64,95.8,64,93.8z M69.5,93.7L69.5,93.7c0-1.4-0.7-2.3-1.9-2.3c-1.2,0-1.9,0.9-1.9,2.3v0.1c0,1.4,0.8,2.3,1.9,2.3
			C68.7,96,69.5,95.1,69.5,93.7z"/>
		<path id="XMLID_96_" class="st0" d="M74.1,90.3H76l2.6,4.5v-4.5H80v6.9h-1.6l-2.9-4.9v4.9h-1.4V90.3z"/>
		<path id="XMLID_94_" class="st0" d="M83,95h1.5c0.1,0.6,0.3,1.1,1.3,1.1c0.7,0,1.1-0.4,1.1-0.9c0-0.6-0.3-0.7-1.3-0.9
			c-1.8-0.2-2.5-0.8-2.5-2.1c0-1.2,1-2.1,2.5-2.1c1.6,0,2.5,0.7,2.6,2.1h-1.4c-0.1-0.6-0.5-0.9-1.1-0.9c-0.7,0-1,0.3-1,0.8
			c0,0.5,0.2,0.7,1.3,0.9c1.7,0.2,2.5,0.7,2.5,2.1c0,1.2-1,2.2-2.6,2.2C83.9,97.3,83.1,96.4,83,95z"/>
		<path id="XMLID_91_" class="st0" d="M28,100.6h2.4c1.7,0,2.6,0.7,2.6,2.2v0c0,1.5-1,2.1-2.6,2.1h-0.9v2.5H28V100.6z M30.3,103.9
			c0.8,0,1.2-0.4,1.2-1.1v0c0-0.7-0.4-1-1.2-1h-0.8v2.1H30.3z"/>
		<path id="XMLID_88_" class="st0" d="M37.1,100.6h2l2.2,6.9h-1.6l-0.5-1.5h-2.5l-0.5,1.5h-1.5L37.1,100.6z M37.1,104.9H39l-0.9-3
			L37.1,104.9z"/>
		<path id="XMLID_85_" class="st0" d="M44.2,100.6h2.5c1.6,0,2.7,0.7,2.7,2.1v0c0,1-0.6,1.6-1.4,1.8l1.8,2.9h-1.7l-1.6-2.7h-0.7v2.7
			h-1.6V100.6z M46.6,103.8c0.8,0,1.2-0.3,1.2-1v0c0-0.7-0.4-0.9-1.2-0.9h-0.9v2H46.6z"/>
		<path id="XMLID_83_" class="st0" d="M53.8,101.8H52v-1.2h5.3v1.2h-1.9v5.7h-1.6V101.8z"/>
		<path id="XMLID_81_" class="st0" d="M60.1,100.6h1.8l2.6,4.5v-4.5h1.4v6.9h-1.6l-2.9-4.9v4.9h-1.4V100.6z"/>
		<path id="XMLID_79_" class="st0" d="M69.3,100.6h4.5v1.2h-2.9v1.6h2.4v1.1h-2.4v1.7h3.1v1.2h-4.6V100.6z"/>
		<path id="XMLID_76_" class="st0" d="M76.9,100.6h2.5c1.6,0,2.7,0.7,2.7,2.1v0c0,1-0.6,1.6-1.4,1.8l1.8,2.9h-1.7l-1.6-2.7h-0.7v2.7
			h-1.6V100.6z M79.3,103.8c0.8,0,1.2-0.3,1.2-1v0c0-0.7-0.4-0.9-1.2-0.9h-0.9v2H79.3z"/>
	</g>
</g>
</svg>
