<?xml version="1.0" encoding="utf-8"?>
<!-- Generator: Adobe Illustrator 20.0.0, SVG Export Plug-In . SVG Version: 6.00 Build 0)  -->
<!DOCTYPE svg PUBLIC "-//W3C//DTD SVG 1.1//EN" "http://www.w3.org/Graphics/SVG/1.1/DTD/svg11.dtd">
<svg version="1.1" id="Warstwa_1" xmlns="http://www.w3.org/2000/svg" xmlns:xlink="http://www.w3.org/1999/xlink" x="0px" y="0px"
	 viewBox="0 0 96.6 23.9" style="enable-background:new 0 0 96.6 23.9;" xml:space="preserve">
<style type="text/css">
	.st0{fill:#FFFFFF;}
</style>
<g>
	<polygon id="XMLID_66_" class="st0" points="10.3,0 0,6 0,17.9 2.9,19.6 2.9,7.7 10.3,3.4 17.7,7.7 17.7,19.6 20.6,17.9 20.6,6 	
		"/>
	<polygon id="XMLID_65_" class="st0" points="11.8,19.6 10.3,20.5 8.8,19.6 8.8,7.7 5.9,9.4 5.9,21.3 10.3,23.9 14.7,21.3 14.7,9.4 
		11.8,7.7 	"/>
	<g id="XMLID_26_">
		<path id="XMLID_63_" class="st0" d="M25,21.7H26c0,0.4,0.2,0.7,0.8,0.7c0.4,0,0.7-0.2,0.7-0.6c0-0.3-0.2-0.5-0.8-0.6
			c-1.1-0.1-1.6-0.5-1.6-1.3c0-0.7,0.6-1.3,1.6-1.3c1,0,1.5,0.4,1.6,1.3h-0.9c-0.1-0.4-0.3-0.6-0.7-0.6c-0.4,0-0.6,0.2-0.6,0.5
			c0,0.3,0.1,0.5,0.8,0.6c1,0.1,1.6,0.4,1.6,1.3c0,0.8-0.6,1.4-1.7,1.4C25.6,23.1,25.1,22.6,25,21.7z"/>
		<path id="XMLID_60_" class="st0" d="M29.1,20.9L29.1,20.9c0-1.3,0.9-2.3,2.2-2.3c1.3,0,2.2,0.9,2.2,2.2v0c0,1.3-0.9,2.2-2.2,2.2
			C29.9,23.1,29.1,22.2,29.1,20.9z M32.5,20.9L32.5,20.9c0-0.9-0.4-1.5-1.2-1.5c-0.8,0-1.2,0.6-1.2,1.4v0c0,0.9,0.5,1.4,1.2,1.4
			C32,22.4,32.5,21.8,32.5,20.9z"/>
		<path id="XMLID_58_" class="st0" d="M34.4,18.7h1v3.6h1.8v0.8h-2.7V18.7z"/>
		<path id="XMLID_56_" class="st0" d="M37.7,21.4v-2.6h1v2.6c0,0.7,0.2,1,0.8,1c0.6,0,0.8-0.3,0.8-1.1v-2.5h1v2.6
			c0,1.2-0.7,1.8-1.8,1.8C38.4,23.1,37.7,22.5,37.7,21.4z"/>
		<path id="XMLID_54_" class="st0" d="M43.2,19.5H42v-0.8h3.3v0.8h-1.2v3.6h-1V19.5z"/>
		<path id="XMLID_52_" class="st0" d="M46,18.7h1v4.3h-1V18.7z"/>
		<path id="XMLID_49_" class="st0" d="M47.8,20.9L47.8,20.9c0-1.3,0.9-2.3,2.2-2.3c1.3,0,2.2,0.9,2.2,2.2v0c0,1.3-0.9,2.2-2.2,2.2
			C48.7,23.1,47.8,22.2,47.8,20.9z M51.3,20.9L51.3,20.9c0-0.9-0.4-1.5-1.2-1.5c-0.8,0-1.2,0.6-1.2,1.4v0c0,0.9,0.5,1.4,1.2,1.4
			C50.8,22.4,51.3,21.8,51.3,20.9z"/>
		<path id="XMLID_47_" class="st0" d="M53.1,18.7h1.1l1.6,2.9v-2.9h0.9v4.3h-1L54,20v3.1h-0.9V18.7z"/>
		<path id="XMLID_45_" class="st0" d="M57.6,21.7h0.9c0,0.4,0.2,0.7,0.8,0.7c0.4,0,0.7-0.2,0.7-0.6c0-0.3-0.2-0.5-0.8-0.6
			c-1.1-0.1-1.6-0.5-1.6-1.3c0-0.7,0.6-1.3,1.6-1.3c1,0,1.5,0.4,1.6,1.3H60c-0.1-0.4-0.3-0.6-0.7-0.6c-0.4,0-0.6,0.2-0.6,0.5
			c0,0.3,0.1,0.5,0.8,0.6c1,0.1,1.6,0.4,1.6,1.3c0,0.8-0.6,1.4-1.7,1.4C58.2,23.1,57.6,22.6,57.6,21.7z"/>
		<path id="XMLID_42_" class="st0" d="M63.1,18.7h1.5c1.1,0,1.7,0.5,1.7,1.4v0c0,0.9-0.6,1.3-1.6,1.3h-0.6v1.6h-1V18.7z M64.5,20.8
			c0.5,0,0.7-0.2,0.7-0.7v0c0-0.5-0.3-0.6-0.7-0.6h-0.5v1.3H64.5z"/>
		<path id="XMLID_39_" class="st0" d="M67.8,18.7h1.3l1.4,4.3h-1l-0.3-1h-1.6l-0.3,1h-0.9L67.8,18.7z M67.8,21.4h1.1l-0.6-1.9
			L67.8,21.4z"/>
		<path id="XMLID_36_" class="st0" d="M71.1,18.7h1.5c1,0,1.7,0.4,1.7,1.3v0c0,0.7-0.4,1-0.9,1.2l1.1,1.8h-1l-1-1.7h-0.4v1.7h-1
			V18.7z M72.7,20.7c0.5,0,0.7-0.2,0.7-0.6v0c0-0.4-0.3-0.6-0.7-0.6h-0.6v1.2H72.7z"/>
		<path id="XMLID_34_" class="st0" d="M76.1,19.5H75v-0.8h3.3v0.8h-1.2v3.6h-1V19.5z"/>
		<path id="XMLID_32_" class="st0" d="M79,18.7h1.1l1.6,2.9v-2.9h0.9v4.3h-1L79.8,20v3.1H79V18.7z"/>
		<path id="XMLID_30_" class="st0" d="M83.7,18.7h2.8v0.8h-1.8v1h1.5v0.7h-1.5v1.1h1.9v0.8h-2.9V18.7z"/>
		<path id="XMLID_27_" class="st0" d="M87.4,18.7h1.5c1,0,1.7,0.4,1.7,1.3v0c0,0.7-0.4,1-0.9,1.2l1.1,1.8h-1l-1-1.7h-0.4v1.7h-1
			V18.7z M88.9,20.7c0.5,0,0.7-0.2,0.7-0.6v0c0-0.4-0.3-0.6-0.7-0.6h-0.6v1.2H88.9z"/>
	</g>
	<g>
		<path class="st0" d="M73.3,6.2h-0.8v1.9h0.8c0.8,0,1.1-0.3,1.1-1v0C74.4,6.5,74,6.2,73.3,6.2z"/>
		<path class="st0" d="M86.9,6.3h-0.6v4.3h0.6c1.3,0,2-0.8,2-2.1V8.4C88.9,7,88.3,6.3,86.9,6.3z"/>
		<path class="st0" d="M27.1,6.2h-0.8v1.9h0.8c0.8,0,1.1-0.3,1.1-1v0C28.3,6.5,27.9,6.2,27.1,6.2z"/>
		<path class="st0" d="M96.6,0H13.8l7.7,4.5L22.4,5v1v10.2h74.2l-4.2-7.9L96.6,0z M28.5,11.7l-1.6-2.6h-0.7v2.6h-1.5V5.1h2.4
			c1.6,0,2.6,0.6,2.6,2v0c0,1-0.6,1.5-1.4,1.8l1.8,2.8H28.5z M36.5,11.7H32V5.1h4.3v1.2h-2.8v1.6h2.3v1.1h-2.3v1.7h3V11.7z
			 M44.7,8.9c0,1.8-1.1,3-3.1,3c-2.2,0-3.4-1.4-3.4-3.4V8.4c0-2,1.4-3.4,3.4-3.4c1.5,0,2.8,0.7,3,2.3H43c-0.1-0.8-0.6-1.1-1.4-1.1
			c-1.2,0-1.8,0.9-1.8,2.2v0.1c0,1.3,0.5,2.2,1.9,2.2c1.1,0,1.6-0.6,1.6-1.4h-1.5V8.2h3V8.9z M48.4,11.7h-1.5V5.1h1.5V11.7z
			 M53.2,11.8c-1.8,0-2.7-0.9-2.7-2.2h1.4c0.1,0.6,0.3,1.1,1.3,1.1c0.7,0,1.1-0.4,1.1-0.9c0-0.5-0.3-0.7-1.3-0.9
			c-1.7-0.2-2.4-0.7-2.4-2c0-1.1,0.9-2,2.4-2c1.5,0,2.4,0.7,2.5,2h-1.4c-0.1-0.6-0.4-0.9-1.1-0.9s-1,0.3-1,0.8
			c0,0.5,0.2,0.7,1.2,0.8c1.6,0.2,2.4,0.6,2.4,2C55.8,10.9,54.8,11.8,53.2,11.8z M62.5,6.3h-1.8v5.5h-1.5V6.3h-1.8V5.1h5.1V6.3z
			 M68.8,11.7h-4.5V5.1h4.3v1.2h-2.8v1.6h2.3v1.1h-2.3v1.7h3V11.7z M74.7,11.7l-1.6-2.6h-0.7v2.6h-1.5V5.1h2.4c1.6,0,2.6,0.6,2.6,2
			v0c0,1-0.6,1.5-1.4,1.8l1.8,2.8H74.7z M82.7,11.7h-4.5V5.1h4.3v1.2h-2.8v1.6H82v1.1h-2.3v1.7h3V11.7z M90.4,8.4
			c0,2-1.2,3.3-3.5,3.3h-2.2V5.1h2.2C89.3,5.1,90.4,6.4,90.4,8.4L90.4,8.4z"/>
	</g>
</g>
</svg>
