<?xml version="1.0" encoding="utf-8"?>
<!-- Generator: Adobe Illustrator 20.0.0, SVG Export Plug-In . SVG Version: 6.00 Build 0)  -->
<!DOCTYPE svg PUBLIC "-//W3C//DTD SVG 1.1//EN" "http://www.w3.org/Graphics/SVG/1.1/DTD/svg11.dtd">
<svg version="1.1" id="Layer_1" xmlns="http://www.w3.org/2000/svg" xmlns:xlink="http://www.w3.org/1999/xlink" x="0px" y="0px"
	 viewBox="0 0 44 39" style="enable-background:new 0 0 44 39;" xml:space="preserve">
<style type="text/css">
	.st0{fill:#364D55;}
</style>
<path class="st0" d="M32.4,7.4H4.7c-1.9,0-3.5,1.6-3.5,3.5v17.3c0,1.9,1.6,3.5,3.5,3.5h27.7c1.9,0,3.5-1.6,3.5-3.5V10.8
	C35.8,8.9,34.3,7.4,32.4,7.4z M32.4,28.2H4.7V10.8h27.7V28.2z M39.3,0.5H11.6C9.7,0.5,8.2,2,8.2,3.9h31.2v20.8
	c1.9,0,3.5-1.5,3.5-3.5V3.9C42.8,2,41.2,0.5,39.3,0.5z M25.5,35.1H11.6c-1,0-1.7,0.8-1.7,1.7c0,1,0.8,1.7,1.7,1.7h13.8
	c1,0,1.7-0.8,1.7-1.7C27.2,35.9,26.4,35.1,25.5,35.1z"/>
</svg>
