<?xml version="1.0" encoding="utf-8"?>
<!-- Generator: Adobe Illustrator 20.1.0, SVG Export Plug-In . SVG Version: 6.00 Build 0)  -->
<svg version="1.1" id="Layer_1" xmlns="http://www.w3.org/2000/svg" xmlns:xlink="http://www.w3.org/1999/xlink" x="0px" y="0px"
	 viewBox="0 0 66 60" style="enable-background:new 0 0 66 60;" xml:space="preserve">
<style type="text/css">
	.st0{fill:#FFFFFF;}
</style>
<path class="st0" d="M43.5,21h-21c-0.8,0-1.5,0.7-1.5,1.5v15c0,0.8,0.7,1.5,1.5,1.5h21c0.8,0,1.5-0.7,1.5-1.5v-15
	C45,21.7,44.3,21,43.5,21z M43,37H23V23h20V37z M25.3,34.7c0.4,0.4,1,0.4,1.4,0l3.3-3.3l3,3l3-3l3.3,3.3c0.2,0.2,0.5,0.3,0.7,0.3
	c0.3,0,0.5-0.1,0.7-0.3c0.4-0.4,0.4-1,0-1.4L37.4,30l3.3-3.3c0.4-0.4,0.4-1,0-1.4s-1-0.4-1.4,0L33,31.6l-6.3-6.3
	c-0.4-0.4-1-0.4-1.4,0s-0.4,1,0,1.4l3.2,3.3l-3.3,3.3C24.9,33.7,24.9,34.3,25.3,34.7z"/>
</svg>
