<?xml version="1.0" encoding="utf-8"?>
<!-- Generator: Adobe Illustrator 20.1.0, SVG Export Plug-In . SVG Version: 6.00 Build 0)  -->
<svg version="1.1" id="Layer_1" xmlns="http://www.w3.org/2000/svg" xmlns:xlink="http://www.w3.org/1999/xlink" x="0px" y="0px"
	 viewBox="0 0 40 40" style="enable-background:new 0 0 40 40;" xml:space="preserve">
<style type="text/css">
	.st0{fill:#FFFFFF;stroke:#FFFFFF;stroke-width:0.9743;stroke-miterlimit:10;}
</style>
<path class="st0" d="M38.7,35.5l-8.8-8c2.3-2.8,3.7-6.5,3.7-10.4c0-9.1-7.4-16.5-16.5-16.5S0.6,8,0.6,17.1S8,33.6,17.1,33.6
	c3.5,0,6.8-1.1,9.4-3l9.1,8.3c0.4,0.4,1,0.6,1.5,0.6c0.6,0,1.3-0.3,1.7-0.8C39.7,37.8,39.7,36.3,38.7,35.5z M5.2,17.1
	c0-6.6,5.3-11.9,11.9-11.9c6.6,0,11.9,5.3,11.9,11.9C29,23.7,23.7,29,17.1,29C10.5,29,5.2,23.7,5.2,17.1z"/>
</svg>
