<?xml version="1.0" encoding="utf-8"?>
<!-- Generator: Adobe Illustrator 21.0.2, SVG Export Plug-In . SVG Version: 6.00 Build 0)  -->
<svg version="1.1" id="Layer_1" xmlns="http://www.w3.org/2000/svg" xmlns:xlink="http://www.w3.org/1999/xlink" x="0px" y="0px"
	 viewBox="0 0 579.571 462.129" enable-background="new 0 0 579.571 462.129" xml:space="preserve">
<g>
	<g>
		<path fill="#EF4A12" d="M47.679,375.688c-2.71-0.362-4.321-1.882-6.093-2.966c-12.785-7.822-25.47-15.808-38.31-23.538
			c-2.507-1.509-3.263-3.184-3.259-5.98C0.091,278.222,0.11,213.24,0,148.257c-0.006-3.341,1.221-5.007,3.898-6.656
			c57.707-35.539,115.383-71.129,172.974-106.857c3.353-2.08,5.581-1.943,8.849,0.084c57.301,35.543,114.664,70.986,172.111,106.292
			c3.599,2.212,4.759,4.523,4.749,8.677c-0.145,64.149-0.137,128.299-0.007,192.448c0.007,3.669-1.165,5.624-4.232,7.465
			c-12.99,7.8-25.804,15.891-38.724,23.807c-1.336,0.818-2.495,2.208-4.952,1.996c0-3.434,0-6.871,0-10.307
			c0.001-62.983-0.033-125.967,0.086-188.95c0.007-3.94-1.1-6.246-4.557-8.366c-41.739-25.596-83.393-51.333-124.983-77.172
			c-2.985-1.855-5.033-1.804-7.96,0.012c-41.879,25.994-83.81,51.904-125.821,77.684c-3.058,1.877-3.795,4.002-3.791,7.284
			c0.066,64.649,0.043,129.298,0.038,193.947C47.678,371.607,47.679,373.566,47.679,375.688z"/>
		<path fill="#EF4A12" d="M208.081,163.116c2.355-0.088,4.029,0.827,5.705,1.866c16.419,10.18,32.81,20.407,49.329,30.422
			c2.692,1.632,3.406,3.463,3.403,6.42c-0.072,66.831-0.079,133.662,0.026,200.493c0.005,3.107-1.073,4.753-3.6,6.303
			c-26.263,16.113-52.484,32.295-78.639,48.582c-2.355,1.467-3.928,1.372-6.223-0.056c-26.164-16.281-52.377-32.485-78.66-48.574
			c-2.655-1.625-3.415-3.443-3.411-6.419c0.082-66.664,0.09-133.329,0.005-199.993c-0.004-3.363,0.935-5.354,3.925-7.158
			c16.825-10.156,33.498-20.564,50.221-30.89c1.077-0.665,1.931-2.165,3.445-1.348c1.521,0.82,0.698,2.424,0.702,3.621
			c0.074,22.999,0.077,45.998,0.08,68.997c0.006,53.165,0.04,106.33-0.078,159.494c-0.008,3.576,0.896,5.771,4.092,7.582
			c6.66,3.773,13.152,7.857,19.559,12.051c2.474,1.62,4.325,1.458,6.718-0.101c6.418-4.18,12.906-8.271,19.55-12.077
			c3.017-1.728,3.897-3.82,3.893-7.206c-0.085-73.831-0.052-147.662-0.041-221.492C208.081,170.14,208.081,166.649,208.081,163.116z
			"/>
	</g>
	<g>
		<path fill="#EF4A12" d="M483.417,204.466V43.933h-33.433V0h85.654v204.466H483.417z"/>
	</g>
</g>
</svg>
