<?xml version="1.0" encoding="utf-8"?>
<!-- Generator: Adobe Illustrator 20.0.0, SVG Export Plug-In . SVG Version: 6.00 Build 0)  -->
<!DOCTYPE svg PUBLIC "-//W3C//DTD SVG 1.1//EN" "http://www.w3.org/Graphics/SVG/1.1/DTD/svg11.dtd">
<svg version="1.1" id="Layer_1" xmlns="http://www.w3.org/2000/svg" xmlns:xlink="http://www.w3.org/1999/xlink" x="0px" y="0px"
	 viewBox="0 0 44 39" style="enable-background:new 0 0 44 39;" xml:space="preserve">
<style type="text/css">
	.st0{fill:#364D55;}
</style>
<g>
	<path class="st0" d="M24.7,35V4c0-2.1-1.6-3.9-3.5-3.9H3.9C2,0.1,0.5,1.9,0.5,4v31c0,2.1,1.6,3.9,3.5,3.9h17.3
		C23.1,38.9,24.7,37.1,24.7,35z M3.9,35V4h17.3v31H3.9z"/>
	<circle class="st0" cx="13" cy="31.4" r="1.9"/>
	<circle class="st0" cx="35.9" cy="23.4" r="1.9"/>
	<path class="st0" d="M39.7,10.6H26.9v3.5h12.8v17.3H26.9v3.5h12.8c2.1,0,3.9-1.6,3.9-3.5V14.1C43.5,12.2,41.8,10.6,39.7,10.6z"/>
</g>
</svg>
