<?xml version="1.0" encoding="utf-8"?>
<!-- Generator: Adobe Illustrator 20.0.0, SVG Export Plug-In . SVG Version: 6.00 Build 0)  -->
<!DOCTYPE svg PUBLIC "-//W3C//DTD SVG 1.1//EN" "http://www.w3.org/Graphics/SVG/1.1/DTD/svg11.dtd">
<svg version="1.1" id="Warstwa_1" xmlns="http://www.w3.org/2000/svg" xmlns:xlink="http://www.w3.org/1999/xlink" x="0px" y="0px"
	 viewBox="0 0 100 98" style="enable-background:new 0 0 100 98;" xml:space="preserve">
<style type="text/css">
	.st0{fill:url(#SVGID_1_);}
</style>
<linearGradient id="SVGID_1_" gradientUnits="userSpaceOnUse" x1="1.3332" y1="49.9366" x2="99.265" y2="49.9366" gradientTransform="matrix(6.123234e-17 -1 1 6.123234e-17 4.302324e-02 99.2218)">
	<stop  offset="0" style="stop-color:#FE00FF"/>
	<stop  offset="1" style="stop-color:#FD0064"/>
</linearGradient>
<path class="st0" d="M71.8,56.1c-1.7,0-3.3-0.1-5,0c-5.1,0.5-7.8,4.5-6.6,10.8c1,5.2,2.5,10.3,3.7,15.5c0.6,2.4,1.2,4.8,1.7,7.3
	c0.5,2.6,0.9,5.6-1.3,7.2c-2.3,1.6-4.8,1.4-7-0.6c-0.8-0.7-1.5-1.8-2-2.8c-0.7-1.3-1.3-2.8-1.9-4.2c-3.6-9-8-11.6-15.8-9.2
	c-3.9,1.2-7.7,3.3-11.6,4.7c-3.1,1.1-6.2,2.1-9.4,2.5c-8.4,0.9-12.9-6-14-14.5c-1.8-13.5,1-25.8,7.7-36.5c4.2-6.6,10.3-8.5,16.6-10
	c3.4-0.8,6.9-1.5,10.4-2.1c4.7-0.8,8.2-3.8,10.8-8.7C52.5,7.3,58.3,1.6,66.2,0.2c2.9-0.5,6.1-0.3,9,0.4c6.7,1.7,12.7,5.6,17.9,11.2
	c0.4,0.4,0.7,0.7,1,1.2c2.1,2.9,4.6,5.8,3.7,10.2c-0.9,4.5-4.4,5.1-7.3,6.3c-2.4,0.9-4.8,1.7-7,3.1c-2.8,1.8-3.8,5.1-3.3,9.1
	c0.4,2.6,1,5.1,1.3,7.8c0.5,4.1-0.8,6.1-4.1,6.5C75.6,56.3,73.7,56.1,71.8,56.1C71.8,56.1,71.8,56.1,71.8,56.1z"/>
</svg>
