<?xml version="1.0" encoding="utf-8"?>
<!-- Generator: Adobe Illustrator 20.0.0, SVG Export Plug-In . SVG Version: 6.00 Build 0)  -->
<!DOCTYPE svg PUBLIC "-//W3C//DTD SVG 1.1//EN" "http://www.w3.org/Graphics/SVG/1.1/DTD/svg11.dtd">
<svg version="1.1" id="Layer_1" xmlns="http://www.w3.org/2000/svg" xmlns:xlink="http://www.w3.org/1999/xlink" x="0px" y="0px"
	 viewBox="0 0 44 39" style="enable-background:new 0 0 44 39;" xml:space="preserve">
<style type="text/css">
	.st0{fill:#FFFFFF;}
</style>
<path class="st0" d="M40.2,1.3H28.9c-1,0-1.7,0.8-1.7,1.7s0.8,1.7,1.7,1.7h10.4v22.5H4.7V4.8h15.6v2c-1.4,0.5-2.6,1.6-3.1,3
	c-0.4,0.8-0.9,2.2-1.7,4.8c0,0.1-0.4,1.2-0.4,2.3c0,3.8,3.1,6.9,6.9,6.9s6.9-3.1,6.9-6.9c0-1.1-0.3-2.2-0.4-2.2
	c-0.8-2.6-1.3-4-1.7-4.8c-0.6-1.4-1.7-2.5-3.1-3V3.1c0-1-0.8-1.7-1.7-1.7H3.8C2.4,1.4,1.2,2.6,1.2,4v24.2c0,1.4,1.2,2.6,2.6,2.6
	h36.3c1.4,0,2.6-1.2,2.6-2.6V3.9C42.8,2.5,41.6,1.3,40.2,1.3z M22,10c0.7,0,1.4,0.5,1.6,1.2l0.4,1.2l0,0c0.5,1.3,1.2,3.3,1.2,3.4
	c0,0.1,0.2,0.7,0.2,1.2c0,1.9-1.6,3.5-3.5,3.5s-3.5-1.6-3.5-3.5c0-0.4,0.2-1,0.2-1.2c0-0.1,0.8-2.1,1.2-3.4l0.4-1.2
	C20.6,10.4,21.3,10,22,10z M13.3,37.7h17.3v-3.5H13.3V37.7z"/>
</svg>
