<?xml version="1.0" encoding="utf-8"?>
<!-- Generator: Adobe Illustrator 20.0.0, SVG Export Plug-In . SVG Version: 6.00 Build 0)  -->
<!DOCTYPE svg PUBLIC "-//W3C//DTD SVG 1.1//EN" "http://www.w3.org/Graphics/SVG/1.1/DTD/svg11.dtd">
<svg version="1.1" id="Layer_1" xmlns="http://www.w3.org/2000/svg" xmlns:xlink="http://www.w3.org/1999/xlink" x="0px" y="0px"
	 viewBox="0 0 44 39" style="enable-background:new 0 0 44 39;" xml:space="preserve">
<style type="text/css">
	.st0{fill:#FFFFFF;}
</style>
<g>
	<path class="st0" d="M33.9,26l-5.4-5.4v-7.2h-7.2L16,8.1V0.9H6.5v9.4h7.2l2.2,2.2c-0.1,0-0.2,0-0.2-0.1c-3.6-0.9-7.5-0.6-11,0.7
		l0,0c-0.2,0.1-0.4,0.1-0.6,0.2c-0.5,0.3-0.7,0.8-0.7,1.3c0,0.9,0.7,1.6,1.6,1.6c0.2,0,0.4,0,0.6-0.1c1.8-0.7,3.8-1.1,5.7-1.1
		c1.2,0,2.5,0.1,3.7,0.4c1.5,0.4,2.9,0.9,4.2,1.7v5.7h5.7c2,3.5,2.6,7.6,1.7,11.5c-0.2,0.7-0.4,1.4-0.6,2l0,0
		c-0.3,0.8,0.1,1.7,0.9,2c0.2,0.1,0.4,0.1,0.6,0.1c0.6,0,1.2-0.4,1.4-0.9c0,0,0,0,0-0.1v-0.1c0.3-0.8,0.5-1.5,0.7-2.3
		c0.7-3,0.7-6.1,0-9.1l2.2,2.2v7.2h9.4V26H33.9z M9.7,4h3.1v3.1H9.7V4z M22.2,16.6h3.1v3.1h-3.1V16.6z M38,32.3h-3.1v-3.1H38V32.3z"
		/>
</g>
</svg>
