<?xml version="1.0" encoding="utf-8"?>
<!-- Generator: Adobe Illustrator 20.0.0, SVG Export Plug-In . SVG Version: 6.00 Build 0)  -->
<!DOCTYPE svg PUBLIC "-//W3C//DTD SVG 1.1//EN" "http://www.w3.org/Graphics/SVG/1.1/DTD/svg11.dtd">
<svg version="1.1" id="Warstwa_1" xmlns="http://www.w3.org/2000/svg" xmlns:xlink="http://www.w3.org/1999/xlink" x="0px" y="0px"
	 viewBox="0 0 69 69" style="enable-background:new 0 0 69 69;" xml:space="preserve">
<style type="text/css">
	.st0{fill:url(#SVGID_1_);}
</style>
<linearGradient id="SVGID_1_" gradientUnits="userSpaceOnUse" x1="-353.6356" y1="-22.1662" x2="-289.4803" y2="-22.1662" gradientTransform="matrix(0.9163 -0.4006 0.4006 0.9163 337.9221 -73.7996)">
	<stop  offset="0" style="stop-color:#FE00FF"/>
	<stop  offset="0.876" style="stop-color:#F9EC31"/>
</linearGradient>
<path class="st0" d="M61.1,46.9l-6.4,3.4c-2.3,1.2-4.2,3-5.4,5.3l-3.6,6.3c-5.2,9.2-18.6,9-23.6-0.4L18.8,55c-1.2-2.3-3-4.2-5.3-5.4
	l-6.3-3.6c-9.2-5.2-9-18.6,0.4-23.6l6.4-3.4c2.3-1.2,4.2-3,5.4-5.3L23,7.6c5.2-9.2,18.6-9,23.6,0.4l3.4,6.4c1.2,2.3,3,4.2,5.3,5.4
	l6.3,3.6C70.7,28.6,70.5,42,61.1,46.9z"/>
</svg>
