<?xml version="1.0" encoding="utf-8"?>
<!-- Generator: Adobe Illustrator 20.0.0, SVG Export Plug-In . SVG Version: 6.00 Build 0)  -->
<!DOCTYPE svg PUBLIC "-//W3C//DTD SVG 1.1//EN" "http://www.w3.org/Graphics/SVG/1.1/DTD/svg11.dtd">
<svg version="1.1" id="Layer_2" xmlns="http://www.w3.org/2000/svg" xmlns:xlink="http://www.w3.org/1999/xlink" x="0px" y="0px"
	 viewBox="0 0 87.3 87.3" style="enable-background:new 0 0 87.3 87.3;" xml:space="preserve">
<style type="text/css">
	.st0{fill:#464342;}
</style>
<g>
	<g>
		<path class="st0" d="M6.2,43.7c0,14.8,8.6,27.6,21.1,33.7l-17.9-49C7.4,33.1,6.2,38.2,6.2,43.7z"/>
		<path class="st0" d="M68.9,41.8c0-4.6-1.7-7.8-3.1-10.3c-1.9-3.1-3.7-5.7-3.7-8.8c0-3.4,2.6-6.6,6.3-6.6c0.2,0,0.3,0,0.5,0
			c-6.7-6.1-15.5-9.8-25.3-9.8c-13.1,0-24.6,6.7-31.3,16.9c0.9,0,1.7,0,2.4,0c3.9,0,10-0.5,10-0.5c2-0.1,2.3,2.8,0.2,3.1
			c0,0-2,0.2-4.3,0.4l13.6,40.6l8.2-24.6l-5.8-16c-2-0.1-3.9-0.4-3.9-0.4c-2-0.1-1.8-3.2,0.2-3.1c0,0,6.2,0.5,9.9,0.5
			c3.9,0,10-0.5,10-0.5c2-0.1,2.3,2.8,0.2,3.1c0,0-2,0.2-4.3,0.4l13.5,40.3l3.7-12.5C67.7,48.7,68.9,45,68.9,41.8z"/>
		<path class="st0" d="M44.3,46.9L33.1,79.6c3.4,1,6.9,1.5,10.6,1.5c4.4,0,8.5-0.8,12.4-2.1c-0.1-0.2-0.2-0.3-0.3-0.5L44.3,46.9z"/>
		<path class="st0" d="M76.5,25.7c0.2,1.2,0.3,2.5,0.3,3.9c0,3.8-0.7,8.1-2.8,13.4L62.5,76c11.1-6.5,18.6-18.6,18.6-32.4
			C81.1,37.2,79.5,31,76.5,25.7z"/>
		<path class="st0" d="M43.7,0C19.6,0,0,19.6,0,43.7c0,24.1,19.6,43.7,43.7,43.7c24.1,0,43.7-19.6,43.7-43.7
			C87.3,19.6,67.7,0,43.7,0z M43.7,85.3C20.7,85.3,2,66.6,2,43.7C2,20.7,20.7,2,43.7,2c23,0,41.7,18.7,41.7,41.7
			C85.3,66.6,66.6,85.3,43.7,85.3z"/>
	</g>
</g>
</svg>
