<?xml version="1.0" encoding="utf-8"?>
<!-- Generator: Adobe Illustrator 20.0.0, SVG Export Plug-In . SVG Version: 6.00 Build 0)  -->
<!DOCTYPE svg PUBLIC "-//W3C//DTD SVG 1.1//EN" "http://www.w3.org/Graphics/SVG/1.1/DTD/svg11.dtd">
<svg version="1.1" id="Layer_2" xmlns="http://www.w3.org/2000/svg" xmlns:xlink="http://www.w3.org/1999/xlink" x="0px" y="0px"
	 viewBox="0 0 384.9 87.3" style="enable-background:new 0 0 384.9 87.3;" xml:space="preserve">
<style type="text/css">
	.st0{fill:#00749A;}
	.st1{fill:#464342;}
</style>
<g>
	<path class="st0" d="M223.2,34.4h-15.2V36c4.7,0,5.5,1,5.5,7v10.8c0,6-0.8,7.1-5.5,7.1c-3.6-0.5-6.1-2.5-9.5-6.2l-3.9-4.2
		c5.2-0.9,8-4.2,8-8c0-4.7-4-8.2-11.4-8.2h-14.9V36c4.7,0,5.5,1,5.5,7v10.8c0,6-0.8,7.1-5.5,7.1v1.6h16.8v-1.6
		c-4.7,0-5.5-1.1-5.5-7.1v-3h1.4l9.4,11.8h24.6c12.1,0,17.4-6.4,17.4-14.1C240.6,40.7,235.3,34.4,223.2,34.4z M187.8,48.2V36.9h3.5
		c3.8,0,5.5,2.6,5.5,5.7c0,3-1.7,5.6-5.5,5.6H187.8z M223.5,59.9h-0.6c-3,0-3.5-0.8-3.5-4.7V36.9c0,0,3.7,0,4.1,0
		c8.8,0,10.4,6.4,10.4,11.4C233.9,53.5,232.3,59.9,223.5,59.9z"/>
	<path class="st0" d="M129.3,51.3l5.8-17.3c1.7-5,0.9-6.4-4.5-6.4v-1.7h15.9v1.7c-5.3,0-6.6,1.3-8.7,7.4L128.2,64h-1.1l-8.6-26.5
		L109.6,64h-1.1L99.1,35c-2-6.2-3.4-7.4-8.3-7.4v-1.7h18.8v1.7c-5,0-6.3,1.2-4.6,6.4l5.7,17.3l8.5-25.4h1.6L129.3,51.3z"/>
	<path class="st0" d="M158,63.7c-9.3,0-16.9-6.9-16.9-15.2c0-8.3,7.6-15.2,16.9-15.2c9.3,0,16.9,6.9,16.9,15.2
		C175,56.8,167.4,63.7,158,63.7z M158,35.9c-7.8,0-10.5,7-10.5,12.5c0,5.6,2.7,12.5,10.5,12.5c7.9,0,10.6-6.9,10.6-12.5
		C168.6,42.9,165.9,35.9,158,35.9z"/>
	<path class="st1" d="M261.5,60.9v1.7h-19.4v-1.7c5.7,0,6.7-1.4,6.7-9.9V37.4c0-8.5-1-9.8-6.7-9.8v-1.7h17.5
		c8.7,0,13.5,4.5,13.5,10.5c0,5.8-4.8,10.4-13.5,10.4h-4.8V51C254.8,59.4,255.8,60.9,261.5,60.9z M259.6,29h-4.8v14.7h4.8
		c4.7,0,6.9-3.3,6.9-7.3C266.6,32.3,264.4,29,259.6,29z"/>
	<path class="st1" d="M331.3,54.6l-0.4,1.5c-0.8,2.8-1.7,3.8-7.7,3.8H322c-4.4,0-5.2-1-5.2-7V49c6.6,0,7.1,0.6,7.1,5h1.6V41.4h-1.6
		c0,4.4-0.5,5-7.1,5v-9.5h4.7c6,0,6.9,1,7.7,3.8l0.4,1.6h1.4l-0.6-8h-24.9V36c4.7,0,5.5,1,5.5,7v10.8c0,5.5-0.6,6.9-4.4,7.1
		c-3.6-0.5-6-2.5-9.3-6.1l-3.9-4.2c5.2-0.9,8-4.2,8-8c0-4.7-4-8.2-11.4-8.2h-14.9V36c4.7,0,5.5,1,5.5,7v10.8c0,6-0.8,7.1-5.5,7.1
		v1.6h16.8v-1.6c-4.7,0-5.5-1.1-5.5-7.1v-3h1.4l9.4,11.8h34.8l0.5-8H331.3z M286.4,48.2V36.9h3.5c3.8,0,5.5,2.6,5.5,5.7
		c0,3-1.7,5.6-5.5,5.6H286.4z"/>
	<path class="st1" d="M348.5,63.7c-3.4,0-6.3-1.8-7.6-2.9c-0.4,0.4-1.2,1.7-1.4,2.9h-1.6V52h1.7c0.7,5.6,4.6,8.9,9.6,8.9
		c2.7,0,4.9-1.5,4.9-4.1c0-2.2-1.9-3.9-5.4-5.5l-4.8-2.3c-3.4-1.6-5.9-4.4-5.9-8.1c0-4.1,3.8-7.5,9.1-7.5c2.8,0,5.2,1,6.6,2.2
		c0.4-0.3,0.8-1.3,1.1-2.3h1.6v10h-1.8c-0.6-4-2.8-7.3-7.3-7.3c-2.4,0-4.6,1.4-4.6,3.5c0,2.2,1.8,3.4,5.8,5.2l4.7,2.3
		c4.1,1.9,5.7,5.1,5.7,7.6C358.8,59.9,354.2,63.7,348.5,63.7z"/>
	<path class="st1" d="M374.5,63.7c-3.4,0-6.3-1.8-7.6-2.9c-0.4,0.4-1.2,1.7-1.4,2.9H364V52h1.7c0.7,5.6,4.6,8.9,9.6,8.9
		c2.7,0,4.9-1.5,4.9-4.1c0-2.2-1.9-3.9-5.4-5.5l-4.8-2.3c-3.4-1.6-5.9-4.4-5.9-8.1c0-4.1,3.8-7.5,9.1-7.5c2.8,0,5.2,1,6.6,2.2
		c0.4-0.3,0.8-1.3,1.1-2.3h1.6v10h-1.8c-0.6-4-2.8-7.3-7.3-7.3c-2.4,0-4.6,1.4-4.6,3.5c0,2.2,1.8,3.4,5.8,5.2l4.7,2.3
		c4.1,1.9,5.7,5.1,5.7,7.6C384.9,59.9,380.2,63.7,374.5,63.7z"/>
	<g>
		<path class="st1" d="M6.2,43.7c0,14.8,8.6,27.6,21.1,33.7l-17.9-49C7.4,33.1,6.2,38.2,6.2,43.7z"/>
		<path class="st1" d="M68.9,41.8c0-4.6-1.7-7.8-3.1-10.3c-1.9-3.1-3.7-5.7-3.7-8.8c0-3.4,2.6-6.6,6.3-6.6c0.2,0,0.3,0,0.5,0
			c-6.7-6.1-15.5-9.8-25.3-9.8c-13.1,0-24.6,6.7-31.3,16.9c0.9,0,1.7,0,2.4,0c3.9,0,10-0.5,10-0.5c2-0.1,2.3,2.8,0.2,3.1
			c0,0-2,0.2-4.3,0.4l13.6,40.6l8.2-24.6l-5.8-16c-2-0.1-3.9-0.4-3.9-0.4c-2-0.1-1.8-3.2,0.2-3.1c0,0,6.2,0.5,9.9,0.5
			c3.9,0,10-0.5,10-0.5c2-0.1,2.3,2.8,0.2,3.1c0,0-2,0.2-4.3,0.4l13.5,40.3l3.7-12.5C67.7,48.7,68.9,45,68.9,41.8z"/>
		<path class="st1" d="M44.3,46.9L33.1,79.6c3.4,1,6.9,1.5,10.6,1.5c4.4,0,8.5-0.8,12.4-2.1c-0.1-0.2-0.2-0.3-0.3-0.5L44.3,46.9z"/>
		<path class="st1" d="M76.5,25.7c0.2,1.2,0.3,2.5,0.3,3.9c0,3.8-0.7,8.1-2.8,13.4L62.5,76c11.1-6.5,18.6-18.6,18.6-32.4
			C81.1,37.2,79.5,31,76.5,25.7z"/>
		<path class="st1" d="M43.7,0C19.6,0,0,19.6,0,43.7c0,24.1,19.6,43.7,43.7,43.7c24.1,0,43.7-19.6,43.7-43.7
			C87.3,19.6,67.7,0,43.7,0z M43.7,85.3C20.7,85.3,2,66.6,2,43.7C2,20.7,20.7,2,43.7,2c23,0,41.7,18.7,41.7,41.7
			C85.3,66.6,66.6,85.3,43.7,85.3z"/>
	</g>
</g>
</svg>
