<?xml version="1.0" encoding="utf-8"?>
<!-- Generator: Adobe Illustrator 20.0.0, SVG Export Plug-In . SVG Version: 6.00 Build 0)  -->
<!DOCTYPE svg PUBLIC "-//W3C//DTD SVG 1.1//EN" "http://www.w3.org/Graphics/SVG/1.1/DTD/svg11.dtd">
<svg version="1.1" id="Warstwa_1" xmlns="http://www.w3.org/2000/svg" xmlns:xlink="http://www.w3.org/1999/xlink" x="0px" y="0px"
	 viewBox="0 0 430.1 567.3" style="enable-background:new 0 0 430.1 567.3;" xml:space="preserve">
<style type="text/css">
	.st0{fill:#41525B;}
	.st1{fill:#233743;}
	.st2{fill:#192D3A;}
</style>
<g>
	<path class="st0" d="M228.4,7.7L228.4,7.7v0.1c0.6,2.1,0.7,4.5,0,6.8 M228.4,7.8l31.3,96.8l101.8-0.2c6.2,0,11.2,5,11.2,11.2
		c0,3.7-1.8,7-4.6,9v0l-82.5,59.7l31.6,96.8c1.9,5.9-1.3,12.2-7.2,14.2c-3.9,1.2-7.9,0.3-10.8-2.1l-81.5-59.4l-82.2,60
		c-5,3.6-12,2.5-15.7-2.4c-2.2-3-2.7-6.7-1.6-10h0l31.6-96.8l-82.5-59.7c-5-3.6-6.1-10.7-2.5-15.7c2.3-3.2,6.1-4.8,9.8-4.6
		l101.1,0.2l31.3-96.8c1.9-5.9,8.2-9.1,14.1-7.2C224.6,1.7,227.2,4.5,228.4,7.8"/>
	<g id="Layer_x0020_1_2_">
		<g>
			<path class="st0" d="M217.5,502.4L217.5,502.4L217.5,502.4c0.1,0.5,0.2,1,0,1.6 M217.5,502.4l7,21.8l22.9,0
				c1.4,0,2.5,1.1,2.5,2.5c0,0.8-0.4,1.6-1,2v0l-18.6,13.4l7.1,21.8c0.4,1.3-0.3,2.8-1.6,3.2c-0.9,0.3-1.8,0.1-2.4-0.5l-18.4-13.4
				l-18.5,13.5c-1.1,0.8-2.7,0.6-3.5-0.6c-0.5-0.7-0.6-1.5-0.4-2.3h0l7.1-21.8l-18.6-13.4c-1.1-0.8-1.4-2.4-0.6-3.5
				c0.5-0.7,1.4-1.1,2.2-1l22.8,0l7-21.8c0.4-1.3,1.8-2.1,3.2-1.6C216.6,501,217.2,501.6,217.5,502.4"/>
		</g>
	</g>
	<g id="Layer_x0020_1_1_">
		<g>
			<path class="st1" d="M307.5,502.4L307.5,502.4L307.5,502.4c0.1,0.5,0.2,1,0,1.6 M307.5,502.4l7,21.8l22.9,0
				c1.4,0,2.5,1.1,2.5,2.5c0,0.8-0.4,1.6-1,2v0l-18.6,13.4l7.1,21.8c0.4,1.3-0.3,2.8-1.6,3.2c-0.9,0.3-1.8,0.1-2.4-0.5l-18.4-13.4
				l-18.5,13.5c-1.1,0.8-2.7,0.6-3.5-0.6c-0.5-0.7-0.6-1.5-0.4-2.3h0l7.1-21.8l-18.6-13.4c-1.1-0.8-1.4-2.4-0.6-3.5
				c0.5-0.7,1.4-1.1,2.2-1l22.8,0l7-21.8c0.4-1.3,1.8-2.1,3.2-1.6C306.7,501,307.3,501.6,307.5,502.4"/>
		</g>
	</g>
	<g id="Layer_x0020_1_22_">
		<g>
			<path class="st0" d="M397.6,502.4L397.6,502.4L397.6,502.4c0.1,0.5,0.2,1,0,1.6 M397.6,502.4l7,21.8l22.9,0
				c1.4,0,2.5,1.1,2.5,2.5c0,0.8-0.4,1.6-1,2v0l-18.6,13.4l7.1,21.8c0.4,1.3-0.3,2.8-1.6,3.2c-0.9,0.3-1.8,0.1-2.4-0.5l-18.4-13.4
				l-18.5,13.5c-1.1,0.8-2.7,0.6-3.5-0.6c-0.5-0.7-0.6-1.5-0.4-2.3h0l7.1-21.8l-18.6-13.4c-1.1-0.8-1.4-2.4-0.6-3.5
				c0.5-0.7,1.4-1.1,2.2-1l22.8,0l7-21.8c0.4-1.3,1.8-2.1,3.2-1.6C396.7,501,397.3,501.6,397.6,502.4"/>
		</g>
	</g>
	<g id="Layer_x0020_1_20_">
		<g>
			<path class="st0" d="M37.4,502.4L37.4,502.4L37.4,502.4c0.1,0.5,0.2,1,0,1.6 M37.4,502.4l7,21.8l22.9,0c1.4,0,2.5,1.1,2.5,2.5
				c0,0.8-0.4,1.6-1,2v0l-18.6,13.4l7.1,21.8c0.4,1.3-0.3,2.8-1.6,3.2c-0.9,0.3-1.8,0.1-2.4-0.5l-18.4-13.4l-18.5,13.5
				c-1.1,0.8-2.7,0.6-3.5-0.6c-0.5-0.7-0.6-1.5-0.4-2.3h0l7.1-21.8L1,528.7c-1.1-0.8-1.4-2.4-0.6-3.5c0.5-0.7,1.4-1.1,2.2-1l22.8,0
				l7-21.8c0.4-1.3,1.8-2.1,3.2-1.6C36.5,501,37.1,501.6,37.4,502.4"/>
		</g>
	</g>
	<g id="Layer_x0020_1_18_">
		<g>
			<path class="st2" d="M127.4,502.4L127.4,502.4L127.4,502.4c0.1,0.5,0.2,1,0,1.6 M127.4,502.4l7,21.8l22.9,0
				c1.4,0,2.5,1.1,2.5,2.5c0,0.8-0.4,1.6-1,2v0l-18.6,13.4l7.1,21.8c0.4,1.3-0.3,2.8-1.6,3.2c-0.9,0.3-1.8,0.1-2.4-0.5L125,553.3
				l-18.5,13.5c-1.1,0.8-2.7,0.6-3.5-0.6c-0.5-0.7-0.6-1.5-0.4-2.3h0l7.1-21.8l-18.6-13.4c-1.1-0.8-1.4-2.4-0.6-3.5
				c0.5-0.7,1.4-1.1,2.2-1l22.8,0l7-21.8c0.4-1.3,1.8-2.1,3.2-1.6C126.6,501,127.2,501.6,127.4,502.4"/>
		</g>
	</g>
	<g id="Layer_x0020_1_30_">
		<g>
			<path class="st2" d="M267.5,422.3L267.5,422.3L267.5,422.3c0.1,0.5,0.2,1,0,1.6 M267.5,422.3l7,21.8l22.9,0
				c1.4,0,2.5,1.1,2.5,2.5c0,0.8-0.4,1.6-1,2v0l-18.6,13.4l7.1,21.8c0.4,1.3-0.3,2.8-1.6,3.2c-0.9,0.3-1.8,0.1-2.4-0.5l-18.4-13.4
				l-18.5,13.5c-1.1,0.8-2.7,0.6-3.5-0.6c-0.5-0.7-0.6-1.5-0.4-2.3h0l7.1-21.8l-18.6-13.4c-1.1-0.8-1.4-2.4-0.6-3.5
				c0.5-0.7,1.4-1.1,2.2-1l22.8,0l7-21.8c0.4-1.3,1.8-2.1,3.2-1.6C266.7,420.9,267.2,421.6,267.5,422.3"/>
		</g>
	</g>
	<g id="Layer_x0020_1_28_">
		<g>
			<path class="st0" d="M357.6,422.3L357.6,422.3L357.6,422.3c0.1,0.5,0.2,1,0,1.6 M357.6,422.3l7,21.8l22.9,0
				c1.4,0,2.5,1.1,2.5,2.5c0,0.8-0.4,1.6-1,2v0l-18.6,13.4l7.1,21.8c0.4,1.3-0.3,2.8-1.6,3.2c-0.9,0.3-1.8,0.1-2.4-0.5l-18.4-13.4
				l-18.5,13.5c-1.1,0.8-2.7,0.6-3.5-0.6c-0.5-0.7-0.6-1.5-0.4-2.3h0l7.1-21.8l-18.6-13.4c-1.1-0.8-1.4-2.4-0.6-3.5
				c0.5-0.7,1.4-1.1,2.2-1l22.8,0l7-21.8c0.4-1.3,1.8-2.1,3.2-1.6C356.7,420.9,357.3,421.6,357.6,422.3"/>
		</g>
	</g>
	<g id="Layer_x0020_1_26_">
		<g>
			<path class="st1" d="M87.4,422.3L87.4,422.3L87.4,422.3c0.1,0.5,0.2,1,0,1.6 M87.4,422.3l7,21.8l22.9,0c1.4,0,2.5,1.1,2.5,2.5
				c0,0.8-0.4,1.6-1,2v0l-18.6,13.4l7.1,21.8c0.4,1.3-0.3,2.8-1.6,3.2c-0.9,0.3-1.8,0.1-2.4-0.5L85,473.2l-18.5,13.5
				c-1.1,0.8-2.7,0.6-3.5-0.6c-0.5-0.7-0.6-1.5-0.4-2.3h0l7.1-21.8l-18.6-13.4c-1.1-0.8-1.4-2.4-0.6-3.5c0.5-0.7,1.4-1.1,2.2-1
				l22.8,0l7-21.8c0.4-1.3,1.8-2.1,3.2-1.6C86.5,420.9,87.1,421.6,87.4,422.3"/>
		</g>
	</g>
	<g id="Layer_x0020_1_24_">
		<g>
			<path class="st1" d="M177.5,422.3L177.5,422.3L177.5,422.3c0.1,0.5,0.2,1,0,1.6 M177.5,422.3l7,21.8l22.9,0
				c1.4,0,2.5,1.1,2.5,2.5c0,0.8-0.4,1.6-1,2v0l-18.6,13.4l7.1,21.8c0.4,1.3-0.3,2.8-1.6,3.2c-0.9,0.3-1.8,0.1-2.4-0.5L175,473.2
				l-18.5,13.5c-1.1,0.8-2.7,0.6-3.5-0.6c-0.5-0.7-0.6-1.5-0.4-2.3h0l7.1-21.8l-18.6-13.4c-1.1-0.8-1.4-2.4-0.6-3.5
				c0.5-0.7,1.4-1.1,2.2-1l22.8,0l7-21.8c0.4-1.3,1.8-2.1,3.2-1.6C176.6,420.9,177.2,421.6,177.5,422.3"/>
		</g>
	</g>
	<g id="Layer_x0020_1_36_">
		<g>
			<path class="st2" d="M307.5,332.2L307.5,332.2L307.5,332.2c0.1,0.5,0.2,1,0,1.6 M307.5,332.3l7,21.8l22.9,0
				c1.4,0,2.5,1.1,2.5,2.5c0,0.8-0.4,1.6-1,2v0l-18.6,13.4l7.1,21.8c0.4,1.3-0.3,2.8-1.6,3.2c-0.9,0.3-1.8,0.1-2.4-0.5l-18.4-13.4
				l-18.5,13.5c-1.1,0.8-2.7,0.6-3.5-0.6c-0.5-0.7-0.6-1.5-0.4-2.3h0l7.1-21.8l-18.6-13.4c-1.1-0.8-1.4-2.4-0.6-3.5
				c0.5-0.7,1.4-1.1,2.2-1l22.8,0l7-21.8c0.4-1.3,1.8-2.1,3.2-1.6C306.7,330.9,307.3,331.5,307.5,332.3"/>
		</g>
	</g>
	<g id="Layer_x0020_1_34_">
		<g>
			<path class="st1" d="M127.4,332.2L127.4,332.2L127.4,332.2c0.1,0.5,0.2,1,0,1.6 M127.4,332.3l7,21.8l22.9,0
				c1.4,0,2.5,1.1,2.5,2.5c0,0.8-0.4,1.6-1,2v0l-18.6,13.4l7.1,21.8c0.4,1.3-0.3,2.8-1.6,3.2c-0.9,0.3-1.8,0.1-2.4-0.5L125,383.2
				l-18.5,13.5c-1.1,0.8-2.7,0.6-3.5-0.6c-0.5-0.7-0.6-1.5-0.4-2.3h0l7.1-21.8l-18.6-13.4c-1.1-0.8-1.4-2.4-0.6-3.5
				c0.5-0.7,1.4-1.1,2.2-1l22.8,0l7-21.8c0.4-1.3,1.8-2.1,3.2-1.6C126.6,330.9,127.2,331.5,127.4,332.3"/>
		</g>
	</g>
	<g id="Layer_x0020_1_32_">
		<g>
			<path class="st0" d="M217.5,332.2L217.5,332.2L217.5,332.2c0.1,0.5,0.2,1,0,1.6 M217.5,332.3l7,21.8l22.9,0
				c1.4,0,2.5,1.1,2.5,2.5c0,0.8-0.4,1.6-1,2v0l-18.6,13.4l7.1,21.8c0.4,1.3-0.3,2.8-1.6,3.2c-0.9,0.3-1.8,0.1-2.4-0.5l-18.4-13.4
				l-18.5,13.5c-1.1,0.8-2.7,0.6-3.5-0.6c-0.5-0.7-0.6-1.5-0.4-2.3h0l7.1-21.8l-18.6-13.4c-1.1-0.8-1.4-2.4-0.6-3.5
				c0.5-0.7,1.4-1.1,2.2-1l22.8,0l7-21.8c0.4-1.3,1.8-2.1,3.2-1.6C216.6,330.9,217.2,331.5,217.5,332.3"/>
		</g>
	</g>
</g>
</svg>
