<?xml version="1.0" encoding="utf-8"?>
<!-- Generator: Adobe Illustrator 20.0.0, SVG Export Plug-In . SVG Version: 6.00 Build 0)  -->
<!DOCTYPE svg PUBLIC "-//W3C//DTD SVG 1.1//EN" "http://www.w3.org/Graphics/SVG/1.1/DTD/svg11.dtd">
<svg version="1.1" id="_x34_" xmlns="http://www.w3.org/2000/svg" xmlns:xlink="http://www.w3.org/1999/xlink" x="0px" y="0px"
	 viewBox="0 0 24 22" style="enable-background:new 0 0 24 22;" xml:space="preserve">
<style type="text/css">
	.st0{fill:#92AAB3;}
</style>
<g>
	<path class="st0" d="M22,14c1.1,0,2-0.9,2-2V2c0-1.1-0.9-2-2-2H2C0.9,0,0,0.9,0,2v10c0,1.1,0.9,2,2,2h9v2H3c-1.7,0-3,1.3-3,3
		s1.3,3,3,3h18c1.7,0,3-1.3,3-3s-1.3-3-3-3h-8v-2H22z M21,18c0.6,0,1,0.4,1,1s-0.4,1-1,1H3c-0.6,0-1-0.4-1-1s0.4-1,1-1H21z M2,2h20
		v10H2V2z"/>
</g>
</svg>
