<?xml version="1.0" encoding="utf-8"?>
<!-- Generator: Adobe Illustrator 20.0.0, SVG Export Plug-In . SVG Version: 6.00 Build 0)  -->
<!DOCTYPE svg PUBLIC "-//W3C//DTD SVG 1.1//EN" "http://www.w3.org/Graphics/SVG/1.1/DTD/svg11.dtd">
<svg version="1.1" id="_x34_" xmlns="http://www.w3.org/2000/svg" xmlns:xlink="http://www.w3.org/1999/xlink" x="0px" y="0px"
	 viewBox="0 0 24 24" style="enable-background:new 0 0 24 24;" xml:space="preserve">
<style type="text/css">
	.st0{fill:#92AAB3;}
</style>
<g>
	<path class="st0" d="M4,16c-2.2,0-4,1.8-4,4c0,2.2,1.8,4,4,4c2.2,0,4-1.8,4-4C8,17.8,6.2,16,4,16z M4,22c-1.1,0-2-0.9-2-2
		c0-1.1,0.9-2,2-2c1.1,0,2,0.9,2,2C6,21.1,5.1,22,4,22z M20,16c-2.2,0-4,1.8-4,4c0,2.2,1.8,4,4,4c2.2,0,4-1.8,4-4
		C24,17.8,22.2,16,20,16z M20,22c-1.1,0-2-0.9-2-2c0-1.1,0.9-2,2-2c1.1,0,2,0.9,2,2C22,21.1,21.1,22,20,22z M12,0C9.8,0,8,1.8,8,4
		c0,2.2,1.8,4,4,4c2.2,0,4-1.8,4-4C16,1.8,14.2,0,12,0z M12,6c-1.1,0-2-0.9-2-2c0-1.1,0.9-2,2-2c1.1,0,2,0.9,2,2C14,5.1,13.1,6,12,6
		z M13,10h-2v3.4l-3,1.7l1,1.7l3-1.7l3,1.7l1-1.7l-3-1.7V10z"/>
</g>
</svg>
