<?xml version="1.0" encoding="utf-8"?>
<!-- Generator: Adobe Illustrator 20.0.0, SVG Export Plug-In . SVG Version: 6.00 Build 0)  -->
<!DOCTYPE svg PUBLIC "-//W3C//DTD SVG 1.1//EN" "http://www.w3.org/Graphics/SVG/1.1/DTD/svg11.dtd">
<svg version="1.1" id="Warstwa_1" xmlns="http://www.w3.org/2000/svg" xmlns:xlink="http://www.w3.org/1999/xlink" x="0px" y="0px"
	 viewBox="0 0 827.1 511.7" style="enable-background:new 0 0 827.1 511.7;" xml:space="preserve">
<style type="text/css">
	.st0{fill:#FFFFFF;}
</style>
<g>
	<path class="st0" d="M67.9,145.1c-0.2-18.3-0.6-36.7-0.6-55c0-17.8,12.1-33.1,29.3-37.4c13.5-3.3,26-1.4,36.7,8.1
		c2,1.7,3.4,4,5.2,6.1c0.5,0.6,1.2,1.2,2.3,2.4c0.2-1.7,0.3-2.6,0.3-3.6c0-7.8,0.2-15.7,0-23.5c-0.4-18.9,13.2-36.4,32.6-41.1
		c18.6-4.5,39.9,4.8,47.7,22.9c3.2,7.5,3.8,15.3,4,23.2c0.3,12.3,0.4,24.7,0.5,37c0,1,0.1,2.1,0.2,3.1c0.2,0.1,0.4,0.1,0.6,0.2
		c0.6-0.8,1.3-1.6,1.8-2.5c5.4-8.5,12.8-14.6,22.7-16.8c18.9-4.1,39.1,5.2,45.5,25.3c1.9,5.9,2.6,12.2,3,18.4
		c1.9,31.8,1.4,63.6,0.7,95.5c-0.2,8.6-0.5,17.2-0.7,25.7c0,1.1,0.2,2.1,0.3,3.2c0.2,0,0.4,0,0.7,0c1.5-3.8,3-7.7,4.6-11.4
		c3.7-8.6,8.1-16.8,14.1-24.1c5.5-6.7,12.1-11.9,20.6-14.4c8.8-2.6,17.3-1.7,25.5,2.1c6,2.8,9,8.2,10.5,14.4
		c1.8,7.7,0.6,15.2-0.6,22.8c-1.6,9.6-3,19.2-4.4,28.9c-0.7,4.9-1.6,9.9-1.9,14.9c-0.5,9.6-0.8,19.3-0.9,28.9
		c-0.1,6.4-2.2,12.3-4.4,18.1c-7,18.9-15.8,37-25.3,54.8c-6.7,12.5-16.7,22.1-27.8,30.7c-5.7,4.4-11.6,8.3-17.5,12.4
		c-1.5,1-2.1,2.1-2.1,3.9c0.1,7.8,0,15.7,0,23.5c0,16.6-4.7,31.5-15.3,44.4c-10,12.2-22.6,20.2-38.1,23.5c-6.4,1.3-12.8,2-19.3,2
		c-35.7-0.1-71.3,0.4-107-0.2c-28.6-0.5-54.7-18.3-63.8-47.9c-1.5-4.9-2-10.1-3-15.1c-0.2-1-0.7-2-1.4-2.8
		c-14.2-16.2-23.7-34.8-29.7-55.4c-4.8-16.3-6.6-33-6.9-50C5.8,319.1,5.1,298,4,276.9c-0.7-14.4-2.5-28.7-3.3-43.1
		c-0.7-13.5-0.8-27-0.8-40.5c0-7.7,0.2-15.5,1.2-23.2c2-15.5,10.9-25.8,25.4-31.2c9.6-3.6,19.3-3.8,28.6,1c3.5,1.8,6.5,4.6,9.7,6.9
		 M70.7,287.2c-0.5-7-0.8-14-1.4-20.9c-1.3-14.1-2.9-28.1-4.2-42.2c-1.6-16.8-3.3-33.6-4.7-50.5c-0.8-10.5-10.6-24-25.8-20.1
		c-9.3,2.4-17.1,10.6-17.6,20.3c-0.5,11.3-1.4,22.7-0.9,34c0.9,22.3,2.8,44.5,3.9,66.8c1.1,20,2.1,40.1,2.5,60.2
		c0.3,16.1,1.1,32.1,5.3,47.7c2.7,10.1,6.4,19.8,12.1,28.6c5.6,8.6,13.4,14.1,23.8,15c5.4,0.5,10.8,0.6,16.2,0.8
		c5.4,0.2,9,5.5,7.2,10.6c-1.3,3.6-3.9,5.5-8.3,5.5c-5.3,0-10.7-0.3-16-0.6c-2-0.1-2.8,0.6-2.5,2.6c0.6,4,0.8,8.2,1.8,12.1
		c6.1,22.3,26.5,38,49.9,37.9c36.8-0.1,73.7-0.1,110.5,0c8.7,0,16.9-1.8,24.4-6.1c17.2-9.9,26.7-24.6,27.2-44.6
		c0.1-4.9,0-9.8,0-14.7c0-0.9-0.1-1.8-0.2-3.2c-1.4,0.7-2.2,1.1-3,1.5c-3.1,1.8-6.2,3.5-9.3,5.3c-2.3,1.3-4.6,2-7.2,1.1
		c-3.1-1.1-5.2-3.2-5.6-6.7c-0.4-3.8,1.1-6.6,4.5-8.5c15.3-8.7,30.6-17.3,44.6-27.9c9.5-7.1,18.6-14.8,24.5-25.3
		c10.4-18.3,19.2-37.4,26.6-57.2c2-5.2,2.7-10.5,2.3-16.1c-0.4-4.8-0.1-9.7,0.4-14.5c0.9-9.4,2-18.9,3.2-28.3
		c1.1-8.2,2.7-16.3,3.7-24.4c0.7-5.8,1.1-11.7,1.3-17.6c0.1-2.3-1.1-4.3-3.4-5.1c-5.1-1.7-10.1-1.8-15.1,0.6
		c-7.3,3.5-11.8,9.7-15.7,16.3c-7.4,12.6-11.3,26.6-15.2,40.5c-3.6,12.8-8.6,24.7-18.9,33.9c-9.2,8.4-19.6,14.5-31,19.2
		c-3.3,1.4-7.5-0.2-9.4-3.3c-2.1-3.3-1.8-7.4,1.1-10c1.4-1.3,3.2-2.1,4.9-2.9c7.7-3.6,15.3-7.3,21.5-13.3c1-1,2-2.4,2.1-3.7
		c0.8-13.6,1.6-27.3,2-40.9c0.7-22.9,1.4-45.8,1.4-68.7c0-21-0.8-42-1.5-62.9c-0.1-3.1-0.9-6.3-1.9-9.2c-2.9-8.4-11.3-14.3-20-14.5
		c-9.2-0.2-17.1,4.8-20.4,13.6c-1.3,3.5-1.6,7.4-2,11.2c-1.3,13.8-2.5,27.7-3.7,41.5c-1.2,13.9-2.2,27.9-3.3,41.8
		c-1.6,19.7-3.2,39.3-4.9,59c-0.4,4.9-0.7,9.8-1.5,14.7c-0.7,4.6-4.5,7.5-8.5,7.1c-4.5-0.4-7.5-3.9-7.5-8.7c0-1.7-0.2-3.5-0.1-5.2
		c0.3-32.5,0.8-65,0.8-97.5c0-39.2-0.5-78.5-0.8-117.7c0-2.9-0.4-5.8-1.2-8.6c-5-20.1-30.2-23-42.4-11.3c-6.1,5.9-8.4,13-8.4,21.2
		c0,19.2,0,38.3,0,57.5c0,31.8,0,63.7,0,95.5c0,22.2,0,44.3-0.1,66.5c0,5-3.4,8.4-8,8.4c-4.6,0-7.9-3.4-8-8.4
		c-0.2-20.1,0.5-40.3-1.7-60.4c-1.2-10.5-1.5-21.1-2.4-31.6c-1.2-14.4-2.4-28.7-3.7-43.1c-1.3-14.3-2.4-28.5-4.2-42.7
		c-1-7.9-5-14.4-13-17.2c-5.1-1.8-10.4-1.8-15.7-0.5c-9.3,2.4-16.4,11.3-16.5,20.8c0,3.5-0.1,7-0.1,10.5c0.5,38.6,1,77.1,1.6,115.7
		c0.2,15.7,0.7,31.3,1,47c0.2,9.2,0.4,18.5,0.5,27.7c0,3.6-2.6,6.7-5.9,7.4"/>
</g>
<g>
	<path class="st0" d="M762.2,146.9c3.2-2.3,6.2-5.1,9.7-6.9c9.3-4.8,19-4.5,28.6-1c14.5,5.4,23.4,15.7,25.4,31.2
		c1,7.7,1.2,15.5,1.2,23.2c0,13.5-0.1,27-0.8,40.5c-0.7,14.4-2.5,28.7-3.3,43.1c-1,21-1.8,42.1-2.2,63.2c-0.3,17-2.1,33.7-6.9,50
		c-6,20.6-15.5,39.3-29.7,55.4c-0.7,0.8-1.2,1.8-1.4,2.8c-1,5-1.5,10.2-3,15.1c-9.1,29.6-35.2,47.5-63.8,47.9
		c-35.7,0.6-71.3,0.1-107,0.2c-6.5,0-12.9-0.6-19.3-2c-15.5-3.3-28.2-11.3-38.1-23.5c-10.6-12.9-15.3-27.8-15.3-44.4
		c0-7.8,0-15.7,0-23.5c0-1.8-0.7-2.9-2.1-3.9c-5.9-4-11.9-8-17.5-12.4c-11.1-8.5-21.1-18.2-27.8-30.7c-9.5-17.8-18.3-35.9-25.3-54.8
		c-2.2-5.8-4.3-11.7-4.4-18.1c-0.2-9.7-0.4-19.3-0.9-28.9c-0.3-5-1.2-9.9-1.9-14.9c-1.4-9.6-2.8-19.3-4.4-28.9
		c-1.2-7.6-2.4-15.2-0.6-22.8c1.5-6.3,4.4-11.6,10.5-14.4c8.2-3.8,16.8-4.7,25.5-2.1c8.5,2.5,15,7.7,20.6,14.4
		c6,7.3,10.4,15.5,14.1,24.1c1.6,3.8,3.1,7.6,4.6,11.4c0.2,0,0.4,0,0.7,0c0.1-1.1,0.3-2.1,0.3-3.2c-0.2-8.6-0.5-17.2-0.7-25.7
		c-0.7-31.8-1.2-63.7,0.7-95.5c0.4-6.2,1.1-12.5,3-18.4c6.4-20.1,26.6-29.5,45.5-25.3c9.9,2.2,17.3,8.2,22.7,16.8
		c0.5,0.9,1.2,1.6,1.8,2.5c0.2-0.1,0.4-0.1,0.6-0.2c0.1-1,0.2-2.1,0.2-3.1c0.2-12.3,0.3-24.7,0.5-37c0.2-7.9,0.8-15.7,4-23.2
		c7.8-18.1,29.1-27.4,47.7-22.9c19.5,4.7,33,22.2,32.6,41.1c-0.2,7.8,0,15.7,0,23.5c0,0.9,0.2,1.9,0.3,3.6c1.1-1.2,1.7-1.8,2.3-2.4
		c1.7-2,3.2-4.3,5.2-6.1c10.7-9.5,23.2-11.4,36.7-8.1c17.3,4.3,29.3,19.6,29.3,37.4c0,18.3-0.4,36.7-0.6,55 M746,297.6
		c-3.3-0.7-6-3.8-5.9-7.4c0.1-9.2,0.3-18.5,0.5-27.7c0.3-15.7,0.8-31.3,1-47c0.6-38.6,1.1-77.1,1.6-115.7c0-3.5-0.1-7-0.1-10.5
		c-0.1-9.5-7.2-18.4-16.5-20.8c-5.3-1.4-10.6-1.4-15.7,0.5c-8,2.9-12,9.3-13,17.2c-1.8,14.2-2.9,28.5-4.2,42.7
		c-1.3,14.3-2.5,28.7-3.7,43.1c-0.9,10.5-1.2,21.1-2.4,31.6c-2.2,20.1-1.6,40.3-1.7,60.4c0,5-3.3,8.4-8,8.4c-4.6,0-8-3.4-8-8.4
		c-0.1-22.2-0.1-44.3-0.1-66.5c0-31.8,0-63.7,0-95.5c0-19.2,0-38.3,0-57.5c0-8.1-2.3-15.3-8.4-21.2c-12.2-11.8-37.4-8.8-42.4,11.3
		c-0.7,2.8-1.1,5.8-1.2,8.6c-0.4,39.2-0.8,78.5-0.8,117.7c0,32.5,0.5,65,0.8,97.5c0,1.7-0.1,3.5-0.1,5.2c-0.1,4.8-3.1,8.3-7.5,8.7
		c-4.1,0.4-7.8-2.4-8.5-7.1c-0.8-4.8-1.1-9.8-1.5-14.7c-1.6-19.7-3.3-39.3-4.9-59c-1.1-13.9-2.2-27.9-3.3-41.8
		c-1.2-13.9-2.4-27.7-3.7-41.5c-0.4-3.8-0.7-7.7-2-11.2c-3.3-8.8-11.3-13.8-20.4-13.6c-8.8,0.2-17.1,6.1-20,14.5
		c-1,3-1.8,6.1-1.9,9.2c-0.7,21-1.5,42-1.5,62.9c0,22.9,0.8,45.8,1.4,68.7c0.4,13.7,1.2,27.3,2,40.9c0.1,1.3,1.1,2.8,2.1,3.7
		c6.2,6,13.8,9.7,21.5,13.3c1.7,0.8,3.5,1.7,4.9,2.9c2.9,2.6,3.2,6.7,1.1,10c-1.9,3-6.1,4.6-9.4,3.3c-11.4-4.6-21.8-10.8-31-19.2
		c-10.3-9.3-15.3-21.1-18.9-33.9c-3.9-14-7.8-27.9-15.2-40.5c-3.9-6.7-8.4-12.8-15.7-16.3c-4.9-2.4-10-2.3-15.1-0.6
		c-2.3,0.8-3.5,2.8-3.4,5.1c0.3,5.9,0.6,11.8,1.3,17.6c1,8.2,2.6,16.3,3.7,24.4c1.2,9.4,2.3,18.8,3.2,28.3c0.5,4.8,0.8,9.7,0.4,14.5
		c-0.4,5.6,0.3,10.9,2.3,16.1c7.4,19.7,16.2,38.9,26.6,57.2c6,10.5,15,18.2,24.5,25.3c14.1,10.6,29.4,19.3,44.6,27.9
		c3.4,1.9,4.8,4.7,4.5,8.5c-0.3,3.5-2.4,5.5-5.6,6.7c-2.5,0.9-4.9,0.2-7.2-1.1c-3.1-1.8-6.2-3.6-9.3-5.3c-0.8-0.4-1.6-0.8-3-1.5
		c-0.1,1.5-0.2,2.4-0.2,3.2c0,4.9-0.1,9.8,0,14.7c0.5,20.1,10,34.8,27.2,44.6c7.5,4.3,15.7,6.1,24.4,6.1c36.8-0.1,73.7-0.1,110.5,0
		c23.4,0.1,43.8-15.6,49.9-37.9c1.1-3.9,1.2-8,1.8-12.1c0.3-2-0.4-2.7-2.5-2.6c-5.3,0.3-10.7,0.5-16,0.6c-4.4,0-7-1.9-8.3-5.5
		c-1.8-5.1,1.7-10.4,7.2-10.6c5.4-0.2,10.8-0.3,16.2-0.8c10.5-0.9,18.2-6.4,23.8-15c5.7-8.8,9.3-18.5,12.1-28.6
		c4.2-15.6,5.1-31.6,5.3-47.7c0.3-20.1,1.4-40.1,2.5-60.2c1.2-22.3,3-44.5,3.9-66.8c0.5-11.3-0.4-22.6-0.9-34
		c-0.4-9.7-8.2-17.9-17.6-20.3c-15.3-3.9-25,9.6-25.8,20.1c-1.3,16.8-3.1,33.7-4.7,50.5c-1.4,14.1-2.9,28.1-4.2,42.2
		c-0.6,7-0.9,13.9-1.4,20.9"/>
</g>
</svg>
