<?xml version="1.0" encoding="utf-8"?>
<!-- Generator: Adobe Illustrator 20.0.0, SVG Export Plug-In . SVG Version: 6.00 Build 0)  -->
<!DOCTYPE svg PUBLIC "-//W3C//DTD SVG 1.1//EN" "http://www.w3.org/Graphics/SVG/1.1/DTD/svg11.dtd">
<svg version="1.1" id="Warstwa_1" xmlns="http://www.w3.org/2000/svg" xmlns:xlink="http://www.w3.org/1999/xlink" x="0px" y="0px"
	 viewBox="0 0 512.3 467.2" style="enable-background:new 0 0 512.3 467.2;" xml:space="preserve">
<style type="text/css">
	.st0{fill:#FFFFFF;}
</style>
<g>
	<path class="st0" d="M256.1,467c-80.1,0-160.1-0.1-240.2,0.2c-7.2,0-16.1-8.3-15.9-16c0.6-17.1,0.2-34.3,0.2-51.5
		c0-1.4,0.6-2.9,0.9-4.3c0.1-0.6,0.6-1.1,0.6-1.6c-0.5-7.5,3.5-13.6,6-20.1c8.3-22.1,17-44,25.6-66c7.8-20,15.6-39.9,23.4-59.9
		c4.6-11.7,9-23.4,13.6-35.1c0.4-0.9,0.7-2,1.4-2.6c2.6-2.3,2-5,1.3-7.8c-3.7-16-7.3-31.9-10.9-47.9c-3.5-15.3-7.1-30.6-10.6-45.9
		c-3.2-13.9-6.2-27.9-9.4-41.9c-1.6-6.9-3.2-13.8-4.9-20.6c-0.2-0.8-1.3-1.7-2.1-1.8c-5.3-0.8-8.3-3.9-8.4-9.2c-0.1-8.5,0-17,0-25.5
		c0-5.9,4.8-9.4,9.7-9.4C183,0.1,329.6,0.1,476.1,0c5.9,0,10.1,5.3,9.7,11.5c-0.4,7-0.5,14,0,21c0.3,4-1.2,7.5-2,11.2
		c-3.5,14.6-7.1,29.2-10.8,43.8c-3.2,12.7-6.4,25.5-9.5,38.2c-3.2,12.8-6.3,25.7-9.4,38.5c-2.8,11.4-5.7,22.7-8.5,34.1
		c-1.1,4.4-2.2,8.7-3.2,13.1c-0.2,0.8-0.1,1.9,0.2,2.7c9.7,25,19.5,50,29.3,75c10.8,27.8,21.6,55.6,32.4,83.4
		c1.7,4.4,3.5,8.8,5.1,13.3c0.7,2,0.7,4.2,1.3,6.3c2.9,9.9,1.1,20,1.4,30c0.3,10-0.2,20,0.2,30c0.3,6.7-8.3,15.1-15.1,15.1
		C416.7,466.9,336.4,467,256.1,467z M258.7,202.6c14.2,0,28.5,0,42.7,0c40.7,0,81.3,0,122,0c2.3,0,3.3-0.7,3.9-3.1
		c2.3-10,4.8-19.9,7.3-29.8c2.5-10.1,5-20.2,7.5-30.3c2.5-10.1,4.9-20.2,7.4-30.3c2.5-10.2,5.1-20.3,7.6-30.5
		c2.6-10.3,5.1-20.7,7.7-31c0.9-3.4,0.7-3.7-2.9-3.7c-52.2,0-104.5,0-156.7-0.1c-3.6,0-5.3,0.8-6.9,4.4
		c-5.7,12.8-16.8,18.9-29.9,21.5c-11.1,2.3-21.7-0.1-31.4-5.9c-6.9-4.1-12.6-9.5-15.1-17.5c-0.6-2.1-1.9-2.5-3.9-2.5
		c-35.4,0.1-70.8,0-106.2,0c-18.1,0-36.2,0-54.2,0c-2.2,0-2.8,0.7-2.3,2.8c0.9,3.4,1.6,6.8,2.4,10.2c2.1,9.2,4.2,18.5,6.3,27.7
		c2.2,9.6,4.3,19.1,6.5,28.7c2.2,9.6,4.4,19.3,6.6,28.9c2.1,9.4,4.3,18.8,6.4,28.2c2.2,9.6,4.4,19.1,6.5,28.7
		c0.5,2.4,1.4,3.4,3.9,3.3c10.2-0.1,20.5,0,30.7,0C169.4,202.6,214.1,202.6,258.7,202.6z M152.1,387.4c18.2,0,36.5,0.1,54.7,0
		c7.9,0,14,6.6,15.1,11.3c3.5,14.6,14.4,21.1,25.4,23.3c6.8,1.4,13.7,1.1,20.5-0.8c9.3-2.6,16.4-7.8,20.4-16.8c1-2.2,1.4-4.8,2.5-7
		c3.1-6.5,8.1-10.1,15.5-10.1c35.9,0,71.8,0,107.7,0c2.4,0,4.5-0.4,6.5-1.9c20.2-15,33.5-34.5,38-59.5c1.8-10.2,0.4-20.1-3.9-29.5
		c-5.6-12.5-14.7-22.1-25.4-30.3c-20.2-15.6-43.3-25.2-67.7-32.1c-12.3-3.4-24.9-6-37.5-8.3c-15.3-2.9-30.8-4.6-46.4-4.9
		c-23.1-0.5-46.1-0.8-69.1,1.9c-17.9,2.1-35.5,5.2-52.9,9.9c-16,4.3-31.6,9.8-46.4,17.2c-14.9,7.5-28.7,16.5-40,29
		c-14.2,15.8-19.9,33.9-13.9,54.7c6.1,21.3,18.3,38.4,36.1,51.6c2.1,1.6,4.4,2.2,7,2.2C116.3,387.4,134.2,387.4,152.1,387.4z
		 M255.9,449.5C255.9,449.5,255.9,449.5,255.9,449.5c32.3,0,64.7,0,97,0c46.2,0,92.3,0,138.5,0c3.1,0,3.2-0.1,3.2-3.3
		c0-12.2,0-24.3,0-36.5c0-4.2,0-4.2-4.3-4.2c-26.4,0.1-52.8,0.2-79.2,0.2c-33.7,0-67.5,0-101.2,0c-1.8,0-3,0.6-3.6,2.3
		c-1.9,5.5-5.1,10.3-9,14.5c-9.1,9.8-20.3,15.6-33.6,17.8c-6.2,1-12.1,0.6-18.1-0.5c-7.2-1.4-13.9-4.3-20-8.4
		c-8.3-5.6-15-12.7-18.8-22c-1.2-3-2.7-3.7-5.7-3.7c-22.2,0.1-44.3,0.1-66.5,0.1c-14.4,0-28.8,0-43.2,0c-23.7-0.1-47.3-0.1-71-0.2
		c-1.8,0-2.6,0.7-2.6,2.5c0,13.1,0,26.2,0,39.2c0,1.5,0.6,2.4,2.2,2.3c0.8,0,1.7,0,2.5,0C100.2,449.5,178.1,449.5,255.9,449.5z
		 M256.1,17.6C256.1,17.6,256.1,17.6,256.1,17.6c-68.8,0-137.6,0-206.5,0c-6.5,0-5.3-0.2-5.6,5.5c-0.1,2.6,0.7,3.2,3.2,3.2
		c35.1-0.1,70.2-0.1,105.2-0.1c25.5,0,51,0,76.5,0c4.8,0,8.2,2,9.6,6.1c0.6,2,0.6,4.3,0.3,6.4c-0.4,3.7,0.5,6.9,3.5,8.8
		c3.1,2,6.6,3.5,10.1,4.5c5.3,1.4,10.7,1.2,16.1,0.1c5.3-1.1,10.6-2.7,12.8-8.2c0.9-2.2,0.7-5,0.6-7.5c-0.1-5,1.7-8.1,6.5-9.6
		c1.8-0.5,3.8-0.5,5.7-0.5c56.3,0,112.6,0,169,0c5.7,0,4.8,0.5,4.9-5c0-3.7,0-3.7-3.6-3.7C395.1,17.6,325.6,17.6,256.1,17.6z
		 M39.6,341.2c-0.7,1-1.2,1.5-1.4,2.1C32.8,357.1,27.4,371.1,22,385c-0.9,2.4-0.8,2.6,1.9,2.6c13.4,0,26.8,0,40.2,0
		c0.8,0,1.7-0.2,3.2-0.4C54.7,373.6,45.6,358.7,39.6,341.2z M444.9,387.3c1.8,0.2,2.7,0.3,3.7,0.3c13,0,26,0,39,0
		c3.7,0,3.8-0.1,2.4-3.6c-5.3-13.5-10.6-27.1-15.9-40.6c-0.3-0.7-0.8-1.2-1.5-2.3C466.8,358.7,457.5,373.6,444.9,387.3z M73.8,251.9
		c0.2,0.2,0.5,0.4,0.7,0.6c18.8-13.9,39.7-23.5,61.6-31.5c-0.8-0.5-1.4-0.6-2-0.6c-15.2,0-30.5,0-45.7,0c-1.8,0-2.7,0.8-3.3,2.4
		c-2.5,6.6-5.1,13.1-7.7,19.7C76.2,245.6,75,248.8,73.8,251.9z M376.3,220.6c-0.1,0.3-0.1,0.5-0.2,0.8c22,7.6,42.9,17.3,62.3,31.6
		c-0.2-1.5-0.2-2-0.4-2.6c-3.6-9.3-7.3-18.6-10.8-27.9c-0.6-1.7-1.7-2.2-3.5-2.2c-15,0.1-30,0-45,0.1
		C377.9,220.4,377.1,220.5,376.3,220.6z"/>
	<path class="st0" d="M158.8,139.4c0.1-12.7,3.6-22.4,11.4-30.4c5-5.1,7.8-11.1,7-18.5c-0.6-5.6-3.6-9.9-7.2-13.9
		c-4.3-4.7-3-11.3,2.6-14c3.2-1.6,7.3-0.7,10.1,2.1c4.4,4.5,7.5,9.8,9.1,15.8c3.5,13,2.1,25.4-5.8,36.7c-1.2,1.8-2.8,3.3-4.2,4.9
		c-4.5,4.9-7.3,10.5-6.7,17.4c0.5,5.7,3.1,10.3,6.9,14.3c2.5,2.6,3.7,5.6,2.4,9.3c-2.3,6.2-9.7,8-14.4,3.3
		C162.1,158.5,158.9,148.7,158.8,139.4z"/>
	<path class="st0" d="M106.6,164.3c0.3-11.1,3.9-20.7,11.6-28.8c9.7-10.2,9.7-21.6,0.2-32c-5.1-5.5-3.2-13,3.8-15
		c3.4-1,6.2,0.3,8.6,2.7c5.4,5.5,8.7,12.2,10,19.7c2.3,13.1-0.2,25.1-8.9,35.6c-2.3,2.8-4.9,5.5-6.6,8.7c-4.3,8.2-2.6,16.9,4.1,24.4
		c0.9,1,2,2.1,2.6,3.3c1.9,3.8,0.8,8.3-2.4,10.7c-3.5,2.6-8.2,2.4-11.4-0.7c-5-4.9-8.3-10.9-9.9-17.6
		C107.4,171.7,107.1,168,106.6,164.3z"/>
	<path class="st0" d="M202.7,164.2c0.3-11.1,3.9-20.7,11.6-28.8c9.6-10,9.7-21.3,0.5-31.6c-3.3-3.7-4.1-7.4-2.2-10.9
		c2.7-5.2,9.4-6.3,13.8-2.2c4.4,4.1,7.4,9.2,9.1,15c4.6,15.7,2.2,29.9-8.9,42.3c-2,2.3-4,4.7-5.3,7.5c-4.4,9.2-1.9,17.3,4.7,24.5
		c2.7,2.9,4.1,6,2.5,10c-2.4,5.8-9.4,7.4-14,3.1c-5.3-5-8.5-11.2-10.2-18.3C203.4,171.3,203.2,167.7,202.7,164.2z"/>
	<path class="st0" d="M406.2,326.1c-11.5-0.7-21.7-4.2-29.5-12.9c-7.6-8.3-7.5-18.9,0-27.3c5.5-6.2,12.6-9.9,20.5-11.6
		c14.2-3,26.8,0.5,37.3,10.4c5,4.7,7.6,10.5,6.6,17.5c-0.5,3.8-2.2,7.2-4.7,10C428.5,321.6,418,325.5,406.2,326.1z M406.9,290.3
		c-4.1,0.6-7.7,1-11.2,1.8c-4.3,1-7.1,4-7.3,7.3c-0.2,3,1.8,5.8,5.9,7.2c7.9,2.8,16,2.6,24-0.1c3.1-1.1,5.6-3.3,5.6-6.9
		c0-3.6-2.4-5.9-5.6-6.8C414.4,291.6,410.4,291.1,406.9,290.3z"/>
	<path class="st0" d="M327.2,290.8c-10.6-0.5-19.8-3.5-27.4-10.3c-10.7-9.5-10.9-22-0.6-31.9c15.2-14.5,41.7-14,56.3,1.1
		c8.7,9,8.8,20.1,0,29.1C347.6,286.9,337.7,290.2,327.2,290.8z M326.8,273.9c4.3-1,8.5-1.6,12.5-2.8c2.9-0.9,5-3,5.1-6.4
		c0.1-3.4-1.9-5.3-4.6-6.7c-3.8-2-8-2.3-12.1-2.4c-4.7,0-9.3,0.1-13.6,2.2c-2.9,1.4-5,3.3-4.9,6.8c0.1,3.4,2.3,5.5,5.1,6.4
		C318.3,272.3,322.5,272.9,326.8,273.9z"/>
	<path class="st0" d="M123.8,370.1c-11-0.5-20.8-3.9-28.6-11.8c-8.8-8.9-9-20.2-0.2-29c9.3-9.3,20.8-13.1,33.9-11.5
		c8,1,15,4,21.2,9.1c3.7,3.1,6.6,6.8,8,11.5c2.4,7.7-0.3,14.1-5.5,19.6C144.8,366.1,134.8,369.6,123.8,370.1z M124.3,334.4
		c-4.1,0.6-7.6,0.9-11,1.7c-4.2,0.9-7.1,3.9-7.3,6.9c-0.3,3.4,1.6,6.2,5.9,7.7c7.9,2.7,15.9,2.6,23.7-0.1c3.2-1.1,5.7-3.1,5.6-7.1
		c-0.1-3.7-2.5-5.8-5.7-6.8C131.8,335.6,127.8,335.1,124.3,334.4z"/>
	<path class="st0" d="M353.5,326c11.6,0.7,22.3,4.4,30.1,13.9c6.6,8,6.6,17.7-0.3,25.5c-9.4,10.6-21.5,14.7-35.5,13
		c-8.9-1.1-16.8-4.7-23.1-11.2c-8.8-9-8.9-20.3,0-29.3C332.4,329.9,342.3,326.6,353.5,326z M353.1,343.2c-3.6,0.6-7.2,1-10.7,1.8
		c-4,1-6.7,3.9-6.9,7c-0.2,3.1,1.7,5.9,6,7.4c7.8,2.7,15.7,2.6,23.5,0c3.3-1.1,5.9-3.3,6-7.1c0.1-3.1-2.8-6.3-6.9-7.3
		C360.5,344.2,356.9,343.9,353.1,343.2z"/>
	<path class="st0" d="M240.1,229.2c9,0.4,18.4,3.6,26.2,10.9c9.9,9.4,10,21.8-0.1,31c-16,14.6-39.9,14.3-55.6-0.3
		c-5.9-5.5-9-12.4-6.4-20.7c1.5-4.9,4.6-8.6,8.5-11.8C219.7,232.6,229.5,229.2,240.1,229.2z M239,246.1c-0.1,0.2-0.1,0.4-0.2,0.6
		c-2.3,0.1-4.7,0.2-7,0.5c-1.2,0.1-2.4,0.5-3.6,0.8c-4.5,1.2-7.3,4-7.4,7.4c-0.1,3.6,2.6,6.8,7.2,7.7c4.7,0.8,9.5,1.2,14.3,1.1
		c3.1-0.1,6.2-1,9.1-2.1c2.8-1,4.7-3.2,4.7-6.5c0-3.2-2-5.5-4.8-6.4C247.4,247.8,243.1,247,239,246.1z"/>
	<path class="st0" d="M151.1,246.9c10.1,0.2,19.9,3.8,27.8,11.7c8.5,8.5,8.7,20,0.3,28.7c-8.4,8.7-18.9,12.5-30.9,12.1
		c-9.9-0.4-18.7-3.9-25.9-10.8c-10.2-9.7-9.8-22.5,0.9-31.7C130.9,250.2,139.9,247,151.1,246.9z M150,282.6c4.9-0.5,9.6-1,13.9-3.4
		c5.5-3.1,5.6-9.4-0.1-12.2c-3-1.5-6.4-2.1-9.8-2.6c-5.2-0.8-10.5-0.2-15.5,1.6c-3.7,1.3-6.2,4.2-6,7.2c0.2,3.7,2.6,6,5.9,6.9
		C142.2,281.2,146.1,281.8,150,282.6z"/>
	<path class="st0" d="M258.2,343.8c9.9,0.4,20.5,4.2,28.3,13.7c6.9,8.4,6.5,18.3-1,26.3c-8.4,9-19,12.9-31.2,12.5
		c-9.8-0.4-18.6-3.8-25.8-10.5c-10.6-9.9-10-23.4,1.3-32.6C237.5,347,246.3,343.9,258.2,343.8z M256.5,379.1
		c4.4-0.1,9.1-0.4,13.4-2.9c5.5-3.2,5.5-9.3-0.2-12.2c-2.4-1.2-5.1-2-7.8-2.4c-6.6-1-13.1-0.8-19.3,2.3c-2.6,1.3-4.2,3.4-4.2,6.3
		c0,2.8,1.7,4.8,4.1,6.1C246.8,378.5,251.4,379,256.5,379.1z"/>
	<path class="st0" d="M237.8,313.2c-4.5-0.4-7.7-2.1-10.7-4.5c-1.4-1.1-3.2-2-4.9-2.6c-4-1.3-7.4-3.3-9.9-6.8
		c-0.7-1-1.8-1.9-2.9-2.4c-5.1-2-5.8-4.3-2.4-8.6c1.5-1.9,3.1-3.8,4.9-5.3c0.8-0.7,2.5-0.9,3.7-0.7c3.6,0.6,6.7,2.3,9.5,4.7
		c1.1,1,2.6,1.7,4,2.1c4,1.2,7.7,3,10,6.6c1.1,1.7,2.4,2.6,4.1,3.2c4.2,1.7,4.9,3.8,2.2,7.4c-1.6,2.1-3.4,4.1-5.3,6
		C239.5,313,238.3,313.1,237.8,313.2z"/>
	<path class="st0" d="M187.1,352.7c-1.2-0.9-2.5-1.4-3-2.3c-1.5-3.1-2.7-6.4-3.9-9.6c-0.2-0.5,0.3-1.4,0.7-2c2.3-3.8,5.9-6,10-7.4
		c1.1-0.4,2.2-1.1,3-1.9c3.3-3.6,7.3-5.9,12.3-6.2c1-0.1,2.1-0.9,2.9-1.6c3.7-3,6.2-2.5,8.1,1.9c1,2.3,1.9,4.8,2.6,7.2
		c0.2,0.7-0.1,1.6-0.5,2.3c-2.1,3.5-5.2,5.7-9,7.2c-1.6,0.6-3.2,1.7-4.5,2.9c-3.2,3.1-6.8,5.2-11.4,5.6c-1.1,0.1-2.2,0.9-3.3,1.5
		C190,350.9,188.7,351.7,187.1,352.7z"/>
	<path class="st0" d="M273.3,308.7c4.9,0.2,8.2,2.1,11.3,4.6c1.3,1.1,2.9,2,4.5,2.5c4.4,1.3,8,3.4,10.5,7.5c0.5,0.9,1.7,1.5,2.8,1.9
		c4.6,1.6,5.5,4.2,2.6,8.1c-1.5,2-3.2,3.9-5,5.6c-0.7,0.7-2.1,1-3.2,0.9c-4.1-0.4-7.6-2.2-10.6-5.1c-0.8-0.7-1.9-1.3-2.9-1.6
		c-4.7-1.4-9-3.3-11.5-8c-0.5-0.9-2-1.4-3.1-1.9c-4.2-1.6-5-4.1-2.4-7.7c1.5-2.1,3.3-4,5.1-5.8C272,309,273.1,308.8,273.3,308.7z"/>
</g>
</svg>
