<?xml version="1.0" encoding="utf-8"?>
<!-- Generator: Adobe Illustrator 20.0.0, SVG Export Plug-In . SVG Version: 6.00 Build 0)  -->
<!DOCTYPE svg PUBLIC "-//W3C//DTD SVG 1.1//EN" "http://www.w3.org/Graphics/SVG/1.1/DTD/svg11.dtd">
<svg version="1.1" id="Warstwa_1" xmlns="http://www.w3.org/2000/svg" xmlns:xlink="http://www.w3.org/1999/xlink" x="0px" y="0px"
	 viewBox="0 0 370.5 402.6" style="enable-background:new 0 0 370.5 402.6;" xml:space="preserve">
<style type="text/css">
	.st0{fill:#FFFFFF;}
</style>
<g>
	<path class="st0" d="M64.1,368.6c-4.6,2.3-8.8,4.9-13.4,6.7c-19.1,7.3-42-3.7-48.5-23.1c-6.8-20.4,2.8-41,22.7-48.7
		c2.3-0.9,4.8-1.4,7.2-1.8c2.1-0.4,2.6-1.4,2.6-3.4c0-22.6,0.2-45.2,0.2-67.7c0.1-31.6,0.1-63.2,0.2-94.7c0-2-0.5-3.6-1.7-5.3
		C14.7,104.1,27,66.3,57.7,56c8.7-2.9,17.6-3.6,26.6-1.5c1.9,0.4,2.4-0.5,2.9-1.8c3.1-8.3,7.4-16,13.1-22.8
		c11-13.3,24.9-22.4,41.6-26.9c13.3-3.6,26.7-4,40-0.7c25.4,6.3,43.7,21.4,55,45.1c1.2,2.5,2.4,3.1,4.9,2.6
		c14.5-2.6,27.8,0.9,39.1,10c15.2,12.3,21.4,28.4,18.5,47.8c-1.6,10.6-6.4,19.5-13.9,27.1c-1.4,1.4-1.5,3-1.5,4.8
		c0,38.2,0,76.5,0,114.7c0,35.9,0.2,71.8-0.1,107.7c-0.1,17.4-8.6,30-24.5,37.3c-5.2,2.4-10.9,3.1-16.6,3.1c-39.4,0-78.8,0-118.2,0
		c-8.5,0-17.1,0.4-25.5-0.5c-15-1.6-25.6-10-31.8-23.7C65.9,375.1,65.1,371.7,64.1,368.6z M269.4,254.8c0-36.7,0-73.3,0-110
		c0-2.4-0.6-3.1-3.1-3.1c-16.6,0.1-33.2,0.1-49.7,0.1c-44.7,0-89.3,0-134,0c-4.2,0-4.2,0-4.2,4.3c0,21.7,0,43.3,0,65
		c0,24.3,0,48.7,0.1,73c0,26.1-0.1,52.2,0.1,78.2c0.1,14.9,11.2,25.8,26.1,25.8c46.2,0,92.5-0.1,138.7,0.1
		c14.6,0,26.2-11.9,26.1-26.1C269.2,326.3,269.3,290.6,269.4,254.8z M49.2,316.9c-3.1-0.3-5.7-0.6-8.3-1C28.3,314,17,323.5,14.7,335
		c-2.6,13.5,8.2,27.6,22,28c14.9,0.5,26.2-10.3,26.3-25.3c0-52.2,0-104.3,0-156.5c0-17.5,0-35,0-52.5c0-2.1,0.6-2.8,2.7-2.7
		c4.2,0.1,8.3,0,12.5,0c64.3,0,128.7,0,193,0c1.8,0,3.1-0.5,4.4-1.8c11-11.3,13.4-28.8,5.5-42.5c-7.8-13.6-23.6-21.3-40.2-17
		c-3.8,1-7.5,2.6-11.5,4.1c-0.4-1.1-0.8-2.1-1.2-3.2c-1.5-4.2-2.7-8.6-4.6-12.6C211.6,29,192,16,165,14.7
		c-14.7-0.7-28.1,3.5-40.2,11.9c-15.3,10.7-24.1,25.6-27.7,43.8c-0.3,1.3-0.8,2.6-1.1,3.9c-0.6-0.1-0.9-0.1-1.1-0.2
		c-1.2-0.5-2.5-1-3.6-1.6c-8.8-4.6-18-6-27.6-3.2c-23.9,6.8-32.6,36.9-16.1,55.7c1.6,1.8,2.1,3.5,2.1,5.8
		c-0.2,22.2-0.3,44.3-0.3,66.5c-0.1,38.2-0.1,76.5-0.2,114.7C49.2,313.5,49.2,315.1,49.2,316.9z"/>
	<path class="st0" d="M370.5,254.8c0,20.8-0.1,41.7,0,62.5c0.1,12.1-4.1,22.3-13.4,30.2c-6.1,5.2-13.2,8.5-21.3,8.6
		c-12.8,0.2-25.7,0.1-38.5,0.2c-1.7,0-2.1-0.7-2.1-2.3c0.1-3.2,0.1-6.3,0-9.5c-0.1-2,0.7-2.6,2.6-2.6c11.5,0.1,23,0.1,34.5,0
		c10.5,0,18.9-5.8,22.4-15.6c0.9-2.5,1.4-5.2,1.4-7.8c0.1-42.5,0.1-85,0-127.5c0-13.9-11.4-23.4-22.8-23.3
		c-11.7,0.1-23.5-0.1-35.2,0c-2.4,0-3-0.8-2.9-3c0.2-3.2,0.1-6.3,0-9.5c0-1.4,0.3-2.1,1.9-2.1c12.7,0.1,25.5-0.5,38.2,0.2
		c19.7,1.1,35.3,17.3,35.2,38.2C370.4,212.6,370.5,233.7,370.5,254.8C370.5,254.8,370.5,254.8,370.5,254.8z"/>
	<path class="st0" d="M344.4,254.9c0,13.2,0,26.3,0,39.5c-0.1,14.5-11.3,25.7-25.9,25.8c-6.8,0-13.7-0.1-20.5,0.1
		c-2.2,0-2.9-0.7-2.8-2.9c0.2-2.8,0.2-5.7,0-8.5c-0.1-2.2,0.5-3.1,2.9-3c6.3,0.1,12.7,0.1,19,0c8.2,0,13-4.8,13-13.1
		c0-25.4,0-50.8,0-76.2c0-5.5-2.1-9.7-7.4-11.9c-1.3-0.5-2.9-0.7-4.4-0.7c-6.8-0.1-13.7-0.1-20.5,0c-2,0-2.7-0.6-2.6-2.6
		c0.1-3.2,0.1-6.5,0-9.7c0-1.6,0.4-2.4,2.2-2.4c7.3,0.1,14.7-0.2,22,0.1c14.3,0.6,25.1,12.3,25,26.1
		C344.3,228.5,344.4,241.7,344.4,254.9C344.4,254.9,344.4,254.9,344.4,254.9z"/>
	<path class="st0" d="M217.2,256.8c0-28.2,0-56.5,0-84.7c0-3.5,0-3.5,3.6-3.5c2.5,0,5,0,7.5,0c3.3,0,3.4,0.1,3.4,3.3
		c0,12.3,0,24.7,0,37c0,43.9,0,87.8,0,131.7c0,4.1,0,4.1-4.1,4.2c-2.6,0-5.2-0.1-7.7,0c-2.1,0.1-2.7-0.7-2.7-2.7
		c0.1-19.8,0-39.7,0-59.5C217.2,274,217.2,265.4,217.2,256.8C217.2,256.8,217.2,256.8,217.2,256.8z"/>
	<path class="st0" d="M165.2,256.5c0-28.2,0-56.3,0-84.5c0-3.4,0-3.4,3.4-3.5c2.5,0,5,0,7.5,0c3.4,0,3.4,0,3.4,3.6
		c0,9.8,0,19.7,0,29.5c0,46.4,0,92.8,0,139.2c0,4,0,4-4,4c-2.5,0-5-0.1-7.5,0c-2.2,0.1-2.9-0.6-2.9-2.8c0.1-8.1,0-16.2,0-24.2
		C165.1,297.3,165.1,276.9,165.2,256.5C165.2,256.5,165.2,256.5,165.2,256.5z"/>
	<path class="st0" d="M127.3,256.6c0,28.2,0,56.3,0,84.5c0,3.6,0,3.6-3.6,3.6c-2.6,0-5.2-0.1-7.7,0.1c-2.3,0.2-3-0.8-3-3
		c0.1-11.2,0-22.5,0-33.7c0-45.4,0-90.8,0-136.2c0-3.2,0.1-3.2,3.2-3.2c2.7,0,5.5,0.1,8.2,0c2.2-0.1,2.9,0.6,2.9,2.8
		c-0.1,7.1,0,14.2,0,21.2C127.3,213.9,127.3,235.3,127.3,256.6C127.3,256.6,127.3,256.6,127.3,256.6z"/>
</g>
</svg>
