<?xml version="1.0" encoding="utf-8"?>
<!-- Generator: Adobe Illustrator 20.0.0, SVG Export Plug-In . SVG Version: 6.00 Build 0)  -->
<!DOCTYPE svg PUBLIC "-//W3C//DTD SVG 1.1//EN" "http://www.w3.org/Graphics/SVG/1.1/DTD/svg11.dtd">
<svg version="1.1" id="Warstwa_1" xmlns="http://www.w3.org/2000/svg" xmlns:xlink="http://www.w3.org/1999/xlink" x="0px" y="0px"
	 viewBox="0 0 508.6 390.4" style="enable-background:new 0 0 508.6 390.4;" xml:space="preserve">
<style type="text/css">
	.st0{fill:#FFFFFF;}
</style>
<g>
	<path class="st0" d="M314.1,44.5c0.1-1.3,0.3-2.3,0.3-3.2c0.1-5.6-0.2-11.2,0.5-16.7c1.7-12.8,13.5-23.8,26.3-24.5
		C352-0.5,360,4.8,366,13.4c3.4,4.8,5,10.3,4.9,16.2c-0.1,3.9,0,7.8,0,12c1.4-0.4,2.4-0.8,3.4-1.1c7.5-2.4,14.7-1.5,21.3,2.8
		c9.5,6.1,14.7,14.5,14.6,26.2c-0.2,21.6-0.1,43.2-0.1,64.7c0,3.2,0.1,3.3,3.4,3.3c8.9,0,17.8-0.1,26.7,0.1c2.6,0.1,3.8-0.9,4.7-3.2
		c4-9.5,11-16.3,20.7-19.7c12.3-4.3,23-0.8,32.2,7.8c5.4,5,8.9,11.1,10.2,18.4c1.5,8.5-0.6,16.1-5.5,22.9
		c-7.7,10.5-17.9,16.6-31.3,14.6c-11.5-1.6-19.6-8.5-25.2-18.5c-0.1-0.2-0.3-0.4-0.3-0.7c-0.9-4.4-3.8-5.1-7.8-4.9
		c-8.2,0.3-16.3,0.1-24.5,0.1c-3.4,0-3.4,0-3.4,3.3c0,21.8-0.3,43.7,0.1,65.5c0.3,13.1-10.4,26.4-24.2,29.1
		c-4.2,0.8-8.5,0.3-12.5-1.3c-0.5-0.2-0.9-0.4-1.4-0.5c-0.2-0.1-0.5,0-1,0.1c-0.1,1-0.2,2-0.2,3.1c-0.3,5.2,0,10.5-0.9,15.6
		c-2.1,11.6-15.8,25.3-32.2,22c-12-2.4-23.2-14-23.3-28c0-4.3,0-8.7,0-13c0-0.9-0.2-1.7-0.3-2.7c-3.1,1.4-5.8,2.9-8.6,3.8
		c-9.1,2.8-17.3,0.4-24.4-5.5c-7.3-6.1-11.3-13.8-11-23.6c0.1-2-0.1-4,0-6c0.2-2.3-0.5-3-2.9-3c-20.7,0.1-41.5,0.1-62.2,0.1
		c-4.7,0-9.3,0-14,0c-1.7,0-2.4,0.6-2.4,2.3c0.1,2.7,0.1,5.5,0,8.2c-0.1,5.5-3.4,8.9-8.9,9c-7,0.1-14,0.1-21,0c-2.3,0-3.4,0.7-4,3
		c-6.6,22.3-13.3,44.6-19.9,66.9c-3.7,12.3-7.3,24.7-11.2,37c-0.7,2.1-0.2,3.1,1.4,4.3c4.7,3.6,8,8.2,9.8,13.8
		c2.6,8.1,0.4,15.3-4.8,21.7c-5.6,7-12.8,10.6-21.9,10.5c-16-0.1-32-0.1-48,0c-13,0-26,0.1-39,0.2c-14,0-23.9-13-20.7-26.7
		c2.1-8.9,3.7-17.9,5.5-26.9c1.8-8.9,3.7-17.7,5.5-26.6c1.9-9,3.7-18.1,5.5-27.1c1.8-8.7,3.6-17.4,5.4-26.1
		c2.2-10.5,4.3-21,6.5-31.5c1-5.1,2-10.1,3.1-15.2c0.4-2-0.1-3.4-1.5-4.9c-10.7-11.7-18-25.2-21.4-40.6c-5.8-26,0-49.6,15.9-70.7
		c12.1-16,28-26.6,47.2-32.2c7.6-2.2,15.4-3,23.2-3c27.7,0,55.5,0,83.2,0c6.4,0,10.2,4,10,10.5c-0.1,2.1-0.1,4.2-0.3,6.2
		c-0.2,2.4,0.6,3.2,3.1,3.2c21.4-0.1,42.8-0.1,64.2-0.1c3.7,0,7.3-0.2,11,0.1c2.6,0.2,3.2-0.9,3.2-3.3c0.1-4.7,0-9.6,1-14.1
		c2.5-11.6,16-24.7,32.1-21.4c2.9,0.6,5.6,2.1,8.3,3.3C312.4,43.4,313,43.9,314.1,44.5z M129.8,75.6
		C129.8,75.7,129.8,75.7,129.8,75.6c-12.3,0-24.7-0.2-37,0.1c-18.1,0.5-34.3,6.4-47.5,19.1c-12.6,12.1-19.3,27.1-20.9,44.4
		c-1,9.8,0.2,19.4,3.2,28.8c3.7,11.6,10.4,21.3,19.3,29.5c2.8,2.6,4,5.6,3.2,9.4c-1.4,6.4-2.7,12.9-4,19.3
		c-2.1,10.6-4.2,21.2-6.4,31.8c-2.5,12.1-5.1,24.3-7.6,36.4c-2.5,12.1-4.9,24.3-7.4,36.4c-2.7,13-5.4,26.1-8,39.1
		c-0.5,2.6,0.1,3.4,2.7,3.5c0.7,0,1.3,0,2,0c9.1-0.2,18.1-0.6,27.2-0.7c5.9,0,11.8,0.5,17.7,0.5c14.6,0.1,29.2,0.1,43.7,0
		c7.6-0.1,11.3-6.1,8.3-13.1c-1.4-3.4-4.5-3.9-7.5-4.6c-4.8-1.1-7.7-5.8-6.3-10.4c5.2-17.2,10.3-34.4,15.5-51.6
		c7-23.4,14-46.8,21-70.2c1.6-5.3,4.1-7.2,9.6-7.3c5.9,0,11.8,0,17.7,0c3.3,0,3.6-0.2,3.6-3.5c-0.1-10.1-0.4-20.2-0.4-30.2
		c0.1-34.2,0.2-68.5,0.4-102.7c0-3.7-0.2-3.9-4-3.9C155.2,75.6,142.5,75.6,129.8,75.6z M270.2,145.9c0-15.7-0.1-31.5,0.1-47.2
		c0-2.5-0.6-3.3-3.2-3.3c-25,0.1-50,0.1-75,0c-2.6,0-3.2,0.7-3.2,3.2c0.1,31.5,0.1,63,0.1,94.5c0,3.4,0,3.4,3.5,3.4
		c24.7,0,49.5,0,74.2,0c3.5,0,3.5,0,3.5-3.6C270.2,177.2,270.2,161.6,270.2,145.9z M331.4,145.9
		C331.4,145.9,331.4,145.9,331.4,145.9c0,13.9,0,27.8,0,41.7c0,25,0,50,0,75c0,2.2,0.2,4.6,1,6.6c1.5,4.1,5.3,5.9,10.9,5.7
		c6.9-0.3,10.3-3.8,10.6-10.6c0-0.7,0-1.5,0-2.2c-0.1-13.2-0.3-26.3-0.3-39.5c0-39.6,0-79.2,0-118.7c0-12.7,0.1-25.5,0.1-38.2
		c0-12.7,0.2-25.5,0.1-38.2c-0.1-6.3-3.4-9.9-9.5-10.4c-7.5-0.6-12.4,2.2-12.9,10.3c-0.1,1.4-0.1,2.8-0.1,4.2
		C331.4,69.6,331.4,107.7,331.4,145.9z M309.6,146.1C309.6,146.1,309.6,146.1,309.6,146.1c0-25.8,0-51.7-0.1-77.5
		c0-1.7,0.1-3.5-0.5-4.9c-0.9-2.1-2-4.5-3.7-5.6c-4.2-2.7-8.9-2.6-13.4-0.5c-4,2-4.9,5.8-4.9,10c0,9.3,0.1,18.7,0.1,28
		c0,35.3,0,70.7,0,106c0,7.8-0.1,15.7-0.1,23.5c0,5.6,2.7,9.4,7.6,10.3c2.8,0.5,5.8,0.1,8.6-0.5c3.5-0.8,5.4-3.5,5.9-7
		c0.3-2.1,0.4-4.3,0.4-6.5C309.6,196.2,309.6,171.1,309.6,146.1z M370.9,146.1C370.9,146.1,370.9,146.1,370.9,146.1
		c0,26.4,0,52.8,0,79.2c0,5.4,2.4,8.8,7.3,10c1.7,0.4,3.6,0.4,5.5,0.3c4.6-0.1,8-2.7,9.1-7.1c0.4-1.7,0.4-3.5,0.4-5.2
		c0-45.1,0-90.1,0-135.2c0-7.4,0-14.8-0.1-22.2c0-3.4-1.3-6.3-4.3-8c-4.3-2.4-8.9-2.3-13.2-0.2c-3.9,1.9-4.7,5.6-4.7,9.7
		C371,93.6,370.9,119.8,370.9,146.1z M459.7,145.9c-0.8,8.7,5,16.3,16,16.1c10.1-0.1,16-6,16-16c0-10-6.2-16.3-16.2-16.2
		C465.4,129.8,459,136.3,459.7,145.9z"/>
	<path class="st0" d="M85.1,145.9c0,6.4-0.1,12.8,0,19.2c0.1,5.1-3.6,8.8-8.5,8.8c-4.8,0-8.4-3.8-8.5-8.9c0-12.7-0.1-25.5,0-38.2
		c0-4.7,2.8-8,7.2-8.9c3.4-0.7,7.4,1.3,8.9,4.9c0.5,1.2,0.7,2.7,0.7,4.1C85.2,133.2,85.1,139.6,85.1,145.9z"/>
	<path class="st0" d="M102.9,145.8c0-6.3,0.1-12.6,0-19c-0.2-6,4.6-8.9,8.3-9c4.7-0.1,8.5,3.8,8.6,8.9c0.1,12.8,0.1,25.6,0,38.4
		c0,4.4-2.7,7.7-6.6,8.5c-4.1,0.9-7.9-0.8-9.5-4.6c-0.6-1.3-0.7-2.9-0.7-4.4C102.9,158.4,102.9,152.1,102.9,145.8z"/>
</g>
</svg>
