<?xml version="1.0" encoding="utf-8"?>
<!-- Generator: Adobe Illustrator 20.0.0, SVG Export Plug-In . SVG Version: 6.00 Build 0)  -->
<!DOCTYPE svg PUBLIC "-//W3C//DTD SVG 1.1//EN" "http://www.w3.org/Graphics/SVG/1.1/DTD/svg11.dtd">
<svg version="1.1" id="Warstwa_1" xmlns="http://www.w3.org/2000/svg" xmlns:xlink="http://www.w3.org/1999/xlink" x="0px" y="0px"
	 viewBox="0 0 494 502.8" style="enable-background:new 0 0 494 502.8;" xml:space="preserve">
<style type="text/css">
	.st0{fill:#FFFFFF;}
</style>
<g>
	<path class="st0" d="M152.7,119.9c1.3,0.1,2.2,0.2,3.1,0.3c20.1,1,40.3,1.7,60.4,3.3c13.4,1,26.8,2.8,40.1,4.9
		c10.2,1.6,20.1,4.4,30.2,6.5c4.7,1,9.6,1.2,14.2,2.4c10.2,2.7,19.3,7.1,24.3,17.1c1.2,2.4,1.9,5.2,2,7.9c0.4,7.8-0.3,15.3-6.3,21.3
		c-3.8,3.8-8.5,5.8-13.8,6.2c-7.7,0.6-15.2-1-22.8-1.7c-10.2-0.9-20.5-0.4-30.7,0.1c-11.5,0.5-22.9,1.5-34.4,2.6
		c-10.2,1-20.3,2.4-30.5,3.6c-0.2,0-0.3,0.1-0.5,0.1c-6.3,1.1-6.4,1.1-6.1,7.7c2.4,41.1,2.3,82.3,1.6,123.4
		c-0.4,20.9-1.6,41.8-2.7,62.7c-0.7,13-1.6,25.9-2.6,38.9c-0.7,9.1-1.6,18.2-2.6,27.3c-0.9,7.9-1.3,15.8-3.2,23.5
		c-2.7,11.3-10.1,18.9-21.2,22.7c-4.6,1.6-9.3,2.2-14.2,2.1c-15.6-0.1-31.2,0.2-46.7-0.1c-9.7-0.2-18.2-3.7-24.8-11
		c-5.2-5.7-7.9-12.6-8.5-20.3c-0.5-6.4-1.6-12.7-2.3-19.1c-0.9-8.4-1.9-16.9-2.6-25.3c-0.9-11-1.7-21.9-2.5-32.9
		c-0.6-8.4-1.2-16.8-1.4-25.2c-0.6-18.6-1-37.1-1.3-55.7c0-2.5-0.6-3.8-3.4-4.1c-16.4-1.6-26-11.8-32.3-25.9
		c-4.3-9.5-6.7-19.5-8.3-29.7c-3.3-20.8-3.4-41.6-2.1-62.5c0.5-8.6,1.5-17.1,4.9-25.1c6.3-15.3,17.5-25.9,31.9-33.4
		c11-5.8,22.7-9.4,34.9-11.4c5.6-0.9,5.4-0.8,3.7-6.1c-2.2-6.9-4.2-14-6.3-21c-0.2-0.8-0.6-1.6-1.1-2.2c-6.2-7.7-7.5-16.7-6.8-26.1
		c0-0.4,0-0.9,0.2-1.2c2.1-3,1-5.7-0.1-9c-4.7-15-1.3-28.3,10.3-39.1c5.5-5.2,12-9,19.2-11.5c2-0.7,4.3-0.9,6.4-0.7
		c2.1,0.2,3.8-0.5,5.6-1.3c3.3-1.3,6.8-2.6,10.2-2.8c15.5-0.7,29.8,3.1,41.9,13.2c11.9,9.9,16.4,23.1,14.3,38.4
		c-0.4,2.8-1.5,5.6-2.2,8.4c-0.2,0.8-0.2,1.8,0,2.7c2.6,9.6,0.7,18.5-4.4,26.7c-1.4,2.2-2.5,4.3-3.2,6.9c-2,7-4.4,13.9-6.6,20.9
		C153.3,117.9,153.1,118.6,152.7,119.9z M115.2,276.8C115.2,276.8,115.2,276.8,115.2,276.8c4.3,0,8.7,0,13,0c12,0,24,0,36-0.1
		c3.7,0,3.8-0.2,3.8-3.8c-0.2-10.8-0.3-21.7-0.6-32.5c-0.3-12.2-0.9-24.3-1.3-36.5c-0.1-2-0.6-2.6-2.7-2.4c-1.3,0.2-2.9,0-4.1-0.6
		c-3.1-1.4-4.8-3.9-4.8-7.3c0-3.9,1.9-7.2,5.5-8.5c5.9-2.1,12-3.8,18.2-5c7.5-1.5,15.1-2.5,22.7-3.3c12.6-1.4,25.2-2.7,37.8-3.7
		c10.2-0.8,20.5-1.1,30.7-1.6c2-0.1,2.7-0.8,2.3-2.8c-1.1-6.1-0.1-12.1,1.6-18c0.6-2,0.4-3-1.8-3.3c-13.5-2.2-27-4.8-40.6-6.5
		c-13.1-1.6-26.3-2.7-39.6-3.4c-16-0.8-32.1-1-48.2-1.5c-2.2-0.1-3.6,0.6-4.4,2.8c-2.5,6.4-5.1,12.8-7.6,19.3
		c-0.3,0.9-0.6,2-0.4,2.9c0.7,3.9,1.6,7.8,2.3,11.7c1.8,9.2,3.6,18.4,5.5,27.6c1.6,7.9,3.1,15.8,4.7,23.7c0.8,4.1,1.7,8-1.3,11.9
		c-6.8,8.7-13.2,17.6-19.8,26.3c-3.9,5.2-10,5.1-13.9-0.1c-6.6-8.9-13.4-17.6-19.9-26.6c-1.2-1.7-1.8-4.1-2-6.2
		c-0.2-1.9,0.6-3.9,1-5.9c1.9-9.4,3.7-18.8,5.6-28.1c1.9-9.5,3.9-19.1,5.6-28.6c0.6-3.2,2-6.4,0.4-10c-2.8-6.2-5.3-12.6-7.7-19
		c-1-2.8-2.5-3.3-5.1-2.9c-13,1.7-25.7,4.4-37.7,9.9c-18.7,8.6-30.5,22.4-31.6,43.6c-0.7,13.2-0.8,26.5-0.4,39.7
		c0.3,9.3,1.9,18.5,2.9,27.8c0.2,2.1,1.2,2.6,3.1,2.3c7.3-0.9,14.6-1.4,21.9-0.2c2.4,0.4,2.5-1.1,2.6-2.8c0.4-13,0.7-26,1.2-39
		c0.2-5.9,0.6-11.8,0.9-17.7c0.3-5,3.9-8.6,8.5-8.3c4.7,0.3,8,4.4,7.6,9.3c-0.1,1.1-0.3,2.2-0.3,3.2c-0.7,23.4-1.5,46.8-2.2,70.2
		c-0.1,3.7,0.1,3.8,3.7,3.8C82.7,276.8,99,276.8,115.2,276.8z M123.4,393.7C123.4,393.7,123.4,393.7,123.4,393.7c0,18.7,0,37.3,0,56
		c0,5.1,0,4.9,5,4.2c9.5-1.4,19.1-1.3,28.5,0.9c1.9,0.4,2.7-0.2,2.9-1.9c0.2-2.1,0.3-4.2,0.5-6.2c1.2-13.5,2.6-27,3.6-40.6
		c1-14.9,1.9-29.8,2.4-44.7c0.8-21.6,1.2-43.1,1.7-64.7c0.1-3.9,0-3.9-3.9-3.9c-32.8,0-65.7,0-98.5,0c-2.3,0-3.1,0.7-3,3
		c0.3,14.2,0.1,28.5,0.7,42.7c0.9,22.7,1.9,45.4,3.4,68.1c1,15.4,2.7,30.8,4.1,46.3c0.2,1.7,0.9,2.3,2.6,1.9
		c9.7-2.2,19.5-2.4,29.3-0.8c4.6,0.7,4.6,0.7,4.6-3.9c0-31.5,0-63,0-94.5c0-6.7,0-13.3,0-20c0.1-4.7,3.3-8.3,7.5-8.4
		c4.7-0.2,8.1,3,8.6,7.9c0.1,1.2,0.1,2.5,0.1,3.7C123.4,357,123.4,375.3,123.4,393.7z M115.3,125.2c2.6-0.4,5.4-0.2,7.7-1.3
		c4-1.9,7.6-4.4,11.3-6.9c1.4-0.9,2.9-2.3,3.5-3.8c3.4-8.1,6.6-16.3,7.6-25.2c0.2-1.8,1.1-4.1,2.4-5.2c3.7-2.9,4.4-6.9,5.1-11
		c0.3-1.8-0.1-3.3-1.6-4.7c-2.2-2-3.5-4.5-2.7-7.6c0.5-2.1-0.3-2.4-2-2.2c-4.6,0.5-9.3,0.8-13.9,1.6c-8.4,1.5-16.8,2.4-25.3,1.6
		c-7.2-0.6-13.9-2.7-19.2-7.9c-2.1-2.1-3.6-0.4-5.3,0.5c-1.5,0.8-2.4,1.8-1.4,3.8c1.8,3.7,1,7.1-2,10c-0.6,0.6-1.5,1.4-1.6,2.2
		c-0.1,4.4,0.1,8.8,3.6,12c2.2,1.9,3.4,4.2,3.9,7c1,4.9,2.1,9.7,3.4,14.5c2.1,7.9,5.9,14.4,13.5,18.5
		C106.4,123.5,110.2,126.3,115.3,125.2z M77.5,37.7c1.4-0.4,2.2-0.7,3-1c4-1.6,7.9-3,12.3-2.6c3.1,0.2,6.2,2.2,6.8,5.3
		c0.7,3.2,2.8,4.1,5.5,4.8c7.6,1.9,15.1,0.3,22.6-0.5c6.9-0.8,13.9-1.9,20.8-2.4c6-0.4,6.4,0.8,3.8-6.1c-2.1-5.6-6-9.8-11.2-12.7
		c-7.9-4.4-16.4-6.8-25.5-6.7c-3.1,0-5.6,1.1-7,4.2c-2.5,5.9-8.7,7-13.5,2.6c-0.6-0.6-2-1.1-2.6-0.8c-6.1,3-11.5,6.8-14.6,13.1
		C77.7,35.6,77.7,36.4,77.5,37.7z M115.2,244.2c0.6-0.5,1-0.7,1.2-1c3.5-4.6,7.1-9.2,10.5-13.9c0.5-0.6,0.6-1.7,0.5-2.6
		c-0.8-4.7-1.7-9.3-2.6-14c-2.6-13.5-5.3-27.1-8-40.6c-0.3-1.5-0.8-2.9-1.2-4.3c-0.7,0.6-1,1.1-1.1,1.6c-1.2,5.9-2.5,11.9-3.7,17.8
		c-2.5,12.9-5,25.8-7.4,38.7c-0.2,1.3,0.1,3,0.9,4.1c2.8,4,5.8,7.9,8.8,11.8C113.7,242.6,114.4,243.2,115.2,244.2z M96.8,487
		c0-0.2,0.1-0.4,0.1-0.5c2.7,0,5.3,0,8,0c1.5,0,2.3-0.6,2.3-2.2c0-3.7,0.1-7.5-0.1-11.2c0-0.9-1-2.1-1.8-2.4
		c-2.2-0.7-4.5-1.2-6.8-1.5c-7.7-0.8-15.4-0.7-23,1.2c-1.8,0.5-2.3,1.5-1.8,3.1c1.4,5.5,4.6,9.7,9.8,11.4
		C87.7,486.4,92.4,486.4,96.8,487z M133.7,486.5c0,0,0,0.1,0,0.1c3.4-0.2,6.8-0.1,10.2-0.5c5.8-0.7,12-6.6,13.1-12.2
		c0.4-1.8,0.1-3.1-2.1-3.4c-2.1-0.3-4.2-0.9-6.3-1.2c-7.7-0.9-15.4-0.7-23,1.2c-1.6,0.4-2.2,1.3-2.2,2.8c0,3.6,0,7.1,0,10.7
		c0,1.8,0.8,2.5,2.6,2.5C128.5,486.4,131.1,486.5,133.7,486.5z M287,162.8c0.1,0,0.2,0.1,0.3,0.1c0.1,1.7,0,3.5,0.4,5.2
		c0.5,1.9,0.7,4.5,3.3,4.8c4.3,0.5,8.6,1,12.9,1c1.9,0,4.3-0.9,5.5-2.3c2.6-2.8,2-10-0.8-12.7c-4.6-4.5-10.5-6.3-16.7-7.1
		c-0.8-0.1-2.3,0.9-2.5,1.6C288.5,156.5,287.8,159.7,287,162.8z M25.1,274.1c0.1,0.8,0.1,1.4,0.4,1.8c2.1,3.6,3.9,7.4,6.4,10.6
		c3,3.8,7.2,6.1,12.1,6.7c1.7,0.2,2.7-0.4,2.7-2.3c0-4.7,0-9.3,0.1-14c0-1.8-0.9-2.7-2.5-2.9C38,273.3,31.8,272.9,25.1,274.1z
		 M114.8,153.3c0.3,0,0.7,0,1-0.1c1.3-3.4,2.7-6.7,3.9-10.1c0.1-0.4-0.5-1.4-1-1.7c-2.6-1.6-5.1-0.4-7.6,0.4
		c-0.3,0.1-0.6,0.9-0.5,1.2C112.1,146.5,113.5,149.9,114.8,153.3z"/>
	<path class="st0" d="M343.5,302c40.9,0,81.8,0,122.7,0c3.3,0,3.6-0.2,3.6-3.6c0-48.1,0-96.2,0-144.2c0-28,0-56,0-84
		c0-4.1-0.1-4.2-4.2-4.2c-76.6,0-153.2,0-229.7,0c-5.2,0-10.3,0-15.5,0c-3.1,0-3.5,0.4-3.5,3.5c0,9.2,0,18.3,0,27.5
		c0,3.4-1.5,5.8-4.4,7.2c-2.6,1.3-5.4,1.2-7.9-0.5c-2.6-1.7-3.6-4.2-3.6-7.3c0-20.1,0-40.2,0.1-60.2c0-2.2-0.5-3.4-2.8-4.1
		c-4.3-1.3-5.9-4.3-5.4-8.9c0.4-3.6,3.2-6.2,7.3-6.6c1.9-0.2,3.8-0.1,5.7-0.1c41.7,0,83.5,0,125.2,0.1c2.6,0,4.1-0.4,4.8-3.3
		c0.8-3.2,4.1-5.1,7.5-5.1c3.3,0,6.4,2.2,7.3,5.4c0.6,2.3,1.7,3,4,3c43.2-0.1,86.3-0.1,129.5-0.1c6.4,0,9.9,3.2,9.6,8.8
		c-0.2,3.7-2.3,6-5.8,7c-2,0.5-2.5,1.6-2.5,3.6c0,52.7,0,105.5,0,158.2c0,38.3,0,76.7,0,115c0,5.7-3.1,8.8-8.8,8.8
		c-22.9,0-45.8,0-68.7,0c-4,0-4.2,0.3-2.8,4.1c8.1,22.3,16.2,44.5,24.3,66.8c7.6,20.8,15.2,41.6,22.7,62.3
		c4.9,13.4,9.7,26.9,14.6,40.4c1.8,4.9-0.2,8.9-5.6,11c-3.2,1.3-7.8-1.3-9.3-5.3c-3-8.1-6-16.2-8.9-24.4
		c-6.9-18.9-13.8-37.8-20.6-56.7c-8.2-22.6-16.4-45.2-24.6-67.8c-3.4-9.3-6.8-18.6-10.1-27.9c-0.7-1.9-1.8-2.7-3.9-2.6
		c-9.7,0.1-19.3,0-29,0c-3.4,0-3.5,0.1-3.5,3.5c0,28.9,0,57.8,0,86.7c0,22.9,0,45.8,0,68.7c0,7-6.4,11.1-12.1,7.8
		c-3-1.7-4-4.6-4-7.8c0-17.2,0-34.3,0-51.5c0-34.7,0-69.3,0-104c0-3.4-0.1-3.5-3.6-3.5c-10.5,0-21,0-31.5,0c-2,0-3.1,0.5-3.9,2.6
		c-8.5,23.7-17.1,47.4-25.8,71.1c-6.8,18.6-13.6,37.2-20.4,55.8c-5.9,16.2-11.8,32.4-17.6,48.5c-0.9,2.6-2.3,4.7-4.8,6.1
		c-3.2,1.8-5.8,0.8-8.3-1.1c-2.5-1.9-3.7-4.7-2.7-7.8c2-6.4,4.4-12.7,6.7-19.1c6.5-17.8,13-35.6,19.5-53.5
		c6.5-18,13.1-35.9,19.6-53.9c5.5-15.1,11-30.2,16.4-45.3c1.2-3.3,1-3.4-2.6-3.4c-21.9,0-43.8-0.2-65.7,0.1
		c-6.8,0.1-9.7-4.2-9.7-9.8c0.2-29,0.1-58,0.1-87c0-1.2,0-2.5,0-3.7c0.2-4.5,3.7-7.8,8.1-7.8c4.2,0,7.6,3.2,7.7,7.6
		c0.1,9.8,0.1,19.7,0.1,29.5c0,17.2,0,34.5,0,51.7c0,3.2,0.3,3.5,3.6,3.5C261.5,301.9,302.5,301.9,343.5,302
		C343.5,301.9,343.5,302,343.5,302z M343.2,50.1c24.3,0,48.7,0,73,0c16.7,0,33.5,0,50.2,0c3.2,0,3.4-0.2,3.4-3.4c0-3.2,0-6.5,0-9.7
		c0-4.3,0-4.3-4.3-4.3c-31.4,0-62.8,0-94.2,0c-35.2,0-70.3,0-105.5,0c-15.2,0-30.5,0-45.7,0c-3.1,0-3.2,0.2-3.2,3.3
		c0,3.2,0,6.3,0,9.5c0,4.7,0,4.7,4.8,4.7C262.2,50.1,302.7,50.1,343.2,50.1z"/>
	<path class="st0" d="M342,83.6c31.7,0,63.3,0,95,0c2.4,0,4.8,0,7.2,0.3c3.9,0.6,6.5,3.6,6.5,7.6c0,19.6,0,39.2,0,58.7
		c0,5-3.5,8.2-9,8.2c-12.2,0-24.3,0-36.5,0c-17.8,0-35.7,0-53.5,0c-4.5,0-7.5-1.7-8.7-5c-2.1-5.7,1.6-11,8-11.1
		c10.1-0.1,20.2-0.1,30.2-0.1c16.7,0,33.3,0,50,0c3.5,0,3.6-0.1,3.6-3.7c0-11.8,0-23.7,0-35.5c0-3.3-0.1-3.4-3.3-3.4
		c-55.7,0-111.5,0-167.2,0c-4.1,0-8.2,0.1-12.2,0c-1.8,0-2.7,0.6-3.2,2.3c-1.3,4.5-4.5,6.4-9.1,5.8c-3.7-0.5-6.4-3.7-6.6-8
		c-0.1-2.5,0-5,0-7.5c0.1-5.3,3.1-8.6,8.5-8.7c5.1-0.1,10.2-0.1,15.2-0.1C285.3,83.6,313.7,83.6,342,83.6z"/>
	<path class="st0" d="M419.1,192.9c8.1,0,16.2,0,24.2,0c5.7,0,8.7,2.8,8.8,8.5c0.1,16.3,0.1,32.6,0.1,49c0,5.6-3.2,8.6-8.8,8.6
		c-16.4,0-32.8,0-49.2,0c-5.4,0-8.3-2.9-8.3-8.4c0-16.4,0-32.8,0-49.2c0-5.6,2.8-8.4,8.5-8.4C402.6,192.8,410.9,192.9,419.1,192.9z
		 M436.1,225.9c0-4.7-0.1-9.5,0-14.2c0-2.1-0.6-3-2.8-2.9c-9.5,0.1-19,0.1-28.5,0c-2.5,0-3.1,0.9-3.1,3.2c0.1,9.4,0.1,18.8,0,28.2
		c0,2.1,0.6,3,2.8,3c9.6-0.1,19.2-0.1,28.7,0c2.3,0,2.8-0.9,2.8-3C436,235.4,436.1,230.7,436.1,225.9z"/>
	<path class="st0" d="M343.2,259c-8.2,0-16.3,0.1-24.5,0c-5.6-0.1-8.7-3.3-8.7-9c0-12.2,0-24.3,0-36.5c0-4,2.7-7.1,6.6-8.1
		c3.1-0.7,7,0.9,8.4,4c0.8,1.7,1.1,3.7,1.1,5.5c0.1,8.2,0,16.5,0,24.7c0,3.2,0.2,3.4,3.4,3.4c9.2,0,18.5-0.1,27.7,0
		c2.4,0,3.2-0.8,3.2-3.2c-0.1-9.4-0.1-18.8,0-28.2c0-2.3-0.9-3.1-3.1-3c-4.6,0.1-9.2,0.1-13.7,0c-4.8,0-8.3-3.3-8.4-7.8
		c-0.1-4.5,3.2-8,8.1-8c8.4-0.1,16.8-0.1,25.2,0c4.7,0,8,3.4,8,8.1c0.1,16.7,0,33.3,0,50c0,4.7-3.3,7.9-8.1,7.9
		C360.1,259,351.6,259,343.2,259C343.2,259,343.2,259,343.2,259z"/>
	<path class="st0" d="M267.7,259c-7.9,0-15.8,0-23.7,0c-6,0-8.9-2.6-9.3-8.6c-0.2-3.1,0-6.2,0-9.2c0-10.3,0-20.6,0-31
		c0-3.6,1.1-6.5,4.5-8.2c5.3-2.7,11.4,1.5,11.4,7.9c0.1,9.6,0,19.2,0,28.7c0,3.6,0,3.6,3.6,3.6c9.2,0,18.5-0.1,27.7,0
		c2.4,0,3.1-0.8,3.1-3.2c-0.1-9.8-0.1-19.7,0-29.5c0-4.5,3.3-8.2,7.3-8.5c4.4-0.3,8.2,2.9,8.4,7.4c0.2,3.8,0.1,7.7,0.2,11.5
		c0,9.7-0.2,19.3,0,29c0.2,6.1-3.1,10.4-10,10.1C283.2,258.7,275.5,259,267.7,259C267.7,259,267.7,259,267.7,259z"/>
	<path class="st0" d="M266.7,268.2c8.2,0,16.5,0,24.7,0c3.6,0,6.5,2.2,7.8,5.6c1.1,2.8,0.3,6.5-2.3,8.3c-1.7,1.2-3.9,2.1-5.9,2.1
		c-16.5,0.2-33,0.1-49.4,0.1c-4.9,0-8.4-3.6-8.4-8.1c0-4.4,3.7-8,8.5-8C250.1,268.1,258.4,268.2,266.7,268.2
		C266.7,268.2,266.7,268.2,266.7,268.2z"/>
	<path class="st0" d="M341.8,268.2c8.2,0,16.5,0,24.7,0c4,0,7,2,8.1,5.1c2,5.6-1.4,10.6-7.6,11c-3.1,0.2-6.2,0.1-9.2,0.1
		c-13.2,0-26.5,0-39.7,0c-5.2,0-8.8-2.8-9.1-7c-0.5-5.4,2.9-9.2,8.4-9.2C325.5,268.1,333.7,268.2,341.8,268.2
		C341.8,268.2,341.8,268.2,341.8,268.2z"/>
	<path class="st0" d="M417.5,284.3c-8.1,0-16.2,0-24.2,0c-3.6,0-6.6-1.3-8.1-4.8c-2.4-5.4,1.5-11.3,7.6-11.3c8.9-0.1,17.8,0,26.7,0
		c7.7,0,15.3-0.1,23,0.1c5.3,0.1,8.5,3.8,8.2,8.9c-0.3,4.2-3.7,7.1-8.7,7.2C433.8,284.4,425.6,284.3,417.5,284.3z"/>
	<path class="st0" d="M349.9,175.6c0,4.7-3.5,8.1-8.1,8c-4.3-0.1-7.8-3.8-7.7-8.2c0-4.2,3.7-7.8,7.8-7.8
		C346.5,167.5,349.9,170.9,349.9,175.6z"/>
	<path class="st0" d="M367.4,183.6c-4.4,0-8.2-3.7-8.2-8c0-4.5,3.4-7.7,8-7.7c4.8,0,7.9,3,8,7.7
		C375.3,179.8,371.6,183.5,367.4,183.6z"/>
	<path class="st0" d="M129.4,69.8c4.7,0,8.2,3.2,8.3,7.7c0,4.4-3.4,8-7.8,8.1c-4.5,0.1-8.6-3.7-8.6-8
		C121.2,73.1,124.5,69.9,129.4,69.8z"/>
	<path class="st0" d="M102,69.9c4.8,0.1,8.2,3.3,8.1,7.9c-0.1,4.5-3.7,8-8.2,7.9c-4.7-0.1-8.1-3.7-8-8.4C94,72.6,97.1,69.8,102,69.9
		z"/>
</g>
</svg>
