<?xml version="1.0" encoding="utf-8"?>
<!-- Generator: Adobe Illustrator 20.0.0, SVG Export Plug-In . SVG Version: 6.00 Build 0)  -->
<!DOCTYPE svg PUBLIC "-//W3C//DTD SVG 1.1//EN" "http://www.w3.org/Graphics/SVG/1.1/DTD/svg11.dtd">
<svg version="1.1" id="Warstwa_1" xmlns="http://www.w3.org/2000/svg" xmlns:xlink="http://www.w3.org/1999/xlink" x="0px" y="0px"
	 viewBox="0 0 508.1 508.1" style="enable-background:new 0 0 508.1 508.1;" xml:space="preserve">
<style type="text/css">
	.st0{fill:#FFFFFF;}
</style>
<g>
	<path class="st0" d="M253.7,508.1c-83.4,0-166.8,0-250.2,0c-3.5,0-3.5,0-3.5-3.5c0-3.2,0-6.3,0-9.5c0-3.4,0-3.4,3.5-3.4
		c8.7,0,17.3,0,26,0c3.3,0,3.4-0.1,3.4-3.3c0-54.5,0.1-109-0.1-163.5c-0.1-14.4,2-28.2,9.2-40.9c10.7-18.8,26.6-30.9,47.7-36.2
		c7.1-1.8,14.3-1.9,21.6-1.9c35.4,0,70.8,0,106.2,0c3.7,0,3.7,0,3.7-3.6c0-38.6,0-77.2,0-115.7c0-3.5,0-3.5,3.6-3.5
		c19.5,0,39,0,58.5,0c3.6,0,3.6,0,3.6,3.5c0,38.5,0,77,0,115.5c0,3.9,0,3.9,3.9,3.9c36.7,0,73.3,0,110,0c24,0,43.6,9.5,58.6,28.2
		c10.9,13.6,15.8,29.4,15.8,46.8c-0.1,44.5,0,89,0,133.5c0,11.3,0,22.7,0,34c0,3.2,0.1,3.3,3.2,3.3c8.9,0,17.8,0.1,26.7-0.1
		c2.2,0,3.1,0.6,3,2.9c-0.2,3.6-0.2,7.2,0,10.7c0.1,2.3-0.7,2.8-2.8,2.8c-19-0.1-38,0-57,0C383.4,508.1,318.6,508.1,253.7,508.1z
		 M253.8,491.7C253.8,491.7,253.8,491.7,253.8,491.7c4.3,0,8.7,0,13,0c62.9,0,125.8,0,188.7,0c3.1,0,3.3-0.2,3.3-3.2
		c0-30.7,0-61.5-0.1-92.2c0-1.3-0.8-3-1.8-3.7c-5.8-4.6-12.6-7.1-20-7.3c-10.1-0.3-18.6,3.4-25.9,10.4
		c-12.7,12.1-27.9,16.7-45.2,13.7c-10.5-1.8-19.4-6.8-26.9-14.2c-7-6.8-15.3-10.2-25-9.9c-9.2,0.2-17.1,3.7-23.7,10.2
		c-9.7,9.4-21.2,14.5-34.7,14.8c-14.8,0.4-27.3-4.9-37.8-15.2c-10.1-9.9-24.8-12.8-37.6-7c-4.1,1.9-8.1,4.7-11.4,7.8
		c-11.8,10.8-25.6,15.7-41.4,14.1c-12-1.2-22.2-6.5-30.8-15c-12.3-12.1-31.3-13.2-44.8-2.9c-1.6,1.2-2.3,2.5-2.3,4.6
		c0.1,18.7,0,37.3,0,56c0,12.1,0,24.2,0,36.2c0,2,0.6,3,2.7,2.8c0.8-0.1,1.7,0,2.5,0C120.8,491.7,187.3,491.7,253.8,491.7z
		 M49.4,316.5c1.5-0.6,2.2-0.8,2.9-1c13.7-5.5,27.4-5.5,41,0.4c5.9,2.6,10.9,6.3,15.5,10.8c5.2,5.1,11.4,8.4,18.6,9.4
		c12.1,1.8,22.2-2.1,31.1-10.6c12.7-12.1,28-16.3,45.2-13.1c10.2,1.9,18.9,7,26.4,14.3c11.1,10.8,27.9,13.1,41.3,5.3
		c4.3-2.5,7.8-6.2,11.7-9.3c12.4-9.8,26.5-13.2,42-10.2c10.1,1.9,18.9,6.8,26.2,14.2c5,5,10.9,8.2,17.8,9.4c12.1,2,22.5-1.5,31.6-10
		c16.2-15.1,34.9-18.2,55.5-10.4c2.3,0.9,2.7,0.7,2.5-1.7c-2.2-18.6-11.2-33-27-43c-10.5-6.7-22.1-8.7-34.3-8.6
		c-55.8,0.1-111.7,0.1-167.5,0.1c-40.8,0-81.7,0-122.5,0c-7.7,0-15.3,1.4-22.4,4.4c-17.2,7.4-28.4,20.2-33.4,38.3
		C50.4,308.4,50.1,312.1,49.4,316.5z M49.6,373.7c1.3-0.5,2.2-0.7,3-1.1c11.2-4.6,22.6-5.2,34.2-1.8c8.2,2.4,15.3,6.7,21.4,12.8
		c7.1,7.1,15.7,10.6,25.7,10.3c9.3-0.3,17.1-4.1,23.9-10.5c15.5-14.6,33.5-18.2,53.6-11.4c7,2.4,12.8,6.5,18.1,11.6
		c8.5,8.1,18.5,11.5,30.2,9.7c7.7-1.2,14-4.8,19.6-10.1c14.4-13.6,31.3-17.5,50.3-12.2c8.5,2.3,15.5,7,21.8,13.1
		c7,6.8,15.4,10.1,25.1,9.8c9.2-0.3,17-4,23.7-10.3c13-12.5,28.5-16.9,46.2-13.6c4.2,0.8,8.2,2.4,12.5,3.6c0.1-0.4,0.3-0.8,0.3-1.3
		c0-11.4,0-22.8-0.1-34.2c0-0.9-0.5-2-1.2-2.5c-8.5-6.8-18.2-9-28.9-7c-7.1,1.3-12.8,5.1-18.1,10c-13.6,12.5-29.5,16.9-47.6,12.8
		c-9.5-2.2-17.5-7-24.4-13.8c-10.4-10.1-25.5-12.6-38.6-6.6c-5,2.3-8.7,6.1-12.8,9.5c-13.3,11.1-28.4,14.7-45.3,10.9
		c-9.5-2.1-17.5-7-24.5-13.7c-9.2-8.9-20.3-11.6-32.7-8.7c-6.6,1.5-11.9,5.2-16.8,9.8c-10.9,10.2-23.9,15-38.7,14
		c-13.1-0.8-24.1-6.3-33.5-15.4c-12-11.7-31-12.7-44.4-2.5c-1.5,1.2-2.3,2.4-2.2,4.4c0.1,10.6,0,21.2,0,31.7
		C49.4,371.6,49.5,372.4,49.6,373.7z M237.6,192.8c0,16.7,0,33.3,0,50c0,2.3,0.6,3.2,3.1,3.2c8.7-0.1,17.5,0,26.2-0.1
		c3.4,0,3.4,0,3.4-3.3c0-33.5,0-67,0-100.5c0-2.3-0.8-3-3.1-3c-8.7,0.1-17.3,0-26,0c-3.7,0-3.7,0-3.7,3.8
		C237.6,159.6,237.6,176.2,237.6,192.8z"/>
	<path class="st0" d="M295,63.1c0,22-14,39-33.3,42.8c-21.2,4.1-42.6-9.7-47.5-30.4c-1.7-7.1-1.4-14.2,0-21.3
		c2.5-12.8,6.8-25,13.9-36.1c4.2-6.6,9.2-12.5,16.5-15.9c9.4-4.3,17.9-2,25.5,4.4c6.9,5.9,11.6,13.5,15.3,21.6
		C290.9,40,294.4,52.3,295,63.1z M254.1,90.2c14.4,0,25.7-12.2,24.5-26.6c-1.2-13.5-5.7-25.9-13-37.3c-2-3.2-4.9-5.8-7.7-8.3
		c-2.4-2.1-5.4-2-7.8,0c-2.5,2.1-5,4.5-6.8,7.2c-7.6,11.5-12.3,24.1-13.7,37.8C228.1,77.8,239.3,90.2,254.1,90.2z"/>
</g>
</svg>
