<?xml version="1.0" encoding="utf-8"?>
<!-- Generator: Adobe Illustrator 20.0.0, SVG Export Plug-In . SVG Version: 6.00 Build 0)  -->
<!DOCTYPE svg PUBLIC "-//W3C//DTD SVG 1.1//EN" "http://www.w3.org/Graphics/SVG/1.1/DTD/svg11.dtd">
<svg version="1.1" id="Warstwa_1" xmlns="http://www.w3.org/2000/svg" xmlns:xlink="http://www.w3.org/1999/xlink" x="0px" y="0px"
	 viewBox="0 0 468.3 368.6" style="enable-background:new 0 0 468.3 368.6;" xml:space="preserve">
<style type="text/css">
	.st0{fill:#FFFFFF;}
</style>
<g>
	<path class="st0" d="M164.1,158.3c0-29.9-0.1-59.8,0.1-89.7c0.1-21.9,9.4-39.5,26.1-53.3c14.6-12,31.6-16.9,50.3-14.8
		c5.7,0.6,11.4,2.5,16.9,4.2c3.8,1.2,5.2,4.6,3.8,7.9c-1.4,3.4-4.5,4.6-8.3,3.2c-22.7-8.6-47.9-2.4-63.8,16
		c-6.7,7.7-11.3,16.7-12.1,26.9c-0.9,11.8-0.7,23.6-1.1,35.4c-0.1,2.2,1.4,2,2.8,2c15.4,0,30.8,0,46.2,0c20.9,0,41.8,0,62.7,0
		c3.3,0,3.4,0,3.4-3.3c0-7.4,0.1-14.8,0-22.2c-0.4-31.2,19.9-57.4,47.4-67c15.4-5.3,30.8-4.6,46,0.9c3.7,1.3,5.4,4.8,4.2,7.9
		c-1.3,3.5-4.7,4.7-8.7,3.2c-27.1-9.9-58.6,0.8-71.5,28.5c-3.6,7.8-5.3,16.1-5.3,24.7c-0.1,50.4,0,100.8,0,151.2c0,11.3,0,22.7,0,34
		c0,2.4-1,4.1-3,5.3c-2.1,1.2-4.2,1.1-6.1-0.2c-2-1.3-2.8-3.4-2.8-5.8c0-8.2-0.1-16.5,0.1-24.7c0-2.5-0.6-3.3-3.2-3.3
		c-36.4,0.1-72.8,0.1-109.2,0c-2.2,0-2.9,0.5-2.9,2.8c0.1,8.6,0.1,17.2,0,25.7c0,3.2-2.1,5.7-5.1,6.2c-2.5,0.5-5.4-1.1-6.4-3.7
		c-0.4-1.2-0.5-2.6-0.5-3.9C164.1,221.2,164.1,189.7,164.1,158.3z M233.7,213.4c18.2,0,36.5,0,54.7,0c2.3,0,3-0.7,2.9-3
		c-0.1-13.6-0.1-27.1,0-40.7c0-2.5-0.8-3.1-3.2-3.1c-36.3,0.1-72.6,0.1-108.9,0c-2.6,0-3.2,0.9-3.2,3.3c0.1,13.4,0.1,26.8,0,40.2
		c0,2.5,0.6,3.3,3.2,3.2C197.4,213.4,215.5,213.4,233.7,213.4z M233.7,108.2C233.7,108.2,233.7,108.2,233.7,108.2
		c-18.2,0-36.5,0.1-54.7,0c-2.3,0-3,0.7-2.9,3c0.1,13.7,0.1,27.3,0,41c0,2.1,0.7,2.7,2.7,2.7c36.5,0,73-0.1,109.4,0
		c2.4,0,3.1-0.8,3.1-3.2c-0.1-13.4,0-26.8,0-40.2c0-3.3,0-3.3-3.3-3.3C269.9,108.2,251.8,108.2,233.7,108.2z"/>
	<path class="st0" d="M54.5,325.6c12.7,0.3,24.4,4,35.6,9.3c9.3,4.3,18.3,9.1,27.3,13.9c18.1,9.7,36,10.2,54.3,0.2
		c10.4-5.7,21-11.1,31.8-16.1c12.1-5.6,25-8.2,38.4-6.6c9.6,1.2,18.6,4.3,27.2,8.6c10.7,5.4,21.3,11,31.8,16.6
		c12.9,6.9,26.3,6.5,39.3,1.2c9.7-4,19-9.2,28.4-13.9c10.1-5,20.5-9.1,31.6-11.3c13.9-2.7,27.4-1.5,40.3,4.2
		c8.2,3.6,16.1,7.9,24.1,12c3.2,1.7,4.3,4.7,3.2,7.6c-0.9,2.5-3.7,4.3-6.3,3.9c-1.2-0.2-2.3-0.8-3.4-1.4
		c-8.1-3.9-16.1-8.2-24.5-11.8c-11-4.7-22.5-4.7-34.1-2.1c-14.1,3.2-26.8,9.9-39.3,16.8c-9.9,5.4-20.3,9.6-31.5,11.3
		c-12.8,1.9-24.8-1-36.1-7.1c-10.2-5.5-20.3-11-30.7-16.1c-10.9-5.3-22.3-8.1-34.6-6.5c-9.2,1.2-17.7,4.4-25.9,8.5
		c-10.3,5.2-20.4,10.9-30.8,15.8c-12.7,6-26,7-39.7,4c-10.8-2.4-20.1-7.8-29.6-12.8c-9.2-4.8-18.4-9.6-28.4-12.8
		c-14.1-4.6-27.9-4-41.4,1.8c-7.5,3.3-14.7,7.3-22.1,11c-2.3,1.2-4.6,1.4-6.8-0.1c-2-1.3-3.1-3.4-2.4-5.6c0.5-1.7,1.6-3.7,3.1-4.5
		c11.5-6.7,23.3-13,36.4-16C44.5,326.6,49.5,326.3,54.5,325.6z"/>
	<path class="st0" d="M54.3,267.7c13.3,0.6,25.5,4.6,37.2,10.2c9.1,4.3,17.9,9.1,26.9,13.7c17.2,9,34.4,9.6,51.8,0.4
		c11.2-5.9,22.4-11.7,33.8-17c11-5.1,22.7-7.5,35-6.6c9.6,0.7,18.7,3.4,27.2,7.6c11,5.4,21.8,11.1,32.5,16.9
		c9.4,5.1,19.2,7.3,29.8,5.4c9-1.6,17.4-5,25.4-9.4c10.2-5.6,20.5-11,31.5-14.9c12.9-4.5,26.1-6.9,39.7-4.5
		c9.9,1.8,19.1,5.7,28,10.3c4,2.1,7.9,4.2,11.8,6.5c3.2,1.8,4.1,5.2,2.5,8.1c-1.8,3.1-5.1,3.9-8.4,2.2c-7.9-3.9-15.6-8.2-23.7-11.7
		c-12.5-5.5-25.5-5.6-38.6-2c-13.5,3.6-25.6,10.2-37.7,16.8c-9.9,5.4-20.4,9.3-31.7,10.7c-11.9,1.5-22.8-1.1-33.2-6.6
		c-10.1-5.3-20.2-10.9-30.5-16c-10.6-5.3-21.7-8.5-33.7-7.5c-9.2,0.8-17.8,3.6-25.9,7.6c-11,5.4-21.7,11.3-32.6,16.7
		c-13.3,6.5-27.2,7.4-41.6,4.1c-10.5-2.4-19.5-7.9-28.9-12.8c-9.4-4.9-18.7-9.7-28.9-12.9c-13.5-4.2-26.8-3.7-39.8,1.8
		c-7.7,3.3-15.1,7.4-22.5,11.2c-2.4,1.2-4.7,1.7-7.1,0.1c-2-1.4-3.2-3.5-2.4-5.8c0.5-1.7,1.7-3.6,3.2-4.4
		c10.6-6.1,21.3-12,33.3-15.1C42.4,269.2,48.4,268.7,54.3,267.7z"/>
</g>
</svg>
