<?xml version="1.0" encoding="utf-8"?>
<!-- Generator: Adobe Illustrator 20.0.0, SVG Export Plug-In . SVG Version: 6.00 Build 0)  -->
<!DOCTYPE svg PUBLIC "-//W3C//DTD SVG 1.1//EN" "http://www.w3.org/Graphics/SVG/1.1/DTD/svg11.dtd">
<svg version="1.1" id="Warstwa_1" xmlns="http://www.w3.org/2000/svg" xmlns:xlink="http://www.w3.org/1999/xlink" x="0px" y="0px"
	 viewBox="0 0 509.5 459.3" style="enable-background:new 0 0 509.5 459.3;" xml:space="preserve">
<style type="text/css">
	.st0{fill:#FFFFFF;}
</style>
<g>
	<path class="st0" d="M254.4,361c-25.7,0-51.3,0-77,0c-3.2,0-6.3-0.1-9.5-0.1c-3.1,0-3.3,0.2-3.3,3.2c0,8.6,0,17.2,0,25.7
		c0,3.2,0.1,3.4,3.4,3.4c17.9,0,35.8,0,53.7,0c2.6,0,5.2,0,7.7,0c5.6,0.2,9,3.6,9,9.2c0,15.8,0,31.7,0,47.5c0,5.8-3.5,9.4-9.3,9.4
		c-24.1,0-48.2,0-72.2,0c-5.8,0-9.2-3.6-9.2-9.5c0-12,0-24,0-36c0-3.7,0-3.7-3.8-3.7c-12,0-24,0-36,0c-3.9,0-7.1-1.4-8.7-5.1
		c-0.6-1.4-0.7-3.1-0.7-4.6c0-28,0-56,0-84c0-0.8,0.3-1.8-0.1-2.5c-0.4-0.9-1.4-2.1-2.1-2.1c-9.3-0.1-18.7-0.1-28-0.1
		c-1.5,0-2.1,0.8-2.2,2.1c-0.1,0.9,0,1.8,0,2.7c0,27.2,0,54.3,0,81.5c0,1.1,0,2.2,0,3.2c-0.2,5.3-3.4,8.7-8.7,8.7
		c-16.2,0.1-32.5,0.1-48.7,0c-5.4,0-8.7-3.6-8.7-9.1C0,388,0,375.1,0,362.2c0-35.5,0-71,0-106.5c0-5.1,1.9-8.1,6.1-9.5
		c1.1-0.4,2.3-0.4,3.4-0.4c12,0,24,0,36,0c3.8,0,3.8,0,3.8-3.7c0-27.6,0-55.2,0-82.7c0-1,0-2,0-3c0.2-5.6,3.4-8.7,9-8.7
		c11.7,0,23.3,0,35,0c5.3,0,5.3,0,5.3-5.4c0-11.5,0-23,0-34.5c0-6.1,3.1-9.3,9.2-9.3c12.2-0.1,24.3,0,36.5,0c3.4,0,3.5-0.1,3.5-3.5
		c0-8.5,0-17,0-25.5c0-3.1-0.1-3.3-3.2-3.3c-10.7,0-21.5,0-32.2,0c-2,0-4,0.1-6-0.1c-4.8-0.5-7.7-3.8-7.7-8.5c0-16.2,0-32.3,0-48.5
		c0-5.5,3.4-8.9,8.9-8.9c16-0.1,32-0.1,48,0c5.7,0,9.1,3.6,9.1,9.3c0,12.1,0,24.2,0,36.2c0,3.5,0,3.6,3.7,3.6
		c11.7,0,23.5,0.2,35.2,0c6.7-0.2,10.7,3.9,10.4,11.3c-0.5,11.8-0.2,23.7-0.2,35.5c0,2.3,1.5,2.4,3.2,2.4c9.7,0,19.5,0,29.2,0
		c15.1,0,30.2,0,45.2,0c3.8,0,4-0.2,4-3.9c0-11.9,0-23.8,0-35.7c0-6.4,3.1-9.5,9.5-9.5c12-0.1,24,0,36,0c3.6,0,3.6-0.1,3.6-3.6
		c0-12.1,0-24.2,0-36.2c0-5.9,3.4-9.3,9.3-9.3c15.7,0,31.5,0,47.2,0c6.4,0,9.8,4.1,9.6,10.4c-0.3,7-0.1,14-0.2,21
		c0,8.3-0.2,16.7,0.1,25c0.2,5.9-3.8,9.8-9.8,9.7c-11.9-0.1-23.8,0-35.7,0c-3.7,0-3.7,0-3.7,3.8c0,8.3,0,16.7,0,25
		c0,3.5,0,3.5,3.4,3.5c12,0,24,0,36,0c4,0,7.3,1.2,9,5c0.6,1.3,0.9,2.9,0.9,4.3c0,12.1-0.1,24.2-0.2,36.2c0,3.5,0.2,3.6,3.7,3.6
		c11.9,0,23.8,0.2,35.7-0.1c5.7-0.2,11,3.8,9.9,11.7c-0.1,1.1-0.1,2.2-0.1,3.2c0,26.6,0,53.2,0,79.7c0,3.6,0,3.6,3.6,3.6
		c12,0,24,0,36,0c6.2,0,9.9,3.7,9.9,10c-0.1,29.2-0.2,58.3-0.2,87.5c0,18.9,0,37.8-0.1,56.7c0,1.9-0.3,3.9-1,5.6
		c-1.5,3.3-4.5,4.5-8,4.6c-16,0-32,0.1-48,0c-5.8,0-9.1-3.4-9.1-9.2c-0.1-16.4,0-32.8,0-49.2c0-12.1,0-24.2,0-36.2
		c0-3.5-0.2-3.6-3.7-3.6c-8.4,0-16.8,0-25.2,0c-3.2,0-3.4,0.2-3.4,3.4c0,28.5,0,57,0,85.5c0,3.7-1,6.7-4.3,8.3
		c-1.6,0.8-3.7,1.1-5.5,1.1c-11.9,0.1-23.8,0.1-35.7,0.1c-3.5,0-3.5,0-3.5,3.4c0,12.1,0,24.2,0,36.2c0,6-3.4,9.5-9.4,9.5
		c-24,0-48,0-72,0c-5.9,0-9.4-3.5-9.4-9.3c0-15.7,0-31.5,0-47.2c0-6,3.3-9.4,9.4-9.5c19.2,0,38.3,0,57.5,0c1.4,0,2.8-0.1,4.2,0
		c2,0.1,2.8-0.8,2.8-2.8c-0.1-8.8-0.1-17.7,0-26.5c0-2.3-0.9-3.1-3.1-3c-6.6,0.1-13.2,0-19.7,0c-19.9,0-39.8,0-59.7,0
		C259.6,360.9,257,360.9,254.4,361C254.4,360.9,254.4,360.9,254.4,361z M254.5,344.1C254.5,344.1,254.5,344.1,254.5,344.1
		c32.4,0,64.8,0,97.2,0c6.5,0,9.9,3.4,9.9,9.8c0,12.1,0,24.2-0.1,36.2c0,2.5,0.8,3.1,3.2,3.1c8.3-0.1,16.7,0,25,0
		c4.1,0,4.1,0,4.1-4.1c0-28,0-56,0-84c0-6.9,3.4-10.3,10.2-10.3c2.9,0,5.8,0,8.7,0c12.7,0,25.3,0,38,0c4.9,0,8,2.3,9,7
		c0.5,2.2,0.3,4.6,0.3,6.8c0,27.1,0,54.2,0,81.2c0,3,0.3,3.3,3.3,3.3c8.3,0,16.7,0,25,0c4.1,0,4.2-0.1,4.2-4.2
		c0-15.2-0.1-30.3-0.1-45.5c0-25.8,0-51.7,0-77.5c0-3.2-0.2-3.4-3.4-3.4c-12,0-24,0-36,0c-1.5,0-3.1-0.1-4.4-0.6
		c-4.2-1.7-5.5-5.1-5.5-9.4c0-28.2,0-56.5,0-84.7c0-3.4,0-3.4-3.3-3.4c-12.1,0-24.2,0-36.2,0c-6.2,0-9.7-3.5-9.7-9.8c0-12,0-24,0-36
		c0-3.4,0-3.4-3.5-3.4c-11.9,0-23.8-0.1-35.7,0c-5.9,0.1-10.1-3.7-9.9-9.8c0.3-12.1,0-24.2,0.1-36.2c0-2.4-0.8-3.2-3.2-3.2
		c-8.6,0.1-17.2,0-25.7,0c-3.3,0-3.4,0.1-3.4,3.3c0,11.8,0,23.7,0,35.5c0,7.1-3.3,10.4-10.4,10.4c-31.7,0-63.3,0-95,0
		c-6.8,0-10.1-3.3-10.2-10.1c0-12,0-24,0-36c0-2.2-0.5-3.1-2.9-3.1c-8.7,0.1-17.5,0.1-26.2,0c-2.4,0-3.2,0.8-3.2,3.2
		c0.1,11.9-0.2,23.8,0.1,35.7c0.2,7-4.1,10.4-10.5,10.3c-11.8-0.2-23.7,0-35.5,0c-3.2,0-3.2,0-3.2,3.2c0,11.9,0,23.8,0,35.7
		c0,6.9-3.3,10.3-10.3,10.3c-11.9,0-23.8,0-35.7,0c-3.2,0-3.3,0.1-3.3,3.2c0,5,0,10,0,15c0,23.2-0.1,46.5,0.1,69.7
		c0,6.1-3.3,10.5-10.2,10.3c-11.8-0.3-23.7-0.1-35.5-0.1c-3.5,0-3.7,0.1-3.7,3.6c0,11.4,0.1,22.8,0.1,34.2c0,29.7-0.1,59.5-0.1,89.2
		c0,3.2,0.3,3.5,3.4,3.5c8.6,0,17.2,0,25.7,0c3,0,3.3-0.3,3.3-3.3c0-20.3,0-40.7,0-61c0-8.3,0-16.7,0.1-25c0.1-5.5,3.5-9,8.9-9
		c16.1-0.1,32.2-0.1,48.2,0c4.9,0,8.6,3.3,9.1,7.9c0.1,1.3,0.1,2.7,0.1,4c0,27.8,0,55.7-0.1,83.5c0,2.4,0.8,3,3.1,3
		c8.7-0.1,17.3-0.1,26,0c2.5,0,3.3-0.8,3.3-3.3c-0.1-12.1,0-24.2,0-36.2c0-6.4,3.3-9.6,9.7-9.6C189.8,344.1,222.1,344.1,254.5,344.1
		z M192.9,442.5C192.9,442.5,192.9,442.5,192.9,442.5c8.4,0,16.8,0,25.2,0c3.3,0,3.5-0.3,3.5-3.6c0-8.6-0.1-17.1,0-25.7
		c0-2.3-0.8-3.1-3-3.1c-17.1,0.1-34.1,0.1-51.2,0c-2.2,0-2.9,0.8-2.9,3c0.1,8.7,0,17.3,0,26c0,3.3,0.1,3.4,3.3,3.4
		C176.3,442.5,184.6,442.5,192.9,442.5z M316.4,442.5c8.4,0,16.8,0,25.2,0c2.2,0,3.1-0.7,3.1-3c-0.1-8.8-0.1-17.6,0-26.5
		c0-2.2-0.7-3-2.9-3c-17.1,0-34.1,0-51.2,0c-2.2,0-3.1,0.8-3,3.1c0.1,8.6,0,17.1,0,25.7c0,3.3,0.3,3.5,3.5,3.6
		C299.6,442.5,308,442.5,316.4,442.5z M147.8,33.2c0-4.6-0.1-9.2,0-13.7c0-2-0.7-2.6-2.7-2.6c-9.1,0.1-18.1,0.1-27.2,0
		c-1.7,0-2.4,0.6-2.4,2.3c0,9.2,0,18.5,0,27.7c0,1.7,0.6,2.4,2.3,2.4c9.2,0,18.3,0,27.5,0c1.8,0,2.5-0.7,2.5-2.6
		C147.7,42.2,147.8,37.7,147.8,33.2z M361.6,33.2c0,4.6,0,9.2,0,13.7c0,1.6,0.6,2.3,2.2,2.3c9.3,0,18.7,0,28,0
		c1.5,0,2.1-0.6,2.1-2.1c0-9.3,0-18.7,0-28c0-1.7-0.7-2.3-2.4-2.3c-9.1,0-18.2,0.1-27.2,0c-1.9,0-2.7,0.7-2.6,2.6
		C361.6,24,361.6,28.6,361.6,33.2z"/>
	<path class="st0" d="M180.8,147.6c8,0,16,0.2,24-0.1c5.9-0.2,9.6,4.6,9.2,10.5c-0.3,3.2-0.2,6.5-0.2,9.7c0,11.9,0,23.8,0,35.7
		c0,6.9-3.1,10.1-10,10.1c-15.5,0-31,0-46.5,0c-6.2,0-9.5-3.4-9.5-9.6c0-15.7,0-31.3,0-47c0-6.2,3.2-9.4,9.4-9.4
		C165,147.6,172.9,147.6,180.8,147.6z M164.6,180.5C164.6,180.5,164.6,180.5,164.6,180.5c0,4.6,0.1,9.2,0,13.7
		c0,1.8,0.6,2.5,2.4,2.5c9.2-0.1,18.3-0.1,27.5,0c1.7,0,2.4-0.6,2.4-2.3c0-9.2,0-18.5,0-27.7c0-1.6-0.5-2.2-2.2-2.2
		c-9.2,0-18.5,0-27.7,0c-1.9,0-2.5,0.7-2.4,2.5C164.7,171.5,164.6,176,164.6,180.5z"/>
	<path class="st0" d="M295.6,180.4c0-7.9,0-15.8,0-23.7c0-5.9,3.1-9,9.1-9.1c15.7,0,31.5,0,47.2,0c6.5,0,9.7,3.3,9.7,9.9
		c0,15.5,0,31,0,46.5c0,6.1-3.4,9.6-9.6,9.6c-15.7,0-31.5,0-47.2,0c-5.6,0-9.1-3.3-9.2-8.9C295.5,196.6,295.5,188.5,295.6,180.4
		C295.5,180.4,295.6,180.4,295.6,180.4z M344.7,180.7C344.7,180.7,344.7,180.7,344.7,180.7c0-4.4-0.1-8.8,0.1-13.2
		c0.1-2.1-0.5-3-2.8-3c-9,0.1-18,0.1-27,0c-1.8,0-2.6,0.5-2.5,2.4c0.1,9.1,0.1,18.2,0,27.2c0,1.9,0.6,2.6,2.6,2.6c9-0.1,18-0.1,27,0
		c2.1,0,2.7-0.8,2.7-2.8C344.6,189.5,344.7,185.1,344.7,180.7z"/>
</g>
</svg>
