<?xml version="1.0" encoding="utf-8"?>
<!-- Generator: Adobe Illustrator 20.0.0, SVG Export Plug-In . SVG Version: 6.00 Build 0)  -->
<!DOCTYPE svg PUBLIC "-//W3C//DTD SVG 1.1//EN" "http://www.w3.org/Graphics/SVG/1.1/DTD/svg11.dtd">
<svg version="1.1" id="Warstwa_1" xmlns="http://www.w3.org/2000/svg" xmlns:xlink="http://www.w3.org/1999/xlink" x="0px" y="0px"
	 viewBox="0 0 52 52" style="enable-background:new 0 0 52 52;" xml:space="preserve">
<style type="text/css">
	.st0{fill:url(#SVGID_1_);}
</style>
<linearGradient id="SVGID_1_" gradientUnits="userSpaceOnUse" x1="-559.5151" y1="-89.6137" x2="-511.5674" y2="-89.6137" gradientTransform="matrix(0.9163 -0.4006 0.4006 0.9163 552.9368 -106.02)">
	<stop  offset="0.218" style="stop-color:#FF007A"/>
	<stop  offset="0.8954" style="stop-color:#FE00FF"/>
</linearGradient>
<path class="st0" d="M46.3,35.5L41.5,38c-1.7,0.9-3.1,2.3-4.1,3.9l-2.7,4.7c-3.9,6.9-13.9,6.7-17.6-0.3l-2.5-4.8
	c-0.9-1.7-2.3-3.1-3.9-4.1l-4.7-2.7C-0.8,31-0.7,21,6.4,17.3l4.8-2.5c1.7-0.9,3.1-2.3,4.1-3.9l2.7-4.7c3.9-6.9,13.9-6.7,17.6,0.3
	l2.5,4.8c0.9,1.7,2.3,3.1,3.9,4.1l4.7,2.7C53.5,21.8,53.3,31.8,46.3,35.5z"/>
</svg>
