<?xml version="1.0" encoding="utf-8"?>
<!-- Generator: Adobe Illustrator 20.0.0, SVG Export Plug-In . SVG Version: 6.00 Build 0)  -->
<!DOCTYPE svg PUBLIC "-//W3C//DTD SVG 1.1//EN" "http://www.w3.org/Graphics/SVG/1.1/DTD/svg11.dtd">
<svg version="1.1" id="Warstwa_1" xmlns="http://www.w3.org/2000/svg" xmlns:xlink="http://www.w3.org/1999/xlink" x="0px" y="0px"
	 viewBox="0 0 497 456.6" style="enable-background:new 0 0 497 456.6;" xml:space="preserve">
<style type="text/css">
	.st0{fill:#192D3A;}
	.st1{fill:#41525B;}
</style>
<g>
	<g id="Layer_1_3_">
		<g>
			<g>
				<path class="st0" d="M333.6,193.8v101h-101v-101H333.6 M333.6,173.6h-101c-11.2,0-20.2,9-20.2,20.2v101c0,11.2,9,20.2,20.2,20.2
					h101c11.2,0,20.2-9,20.2-20.2v-101C353.8,182.7,344.7,173.6,333.6,173.6L333.6,173.6z"/>
			</g>
		</g>
		<g>
			<path class="st1" d="M285.3,274.7c-3.1,0-6.1-1.4-8-4l-30.9-40.4c-3.4-4.4-2.5-10.8,1.9-14.2c4.4-3.4,10.8-2.5,14.2,1.9
				l21.2,27.7c11.7-21,37-59.5,77.3-85.6c4.7-3,10.9-1.7,14,3c3,4.7,1.7,10.9-3,14c-51.6,33.3-77,90.9-77.3,91.5
				c-1.4,3.3-4.5,5.6-8,6C286.2,274.6,285.7,274.7,285.3,274.7z"/>
		</g>
	</g>
	<g id="Layer_1_1_">
		<g>
			<g>
				<path class="st0" d="M169.7,404.5v43.4h-43.4v-43.4H169.7 M169.7,395.8h-43.4c-4.8,0-8.7,3.9-8.7,8.7v43.4
					c0,4.8,3.9,8.7,8.7,8.7h43.4c4.8,0,8.7-3.9,8.7-8.7v-43.4C178.4,399.7,174.5,395.8,169.7,395.8L169.7,395.8z"/>
			</g>
		</g>
		<g>
			<path class="st1" d="M148.9,439.3c-1.3,0-2.6-0.6-3.4-1.7l-13.3-17.4c-1.5-1.9-1.1-4.6,0.8-6.1c1.9-1.5,4.6-1.1,6.1,0.8l9.1,11.9
				c5-9,15.9-25.6,33.2-36.8c2-1.3,4.7-0.7,6,1.3c1.3,2,0.7,4.7-1.3,6c-22.2,14.3-33.1,39.1-33.2,39.3c-0.6,1.4-1.9,2.4-3.5,2.6
				C149.3,439.3,149.1,439.3,148.9,439.3z"/>
		</g>
	</g>
	<g id="Layer_1_2_">
		<g>
			<g>
				<path class="st0" d="M209.8,15.2v43.4h-43.4V15.2H209.8 M209.8,6.5h-43.4c-4.8,0-8.7,3.9-8.7,8.7v43.4c0,4.8,3.9,8.7,8.7,8.7
					h43.4c4.8,0,8.7-3.9,8.7-8.7V15.2C218.5,10.4,214.6,6.5,209.8,6.5L209.8,6.5z"/>
			</g>
		</g>
		<g>
			<path class="st1" d="M189.1,49.9c-1.3,0-2.6-0.6-3.4-1.7l-13.3-17.4c-1.5-1.9-1.1-4.6,0.8-6.1c1.9-1.5,4.6-1.1,6.1,0.8l9.1,11.9
				c5-9,15.9-25.6,33.2-36.8c2-1.3,4.7-0.7,6,1.3c1.3,2,0.7,4.7-1.3,6c-22.2,14.3-33.1,39.1-33.2,39.3c-0.6,1.4-1.9,2.4-3.5,2.6
				C189.5,49.9,189.3,49.9,189.1,49.9z"/>
		</g>
	</g>
	<g id="Layer_1_4_">
		<g>
			<g>
				<path class="st0" d="M478.6,167.4v43.4h-43.4v-43.4H478.6 M478.6,158.8h-43.4c-4.8,0-8.7,3.9-8.7,8.7v43.4
					c0,4.8,3.9,8.7,8.7,8.7h43.4c4.8,0,8.7-3.9,8.7-8.7v-43.4C487.3,162.6,483.4,158.8,478.6,158.8L478.6,158.8z"/>
			</g>
		</g>
		<g>
			<path class="st1" d="M457.9,202.2c-1.3,0-2.6-0.6-3.4-1.7l-13.3-17.4c-1.5-1.9-1.1-4.6,0.8-6.1c1.9-1.5,4.6-1.1,6.1,0.8l9.1,11.9
				c5-9,15.9-25.6,33.2-36.8c2-1.3,4.7-0.7,6,1.3c1.3,2,0.7,4.7-1.3,6c-22.2,14.3-33.1,39.1-33.2,39.3c-0.6,1.4-1.9,2.4-3.5,2.6
				C458.2,202.2,458,202.2,457.9,202.2z"/>
		</g>
	</g>
	<g>
		<path class="st1" d="M299.7,442c-2.2,0-4.4-1-5.7-2.8l-22.1-28.8c-2.4-3.2-1.8-7.7,1.3-10.1c3.2-2.4,7.7-1.8,10.1,1.3l15.1,19.7
			c8.3-15,26.4-42.5,55.2-61.1c3.3-2.2,7.8-1.2,10,2.1c2.2,3.3,1.2,7.8-2.1,10c-36.8,23.8-55,64.9-55.2,65.3c-1,2.3-3.2,4-5.7,4.3
			C300.3,442,300,442,299.7,442z"/>
	</g>
	<g>
		<path class="st1" d="M22,347.9c-1.7,0-3.3-0.8-4.3-2.1L1.1,324.1c-1.8-2.4-1.4-5.8,1-7.6c2.4-1.8,5.8-1.4,7.6,1l11.4,14.9
			c6.3-11.3,19.9-32,41.5-46c2.5-1.6,5.9-0.9,7.5,1.6c1.6,2.5,0.9,5.9-1.6,7.5c-27.7,17.9-41.4,48.9-41.5,49.2
			c-0.8,1.8-2.4,3-4.3,3.2C22.5,347.9,22.3,347.9,22,347.9z"/>
	</g>
	<g>
		<path class="st1" d="M107.2,198.8c-1.8,0-3.6-0.8-4.7-2.3l-18.1-23.6c-2-2.6-1.5-6.3,1.1-8.3c2.6-2,6.3-1.5,8.3,1.1l12.4,16.2
			c6.8-12.3,21.6-34.8,45.2-50c2.7-1.8,6.4-1,8.2,1.8c1.8,2.7,1,6.4-1.8,8.2c-30.1,19.5-45,53.2-45.2,53.5c-0.8,1.9-2.6,3.3-4.7,3.5
			C107.7,198.8,107.4,198.8,107.2,198.8z"/>
	</g>
	<g>
		<path class="st1" d="M320.2,87.8c-1.1,0-2.2-0.5-3-1.5l-11.4-14.9c-1.2-1.6-0.9-4,0.7-5.2c1.6-1.2,4-0.9,5.2,0.7l7.8,10.2
			c4.3-7.7,13.6-21.9,28.5-31.5c1.7-1.1,4-0.6,5.1,1.1c1.1,1.7,0.6,4-1.1,5.1c-19,12.3-28.4,33.5-28.5,33.7c-0.5,1.2-1.7,2.1-3,2.2
			C320.5,87.8,320.4,87.8,320.2,87.8z"/>
	</g>
	<g>
		<path class="st1" d="M454.9,369.3c-1.1,0-2.2-0.5-3-1.5L440.5,353c-1.2-1.6-0.9-4,0.7-5.2c1.6-1.2,4-0.9,5.2,0.7l7.8,10.2
			c4.3-7.7,13.6-21.9,28.5-31.5c1.7-1.1,4-0.6,5.1,1.1c1.1,1.7,0.6,4-1.1,5.1c-19,12.3-28.4,33.5-28.5,33.7c-0.5,1.2-1.7,2.1-3,2.2
			C455.2,369.3,455,369.3,454.9,369.3z"/>
	</g>
	<g id="Layer_2">
	</g>
</g>
</svg>
