<?xml version="1.0" encoding="utf-8"?>
<!-- Generator: Adobe Illustrator 20.0.0, SVG Export Plug-In . SVG Version: 6.00 Build 0)  -->
<!DOCTYPE svg PUBLIC "-//W3C//DTD SVG 1.1//EN" "http://www.w3.org/Graphics/SVG/1.1/DTD/svg11.dtd">
<svg version="1.1" id="Warstwa_1" xmlns="http://www.w3.org/2000/svg" xmlns:xlink="http://www.w3.org/1999/xlink" x="0px" y="0px"
	 viewBox="0 0 299 239" style="enable-background:new 0 0 299 239;" xml:space="preserve">
<style type="text/css">
	.st0{fill:#192D3A;}
	.st1{fill:#41525B;}
</style>
<g id="Layer_1">
	<g>
		<g>
			<g>
				<path class="st0" d="M56.6,211.7c2.9,4.5,0.9,11.4-4.2,15.1L38,237c-5.4,3.9-12.8,1.9-16.8-4.5c-3.8-6.5-1.5-14.3,4.3-16.9
					l15.9-7.5C47.3,205.2,53.8,207,56.6,211.7z"/>
			</g>
		</g>
		<g>
			<g>
				<path class="st0" d="M41,155.1c0,5.4-4.6,10.3-11.1,11l-17.5,1.6C6,168.4,0.1,162.9,0,155.3c0.2-7.5,5.7-13.1,12.1-12.5
					l17.5,1.4C36.1,144.9,41.2,149.7,41,155.1z"/>
			</g>
		</g>
		<g>
			<g>
				<path class="st0" d="M55.9,98.4c-1.4,2.3-3.8,3.9-6.4,4.6c-2.7,0.7-5.8,0.6-8.8-0.7l-16-7.3c-2.9-1.3-5-3.9-5.9-7
					c-1-3.1-0.5-6.7,1.4-9.9c1.9-3.2,4.7-5.5,7.7-6.3c3.2-0.8,6.4-0.3,9.1,1.6l14.5,10c2.7,1.8,4.4,4.5,5,7.1
					C57.3,93.2,57.3,96,55.9,98.4z"/>
			</g>
		</g>
		<g>
			<g>
				<path class="st0" d="M97.1,56.6c-4.5,2.9-11.4,0.9-15.1-4.2L71.8,38c-3.9-5.4-1.9-12.8,4.5-16.8c6.5-3.8,14.3-1.5,16.9,4.3
					l7.5,15.9C103.5,47.3,101.7,53.8,97.1,56.6z"/>
			</g>
		</g>
		<g>
			<g>
				<path class="st0" d="M153.6,41c-5.4,0-10.3-4.6-11-11.1L141,12.4C140.3,6,145.9,0.1,153.4,0c7.5,0.2,13.1,5.7,12.5,12.1
					l-1.4,17.5C163.9,36.1,159,41.2,153.6,41z"/>
			</g>
		</g>
		<g>
			<g>
				<path class="st0" d="M210.4,55.9c-2.3-1.4-3.9-3.8-4.6-6.4c-0.7-2.7-0.6-5.8,0.7-8.8l7.3-16c1.3-2.9,3.9-5,7-5.9
					c3.1-1,6.7-0.5,9.9,1.4c3.2,1.9,5.5,4.7,6.3,7.7c0.8,3.2,0.3,6.4-1.6,9.1l-10,14.5c-1.8,2.7-4.5,4.4-7.1,5
					C215.6,57.3,212.7,57.2,210.4,55.9z"/>
			</g>
		</g>
		<g>
			<g>
				<path class="st1" d="M252.5,95.8c-3.6-5.6-1.1-14.2,5.3-18.9l17.9-12.7c6.7-4.9,16-2.3,21,5.7c4.8,8.1,1.9,17.9-5.4,21.1
					l-19.8,9.4C264,103.9,255.9,101.6,252.5,95.8z"/>
			</g>
		</g>
	</g>
	<g>
		<path class="st1" d="M222.5,105.5c-2-3-5.9-4.3-9.3-3L181,114.8l-21.5,8.2l0,0c-0.7-0.2-1.3-0.5-2-0.6c-17-3.3-33.5,7.7-36.8,24.8
			c-0.1,0.7-0.1,1.4-0.2,2.1c-2,15.6,7.8,30.2,23,34.2c0.7,0.2,1.3,0.5,2,0.6c17,3.3,33.5-7.7,36.8-24.8c0.1-0.7,0.1-1.4,0.2-2.1
			l0,0l15.7-16.8l23.5-25.2C224.2,112.5,224.5,108.5,222.5,105.5z"/>
	</g>
	<g>
		<circle class="st1" cx="154.2" cy="156.5" r="31.4"/>
	</g>
</g>
</svg>
