<svg id="Layer_1" data-name="Layer 1" xmlns="http://www.w3.org/2000/svg" viewBox="0 0 40 40"><defs><style>.cls-1{fill:#1d1d1b;}</style></defs><title>Artboard 1 copy 2</title><g id="Google_" data-name="Google+"><path class="cls-1" d="M12.83,17.52v5h6.75c-1.06,3.21-2.7,5-6.75,5A7.31,7.31,0,0,1,5.55,20a7.31,7.31,0,0,1,7.29-7.43,7.06,7.06,0,0,1,4.84,1.82c1-1,.94-1.17,3.55-3.65a12.49,12.49,0,1,0-8.4,21.75c10.3,0,12.82-9,12-15Z"/><polygon class="cls-1" points="35.32 17.77 35.32 13.44 32.23 13.44 32.23 17.77 27.78 17.77 27.78 20.87 32.23 20.87 32.23 25.32 35.32 25.32 35.32 20.87 39.64 20.87 39.64 17.77 35.32 17.77"/></g></svg>