<?xml version="1.0" encoding="utf-8"?>
<!-- Generator: Adobe Illustrator 20.1.0, SVG Export Plug-In . SVG Version: 6.00 Build 0)  -->
<svg version="1.1" id="Layer_1" xmlns="http://www.w3.org/2000/svg" xmlns:xlink="http://www.w3.org/1999/xlink" x="0px" y="0px"
	 viewBox="0 0 40 40" style="enable-background:new 0 0 40 40;" xml:space="preserve">
<style type="text/css">
	.st0{fill:#0CA6D9;}
</style>
<title>Artboard 1 copy 2</title>
<g id="Google_">
	<path class="st0" d="M12.8,17.5v5h6.8c-1.1,3.2-2.7,5-6.8,5c-4,0-7.3-3.3-7.3-7.3c0-0.1,0-0.1,0-0.2c-0.1-4,3.2-7.4,7.2-7.4
		c0,0,0.1,0,0.1,0c1.8,0,3.5,0.6,4.8,1.8c1-1,0.9-1.2,3.5-3.6c-5.1-4.6-13-4.2-17.6,0.9s-4.2,13,0.9,17.6c2.3,2.1,5.3,3.2,8.4,3.2
		c10.3,0,12.8-9,12-15L12.8,17.5z"/>
	<polygon class="st0" points="35.3,17.8 35.3,13.4 32.2,13.4 32.2,17.8 27.8,17.8 27.8,20.9 32.2,20.9 32.2,25.3 35.3,25.3 
		35.3,20.9 39.6,20.9 39.6,17.8 	"/>
</g>
</svg>
