<svg id="Layer_1" data-name="Layer 1" xmlns="http://www.w3.org/2000/svg" viewBox="0 0 40 40"><defs><style>.cls-1{fill:#1d1d1b;}</style></defs><title>Artboard 1 copy</title><path id="Twitter" class="cls-1" d="M33.85,8a12.14,12.14,0,0,1-3.92,1.53,6.08,6.08,0,0,0-4.5-2,6.24,6.24,0,0,0-6.16,6.32,6.45,6.45,0,0,0,.16,1.44A17.35,17.35,0,0,1,6.72,8.65a6.44,6.44,0,0,0-.83,3.18,6.36,6.36,0,0,0,2.74,5.26,6.05,6.05,0,0,1-2.79-.79v.08a6.28,6.28,0,0,0,4.95,6.2,5.88,5.88,0,0,1-1.62.22A6,6,0,0,1,8,22.69a6.19,6.19,0,0,0,5.76,4.39A12.17,12.17,0,0,1,6.1,29.78a12.33,12.33,0,0,1-1.47-.09,17.16,17.16,0,0,0,9.45,2.84c11.34,0,17.54-9.63,17.54-18,0-.27,0-.55,0-.82a12.65,12.65,0,0,0,3.07-3.27,12,12,0,0,1-3.54,1A6.31,6.31,0,0,0,33.85,8Z"/></svg>