<?xml version="1.0" encoding="utf-8"?>
<!-- Generator: Adobe Illustrator 20.1.0, SVG Export Plug-In . SVG Version: 6.00 Build 0)  -->
<svg version="1.1" id="Layer_1" xmlns="http://www.w3.org/2000/svg" xmlns:xlink="http://www.w3.org/1999/xlink" x="0px" y="0px"
	 viewBox="0 0 40 40" style="enable-background:new 0 0 40 40;" xml:space="preserve">
<style type="text/css">
	.st0{fill:#0CA6D9;}
</style>
<title>Artboard 1 copy</title>
<path id="Twitter" class="st0" d="M33.8,8c-1.2,0.7-2.5,1.3-3.9,1.5c-1.2-1.3-2.8-2-4.5-2c-3.4,0-6.2,2.9-6.2,6.3c0,0,0,0,0,0
	c0,0.5,0.1,1,0.2,1.4c-5-0.3-9.6-2.7-12.7-6.6c-0.5,1-0.8,2.1-0.8,3.2c0,2.1,1,4.1,2.7,5.3c-1,0-1.9-0.3-2.8-0.8v0.1
	c0,3,2,5.6,4.9,6.2c-0.5,0.1-1.1,0.2-1.6,0.2c-0.4,0-0.8,0-1.2-0.1c0.8,2.6,3.1,4.3,5.8,4.4c-2.2,1.8-4.9,2.7-7.7,2.7
	c-0.5,0-1,0-1.5-0.1c2.8,1.9,6.1,2.8,9.4,2.8c11.3,0,17.5-9.6,17.5-18c0-0.3,0-0.6,0-0.8c1.2-0.9,2.2-2,3.1-3.3
	c-1.1,0.5-2.3,0.9-3.5,1C32.4,10.7,33.4,9.4,33.8,8z"/>
</svg>
