<?xml version="1.0" encoding="utf-8"?>
<!-- Generator: Adobe Illustrator 20.0.0, SVG Export Plug-In . SVG Version: 6.00 Build 0)  -->
<!DOCTYPE svg PUBLIC "-//W3C//DTD SVG 1.1//EN" "http://www.w3.org/Graphics/SVG/1.1/DTD/svg11.dtd">
<svg version="1.1" id="Warstwa_2" xmlns="http://www.w3.org/2000/svg" xmlns:xlink="http://www.w3.org/1999/xlink" x="0px" y="0px"
	 viewBox="0 0 24 20" style="enable-background:new 0 0 24 20;" xml:space="preserve">
<style type="text/css">
	.st0{fill:#1750D9;}
</style>
<g>
	<path class="st0" d="M12,20L12,20L12,20c-0.9,0-1.8-0.4-2.4-1l-7.6-7.6c-2.6-2.6-2.6-6.8,0-9.4C3.2,0.7,4.9,0,6.6,0
		c1.8,0,3.4,0.7,4.7,1.9L12,2.6l0.7-0.7C13.9,0.7,15.6,0,17.4,0c1.8,0,3.5,0.7,4.7,1.9c2.6,2.6,2.6,6.8,0,9.4L14.4,19
		C13.8,19.6,12.9,20,12,20z M6.6,2C5.4,2,4.2,2.5,3.4,3.4c-1.8,1.8-1.8,4.8,0,6.6l7.6,7.6c0.3,0.3,0.6,0.4,1,0.4h0l0,0
		c0.4,0,0.7-0.1,1-0.4l7.6-7.6c1.8-1.8,1.8-4.7,0-6.6c-0.9-0.9-2-1.3-3.3-1.3c-1.2,0-2.4,0.5-3.3,1.4L12,5.4L9.9,3.4
		C9,2.5,7.9,2,6.6,2z"/>
</g>
</svg>
