<?xml version="1.0" encoding="utf-8"?>
<!-- Generator: Adobe Illustrator 20.0.0, SVG Export Plug-In . SVG Version: 6.00 Build 0)  -->
<!DOCTYPE svg PUBLIC "-//W3C//DTD SVG 1.1//EN" "http://www.w3.org/Graphics/SVG/1.1/DTD/svg11.dtd">
<svg version="1.1" id="Warstwa_2" xmlns="http://www.w3.org/2000/svg" xmlns:xlink="http://www.w3.org/1999/xlink" x="0px" y="0px"
	 viewBox="0 0 12 24" style="enable-background:new 0 0 12 24;" xml:space="preserve">
<style type="text/css">
	.st0{fill:#1750D9;}
</style>
<path class="st0" d="M10,21c0,0.6-0.4,1-1,1H3c-0.6,0-1-0.4-1-1V10H0v11c0,1.7,1.3,3,3,3h6c1.7,0,3-1.3,3-3V10h-2V21z M6,4
	c2.2,0,4,1.8,4,4h2c0-1.8-0.8-3.4-2-4.5V0H8v2.3C7.4,2.1,6.7,2,6,2C2.7,2,0,4.7,0,8h2C2,5.8,3.8,4,6,4z M9,10H6v2h3V10z M9,14H6v2h3
	V14z M6,20h3v-2H6V20z"/>
</svg>
