<?xml version="1.0" encoding="utf-8"?>
<!-- Generator: Adobe Illustrator 20.0.0, SVG Export Plug-In . SVG Version: 6.00 Build 0)  -->
<!DOCTYPE svg PUBLIC "-//W3C//DTD SVG 1.1//EN" "http://www.w3.org/Graphics/SVG/1.1/DTD/svg11.dtd">
<svg version="1.1" id="Warstwa_2" xmlns="http://www.w3.org/2000/svg" xmlns:xlink="http://www.w3.org/1999/xlink" x="0px" y="0px"
	 viewBox="0 0 22 24" style="enable-background:new 0 0 22 24;" xml:space="preserve">
<style type="text/css">
	.st0{fill:#224BDB;}
</style>
<path class="st0" d="M3,14c-1.7,0-3,1.3-3,3v4c0,1.7,1.3,3,3,3s3-1.3,3-3v-4C6,15.3,4.7,14,3,14z M4,21c0,0.6-0.4,1-1,1
	c-0.6,0-1-0.4-1-1v-4c0-0.6,0.4-1,1-1c0.6,0,1,0.4,1,1V21z M19,8c-1.7,0-3,1.3-3,3v10c0,1.7,1.3,3,3,3s3-1.3,3-3V11
	C22,9.3,20.7,8,19,8z M20,21c0,0.6-0.4,1-1,1c-0.6,0-1-0.4-1-1V11c0-0.6,0.4-1,1-1c0.6,0,1,0.4,1,1V21z M11,0C9.3,0,8,1.3,8,3v18
	c0,1.7,1.3,3,3,3s3-1.3,3-3V3C14,1.3,12.7,0,11,0z M12,21c0,0.6-0.4,1-1,1c-0.6,0-1-0.4-1-1V3c0-0.6,0.4-1,1-1c0.6,0,1,0.4,1,1V21z"
	/>
</svg>
