<?xml version="1.0" encoding="utf-8"?>
<!-- Generator: Adobe Illustrator 20.0.0, SVG Export Plug-In . SVG Version: 6.00 Build 0)  -->
<!DOCTYPE svg PUBLIC "-//W3C//DTD SVG 1.1//EN" "http://www.w3.org/Graphics/SVG/1.1/DTD/svg11.dtd">
<svg version="1.1" id="Warstwa_2" xmlns="http://www.w3.org/2000/svg" xmlns:xlink="http://www.w3.org/1999/xlink" x="0px" y="0px"
	 viewBox="0 0 24 24" style="enable-background:new 0 0 24 24;" xml:space="preserve">
<style type="text/css">
	.st0{fill:#3D44DF;}
</style>
<path class="st0" d="M23,19h-7.1c-0.4-1.7-2-3-3.9-3c-1.9,0-3.4,1.3-3.9,3H1c-0.6,0-1,0.4-1,1s0.4,1,1,1h7.1c0.4,1.7,2,3,3.9,3
	c1.9,0,3.4-1.3,3.9-3H23c0.6,0,1-0.4,1-1S23.6,19,23,19z M12,22c-1.1,0-2-0.9-2-2s0.9-2,2-2c1.1,0,2,0.9,2,2S13.1,22,12,22z M22,0H2
	C0.9,0,0,0.9,0,2v11c0,1.1,0.9,2,2,2h20c1.1,0,2-0.9,2-2V2C24,0.9,23.1,0,22,0z M22,13H2V2h20V13z"/>
</svg>
