<?xml version="1.0" encoding="utf-8"?>
<!-- Generator: Adobe Illustrator 20.0.0, SVG Export Plug-In . SVG Version: 6.00 Build 0)  -->
<!DOCTYPE svg PUBLIC "-//W3C//DTD SVG 1.1//EN" "http://www.w3.org/Graphics/SVG/1.1/DTD/svg11.dtd">
<svg version="1.1" id="Warstwa_2" xmlns="http://www.w3.org/2000/svg" xmlns:xlink="http://www.w3.org/1999/xlink" x="0px" y="0px"
	 viewBox="0 0 26.3 21.9" style="enable-background:new 0 0 26.3 21.9;" xml:space="preserve">
<style type="text/css">
	.st0{fill:#5A3DE4;}
</style>
<path class="st0" d="M23.1,14.8c-1.6-0.3-3,0.4-3.8,1.7h-6.1c-0.6-1-1.7-1.7-3-1.7l-0.3-1.2h12.2c0.6,0,1.1-0.4,1.3-0.9l2.8-8.1
	C26.5,3.8,26,3,25.2,3H7.3L6.5,0H0v2.1h4.9l3.3,13.3c-1.2,0.8-1.9,2.2-1.6,3.7c0.3,1.4,1.4,2.5,2.8,2.8c2.2,0.4,4.1-1.2,4.2-3.3h5.1
	c0.1,1.9,1.7,3.4,3.6,3.4c2.2,0,4-2.1,3.5-4.4C25.6,16.2,24.4,15.1,23.1,14.8z M11.7,18.3c0,0.8-0.7,1.5-1.5,1.5s-1.5-0.7-1.5-1.5
	s0.7-1.5,1.5-1.5S11.7,17.5,11.7,18.3z M23.9,18.3c0,0.8-0.7,1.5-1.5,1.5s-1.5-0.7-1.5-1.5s0.7-1.5,1.5-1.5S23.9,17.5,23.9,18.3z
	 M9.4,11.5L7.8,5h16.1l-2.3,6.4H9.4z"/>
</svg>
