<?xml version="1.0" encoding="utf-8"?>
<!-- Generator: Adobe Illustrator 20.0.0, SVG Export Plug-In . SVG Version: 6.00 Build 0)  -->
<!DOCTYPE svg PUBLIC "-//W3C//DTD SVG 1.1//EN" "http://www.w3.org/Graphics/SVG/1.1/DTD/svg11.dtd">
<svg version="1.1" id="Warstwa_2" xmlns="http://www.w3.org/2000/svg" xmlns:xlink="http://www.w3.org/1999/xlink" x="0px" y="0px"
	 viewBox="0 0 24 16" style="enable-background:new 0 0 24 16;" xml:space="preserve">
<style type="text/css">
	.st0{fill:#7737E8;}
</style>
<path class="st0" d="M0,9h1V7H0V9z M23,7v2h1V7H23z M19,0c-1.7,0-3,1.3-3,3v4H8V3c0-1.7-1.3-3-3-3S2,1.3,2,3v10c0,1.7,1.3,3,3,3
	s3-1.3,3-3V9h8v4c0,1.7,1.3,3,3,3s3-1.3,3-3V3C22,1.3,20.7,0,19,0z M6,13c0,0.6-0.4,1-1,1c-0.6,0-1-0.4-1-1V3c0-0.6,0.4-1,1-1
	c0.6,0,1,0.4,1,1V13z M20,13c0,0.6-0.4,1-1,1c-0.6,0-1-0.4-1-1V3c0-0.6,0.4-1,1-1c0.6,0,1,0.4,1,1V13z"/>
</svg>
