<?xml version="1.0" encoding="utf-8"?>
<!-- Generator: Adobe Illustrator 20.0.0, SVG Export Plug-In . SVG Version: 6.00 Build 0)  -->
<!DOCTYPE svg PUBLIC "-//W3C//DTD SVG 1.1//EN" "http://www.w3.org/Graphics/SVG/1.1/DTD/svg11.dtd">
<svg version="1.1" id="Warstwa_2" xmlns="http://www.w3.org/2000/svg" xmlns:xlink="http://www.w3.org/1999/xlink" x="0px" y="0px"
	 viewBox="0 0 22 24" style="enable-background:new 0 0 22 24;" xml:space="preserve">
<style type="text/css">
	.st0{fill:#9531EC;}
</style>
<path class="st0" d="M14.9,1.4l-1.8-0.9l-1,2l1.8,0.9L14.9,1.4z M22,1l-1.7-1l-4.6,7.4c-1.2-0.7-2.5-1.2-4-1.3L8.9,0.5L7.1,1.5
	l2.4,4.7C8.4,6.3,7.3,6.8,6.3,7.4L1.7,0L0,1l4.7,7.6C3.1,10.2,2,12.5,2,15c0,5,4,9,9,9c5,0,9-4,9-9c0-2.5-1-4.8-2.7-6.4L22,1z
	 M18,15c0,3.9-3.1,7-7,7c-3.9,0-7-3.1-7-7s3.1-7,7-7C14.9,8,18,11.1,18,15z M11,10c-2.8,0-5,2.2-5,5s2.2,5,5,5c2.8,0,5-2.2,5-5
	S13.8,10,11,10z M11,18c-1.7,0-3-1.3-3-3s1.3-3,3-3s3,1.3,3,3S12.7,18,11,18z"/>
</svg>
