<?xml version="1.0" encoding="utf-8"?>
<!-- Generator: Adobe Illustrator 20.0.0, SVG Export Plug-In . SVG Version: 6.00 Build 0)  -->
<!DOCTYPE svg PUBLIC "-//W3C//DTD SVG 1.1//EN" "http://www.w3.org/Graphics/SVG/1.1/DTD/svg11.dtd">
<svg version="1.1" id="_x32_" xmlns="http://www.w3.org/2000/svg" xmlns:xlink="http://www.w3.org/1999/xlink" x="0px" y="0px"
	 viewBox="0 0 24 24" style="enable-background:new 0 0 24 24;" xml:space="preserve">
<style type="text/css">
	.st0{fill:#92AAB3;}
</style>
<g>
	<path class="st0" d="M19.4,16L16,12.6V8h-4.6L8,4.6V0H2v6h4.6L8,7.4c-0.1,0-0.1,0-0.2,0C5.5,6.8,3,7,0.8,7.8h0
		c-0.1,0-0.2,0.1-0.4,0.1C0.2,8.1,0,8.4,0,8.8c0,0.6,0.5,1,1,1c0.1,0,0.2,0,0.4-0.1C2.5,9.2,3.8,9,5,9c0.8,0,1.6,0.1,2.3,0.3
		c1,0.2,1.8,0.6,2.7,1.1V14h3.7c1.3,2.2,1.7,4.8,1.1,7.3c-0.1,0.4-0.2,0.9-0.4,1.3c0,0,0,0,0,0c-0.2,0.5,0.1,1.1,0.6,1.3
		C15,24,15.1,24,15.2,24c0.4,0,0.8-0.2,0.9-0.6c0,0,0,0,0,0c0,0,0-0.1,0-0.1c0.2-0.5,0.3-1,0.5-1.5c0.5-1.9,0.4-3.9,0-5.8l1.4,1.4
		V22h6v-6H19.4z M4,2h2v2H4V2z M12,10h2v2h-2V10z M22,20h-2v-2h2V20z"/>
</g>
</svg>
