<?xml version="1.0" encoding="utf-8"?>
<!-- Generator: Adobe Illustrator 20.0.0, SVG Export Plug-In . SVG Version: 6.00 Build 0)  -->
<!DOCTYPE svg PUBLIC "-//W3C//DTD SVG 1.1//EN" "http://www.w3.org/Graphics/SVG/1.1/DTD/svg11.dtd">
<svg version="1.1" id="_x32_" xmlns="http://www.w3.org/2000/svg" xmlns:xlink="http://www.w3.org/1999/xlink" x="0px" y="0px"
	 viewBox="0 0 24 24" style="enable-background:new 0 0 24 24;" xml:space="preserve">
<style type="text/css">
	.st0{fill:#92AAB3;}
</style>
<path class="st0" d="M6,12c-3.3,0-6,2.7-6,6v5c0,0.6,0.4,1,1,1h5c3.3,0,6-2.7,6-6S9.3,12,6,12z M6,22H2v-4c0-2.2,1.8-4,4-4
	c2.2,0,4,1.8,4,4S8.2,22,6,22z M23.1,0.9C22.6,0.3,21.8,0,21,0c-0.8,0-1.6,0.3-2.1,0.9l-8.4,8.4c-0.2,0.2-0.3,0.4-0.3,0.7
	c0,0.3,0.1,0.5,0.3,0.7c0.4,0.4,1,0.4,1.4,0l8.4-8.4C20.5,2.1,20.7,2,21,2c0.3,0,0.5,0.1,0.7,0.3c0.4,0.4,0.4,1,0,1.4l-8.4,8.4
	c-0.2,0.2-0.3,0.4-0.3,0.7c0,0.3,0.1,0.5,0.3,0.7c0.4,0.4,1,0.4,1.4,0l8.4-8.4C24.3,4,24.3,2,23.1,0.9z"/>
</svg>
