<?xml version="1.0" encoding="utf-8"?>
<!-- Generator: Adobe Illustrator 20.0.0, SVG Export Plug-In . SVG Version: 6.00 Build 0)  -->
<!DOCTYPE svg PUBLIC "-//W3C//DTD SVG 1.1//EN" "http://www.w3.org/Graphics/SVG/1.1/DTD/svg11.dtd">
<svg version="1.1" id="_x32_" xmlns="http://www.w3.org/2000/svg" xmlns:xlink="http://www.w3.org/1999/xlink" x="0px" y="0px"
	 viewBox="0 0 22 24" style="enable-background:new 0 0 22 24;" xml:space="preserve">
<style type="text/css">
	.st0{fill:#92AAB3;}
</style>
<path class="st0" d="M0,3v7c0,6.9,4.7,12.2,11,14c6.3-1.8,11-7.1,11-14V3C15.2-1,6.8-1,0,3z M20,10c0,5.6-3.5,10.2-9,11.9
	C5.5,20.2,2,15.6,2,10V4.2C4.8,2.8,7.9,2,11,2c3.1,0,6.2,0.8,9,2.2V10z M6,10V6.8C7.6,6.3,9.3,6,11,6V4C8.8,4,6.7,4.4,4.6,5.2L4,5.4
	V10c0,4.3,2.5,7.9,6.6,9.7l0.8-1.9C8,16.4,6,13.5,6,10z"/>
</svg>
