<?xml version="1.0" encoding="utf-8"?>
<!-- Generator: Adobe Illustrator 20.0.0, SVG Export Plug-In . SVG Version: 6.00 Build 0)  -->
<!DOCTYPE svg PUBLIC "-//W3C//DTD SVG 1.1//EN" "http://www.w3.org/Graphics/SVG/1.1/DTD/svg11.dtd">
<svg version="1.1" id="Warstwa_1" xmlns="http://www.w3.org/2000/svg" xmlns:xlink="http://www.w3.org/1999/xlink" x="0px" y="0px"
	 viewBox="0 0 127.9 127.9" style="enable-background:new 0 0 127.9 127.9;" xml:space="preserve">
<style type="text/css">
	.st0{fill:url(#SVGID_1_);}
</style>
<linearGradient id="SVGID_1_" gradientUnits="userSpaceOnUse" x1="-803.8322" y1="98.8377" x2="-682.7761" y2="98.8377" gradientTransform="matrix(0.9163 -0.4006 0.4006 0.9163 705.4511 -324.3238)">
	<stop  offset="0" style="stop-color:#FE00FF"/>
	<stop  offset="0.876" style="stop-color:#F9EC31"/>
</linearGradient>
<path class="st0" d="M114.4,87l-12,6.3c-4.3,2.3-7.8,5.7-10.2,9.9l-6.7,11.8c-9.9,17.4-35.1,17-44.5-0.7l-6.3-12
	c-2.3-4.3-5.7-7.8-9.9-10.2l-11.8-6.7c-17.4-9.9-17-35.1,0.7-44.5l12-6.3c4.3-2.3,7.8-5.7,10.2-9.9l6.7-11.8
	c9.9-17.4,35.1-17,44.5,0.7l6.3,12c2.3,4.3,5.7,7.8,9.9,10.2l11.8,6.7C132.5,52.4,132.1,77.7,114.4,87z"/>
</svg>
