<?xml version="1.0" encoding="utf-8"?>
<!-- Generator: Adobe Illustrator 20.0.0, SVG Export Plug-In . SVG Version: 6.00 Build 0)  -->
<!DOCTYPE svg PUBLIC "-//W3C//DTD SVG 1.1//EN" "http://www.w3.org/Graphics/SVG/1.1/DTD/svg11.dtd">
<svg version="1.1" id="Layer_1" xmlns="http://www.w3.org/2000/svg" xmlns:xlink="http://www.w3.org/1999/xlink" x="0px" y="0px"
	 viewBox="0 0 118.2 79" style="enable-background:new 0 0 118.2 79;" xml:space="preserve">
<style type="text/css">
	.st0{clip-path:url(#SVGID_2_);}
	.st1{clip-path:url(#SVGID_4_);fill:url(#SVGID_5_);}
	.st2{clip-path:url(#SVGID_7_);fill:url(#SVGID_8_);}
	.st3{clip-path:url(#SVGID_10_);fill:url(#SVGID_11_);}
	.st4{clip-path:url(#SVGID_13_);fill:url(#SVGID_14_);}
	.st5{clip-path:url(#SVGID_16_);fill:url(#SVGID_17_);}
	.st6{clip-path:url(#SVGID_19_);fill:url(#SVGID_20_);}
	.st7{clip-path:url(#SVGID_22_);fill:url(#SVGID_23_);}
	.st8{clip-path:url(#SVGID_25_);fill:url(#SVGID_26_);}
	.st9{clip-path:url(#SVGID_28_);fill:url(#SVGID_29_);}
	.st10{clip-path:url(#SVGID_31_);fill:url(#SVGID_32_);}
</style>
<g id="Inteligentny_obiekt_wektorowy">
	<g>
		<defs>
			<rect id="SVGID_1_" y="0.5" width="118.2" height="78.1"/>
		</defs>
		<clipPath id="SVGID_2_">
			<use xlink:href="#SVGID_1_"  style="overflow:visible;"/>
		</clipPath>
		<g class="st0">
			<defs>
				<path id="SVGID_3_" d="M113.8,38L94,59c-1,1-0.9,2.7,0.1,3.6c0.5,0.5,1.1,0.7,1.8,0.7c0.7,0,1.4-0.3,1.9-0.8l19.8-21
					c1-1,0.9-2.7-0.1-3.6c-0.5-0.5-1.1-0.7-1.8-0.7C115,37.2,114.3,37.4,113.8,38"/>
			</defs>
			<clipPath id="SVGID_4_">
				<use xlink:href="#SVGID_3_"  style="overflow:visible;"/>
			</clipPath>
			
				<linearGradient id="SVGID_5_" gradientUnits="userSpaceOnUse" x1="-2.4554" y1="-1.8248" x2="-2.1127" y2="-1.8248" gradientTransform="matrix(72.8657 0 0 -72.8657 272.1904 -82.7161)">
				<stop  offset="0" style="stop-color:#FE00FF"/>
				<stop  offset="0.1046" style="stop-color:#FE00FF"/>
				<stop  offset="0.782" style="stop-color:#FF007A"/>
				<stop  offset="1" style="stop-color:#FF007A"/>
			</linearGradient>
			<rect x="93" y="37.2" class="st1" width="25.5" height="26.2"/>
		</g>
		<g class="st0">
			<defs>
				<path id="SVGID_6_" d="M86.4,67l-6.8,7.2c-1,1-0.9,2.7,0.1,3.6c0.5,0.5,1.1,0.7,1.8,0.7c0.7,0,1.4-0.3,1.9-0.8l6.8-7.2
					c1-1,0.9-2.7-0.1-3.6c-0.5-0.5-1.1-0.7-1.8-0.7C87.6,66.2,86.9,66.5,86.4,67"/>
			</defs>
			<clipPath id="SVGID_7_">
				<use xlink:href="#SVGID_6_"  style="overflow:visible;"/>
			</clipPath>
			
				<linearGradient id="SVGID_8_" gradientUnits="userSpaceOnUse" x1="-4.3397" y1="-2.5945" x2="-3.997" y2="-2.5945" gradientTransform="matrix(34.8593 0 0 -34.8593 230.145 -18.0229)">
				<stop  offset="0" style="stop-color:#FE00FF"/>
				<stop  offset="0.1046" style="stop-color:#FE00FF"/>
				<stop  offset="0.782" style="stop-color:#FF007A"/>
				<stop  offset="1" style="stop-color:#FF007A"/>
			</linearGradient>
			<rect x="78.6" y="66.2" class="st2" width="12.5" height="12.4"/>
		</g>
		<g class="st0">
			<defs>
				<path id="SVGID_9_" d="M110.6,23.2l-4.1,4.3c-1,1-0.9,2.7,0.1,3.6c0.5,0.5,1.1,0.7,1.8,0.7c0.7,0,1.4-0.3,1.9-0.8l4.1-4.3
					c1-1,0.9-2.7-0.1-3.6c-0.5-0.5-1.1-0.7-1.8-0.7C111.8,22.4,111.1,22.7,110.6,23.2"/>
			</defs>
			<clipPath id="SVGID_10_">
				<use xlink:href="#SVGID_9_"  style="overflow:visible;"/>
			</clipPath>
			
				<linearGradient id="SVGID_11_" gradientUnits="userSpaceOnUse" x1="-7.5693" y1="-6.6114" x2="-7.2266" y2="-6.6114" gradientTransform="matrix(26.8237 0 0 -26.8237 308.8877 -150.2269)">
				<stop  offset="0" style="stop-color:#FE00FF"/>
				<stop  offset="0.1046" style="stop-color:#FE00FF"/>
				<stop  offset="0.782" style="stop-color:#FF007A"/>
				<stop  offset="1" style="stop-color:#FF007A"/>
			</linearGradient>
			<rect x="105.6" y="22.4" class="st3" width="9.7" height="9.4"/>
		</g>
		<g class="st0">
			<defs>
				<path id="SVGID_12_" d="M100.9,33.5L62.4,74.3c-1,1-0.9,2.7,0.1,3.6c0.5,0.5,1.1,0.7,1.8,0.7c0.7,0,1.4-0.3,1.9-0.8l38.4-40.7
					c1-1,0.9-2.7-0.1-3.6c-0.5-0.5-1.1-0.7-1.8-0.7C102,32.7,101.4,33,100.9,33.5"/>
			</defs>
			<clipPath id="SVGID_13_">
				<use xlink:href="#SVGID_12_"  style="overflow:visible;"/>
			</clipPath>
			
				<linearGradient id="SVGID_14_" gradientUnits="userSpaceOnUse" x1="-0.931" y1="-0.9641" x2="-0.5884" y2="-0.9641" gradientTransform="matrix(127.1606 0 0 -127.1606 180.1133 -66.9286)">
				<stop  offset="0" style="stop-color:#FE00FF"/>
				<stop  offset="0.1046" style="stop-color:#FE00FF"/>
				<stop  offset="0.782" style="stop-color:#FF007A"/>
				<stop  offset="1" style="stop-color:#FF007A"/>
			</linearGradient>
			<rect x="61.4" y="32.7" class="st4" width="44.1" height="45.9"/>
		</g>
		<g class="st0">
			<defs>
				<path id="SVGID_15_" d="M110.7,1.3L76.8,37.2c-1,1-0.9,2.7,0.1,3.6c0.5,0.5,1.1,0.7,1.8,0.7c0.7,0,1.4-0.3,1.9-0.8l33.9-35.9
					c1-1,0.9-2.7-0.1-3.6c-0.5-0.5-1.1-0.7-1.8-0.7C111.9,0.5,111.2,0.7,110.7,1.3"/>
			</defs>
			<clipPath id="SVGID_16_">
				<use xlink:href="#SVGID_15_"  style="overflow:visible;"/>
			</clipPath>
			
				<linearGradient id="SVGID_17_" gradientUnits="userSpaceOnUse" x1="-1.2807" y1="-1.6586" x2="-0.9381" y2="-1.6586" gradientTransform="matrix(113.9809 0 0 -113.9809 222.0845 -168.0443)">
				<stop  offset="0" style="stop-color:#FE00FF"/>
				<stop  offset="0.1046" style="stop-color:#FE00FF"/>
				<stop  offset="0.782" style="stop-color:#FF007A"/>
				<stop  offset="1" style="stop-color:#FF007A"/>
			</linearGradient>
			<rect x="75.8" y="0.5" class="st5" width="39.6" height="41.1"/>
		</g>
		<g class="st0">
			<defs>
				<path id="SVGID_18_" d="M65,49.7L41.8,74.3c-1,1-0.9,2.7,0.1,3.6c0.5,0.5,1.1,0.7,1.8,0.7c0.7,0,1.4-0.3,1.9-0.8l23.1-24.5
					c1-1,0.9-2.7-0.1-3.6c-0.5-0.5-1.1-0.7-1.8-0.7C66.2,48.9,65.5,49.2,65,49.7"/>
			</defs>
			<clipPath id="SVGID_19_">
				<use xlink:href="#SVGID_18_"  style="overflow:visible;"/>
			</clipPath>
			
				<linearGradient id="SVGID_20_" gradientUnits="userSpaceOnUse" x1="-0.9562" y1="-1.2969" x2="-0.6135" y2="-1.2969" gradientTransform="matrix(82.5424 0 0 -82.5424 120.0757 -43.2877)">
				<stop  offset="0" style="stop-color:#FE00FF"/>
				<stop  offset="0.1046" style="stop-color:#FE00FF"/>
				<stop  offset="0.782" style="stop-color:#FF007A"/>
				<stop  offset="1" style="stop-color:#FF007A"/>
			</linearGradient>
			<rect x="40.9" y="48.9" class="st6" width="28.8" height="29.7"/>
		</g>
		<g class="st0">
			<defs>
				<path id="SVGID_21_" d="M90.2,1.3l-68.9,73c-1,1-0.9,2.7,0.1,3.6c0.5,0.5,1.1,0.7,1.8,0.7c0.7,0,1.4-0.3,1.9-0.8l68.9-73
					c1-1,0.9-2.7-0.1-3.6c-0.5-0.5-1.1-0.7-1.8-0.7C91.3,0.5,90.7,0.7,90.2,1.3"/>
			</defs>
			<clipPath id="SVGID_22_">
				<use xlink:href="#SVGID_21_"  style="overflow:visible;"/>
			</clipPath>
			
				<linearGradient id="SVGID_23_" gradientUnits="userSpaceOnUse" x1="-0.1827" y1="-0.7108" x2="0.16" y2="-0.7108" gradientTransform="matrix(215.9897 0 0 -215.9897 60.0381 -113.9947)">
				<stop  offset="0" style="stop-color:#FE00FF"/>
				<stop  offset="0.1046" style="stop-color:#FE00FF"/>
				<stop  offset="0.782" style="stop-color:#FF007A"/>
				<stop  offset="1" style="stop-color:#FF007A"/>
			</linearGradient>
			<rect x="20.3" y="0.5" class="st7" width="74.6" height="78.1"/>
		</g>
		<g class="st0">
			<defs>
				<path id="SVGID_24_" d="M69.6,1.3l-68.9,73C0.2,74.8,0,75.4,0,76v0c0,0.7,0.3,1.4,0.8,1.9c0.5,0.5,1.1,0.7,1.8,0.7
					c0.7,0,1.4-0.3,1.9-0.8l68.9-73c1-1,0.9-2.7-0.1-3.6c-0.5-0.5-1.1-0.7-1.8-0.7C70.8,0.5,70.1,0.7,69.6,1.3"/>
			</defs>
			<clipPath id="SVGID_25_">
				<use xlink:href="#SVGID_24_"  style="overflow:visible;"/>
			</clipPath>
			
				<linearGradient id="SVGID_26_" gradientUnits="userSpaceOnUse" x1="9.094947e-13" y1="-0.7108" x2="0.3427" y2="-0.7108" gradientTransform="matrix(215.9902 0 0 -215.9902 0 -113.9947)">
				<stop  offset="0" style="stop-color:#FE00FF"/>
				<stop  offset="0.1046" style="stop-color:#FE00FF"/>
				<stop  offset="0.782" style="stop-color:#FF007A"/>
				<stop  offset="1" style="stop-color:#FF007A"/>
			</linearGradient>
			<rect y="0.5" class="st8" width="74.3" height="78.1"/>
		</g>
		<g class="st0">
			<defs>
				<path id="SVGID_27_" d="M48.7,1.3L35.5,15.2c-1,1-0.9,2.7,0.1,3.6c0.5,0.5,1.1,0.7,1.8,0.7c0.7,0,1.4-0.3,1.9-0.8L52.4,4.8
					c1-1,0.9-2.7-0.1-3.6c-0.5-0.5-1.1-0.7-1.8-0.7C49.8,0.5,49.2,0.7,48.7,1.3"/>
			</defs>
			<clipPath id="SVGID_28_">
				<use xlink:href="#SVGID_27_"  style="overflow:visible;"/>
			</clipPath>
			
				<linearGradient id="SVGID_29_" gradientUnits="userSpaceOnUse" x1="-1.2513" y1="-3.9384" x2="-0.9086" y2="-3.9384" gradientTransform="matrix(53.3637 0 0 -53.3637 101.5879 -200.1622)">
				<stop  offset="0" style="stop-color:#FE00FF"/>
				<stop  offset="0.1046" style="stop-color:#FE00FF"/>
				<stop  offset="0.782" style="stop-color:#FF007A"/>
				<stop  offset="1" style="stop-color:#FF007A"/>
			</linearGradient>
			<rect x="34.5" y="0.5" class="st9" width="18.8" height="19.1"/>
		</g>
		<g class="st0">
			<defs>
				<path id="SVGID_30_" d="M27.8,23.4l-7.3,7.8c-1,1-0.9,2.7,0.1,3.6c0.5,0.5,1.1,0.7,1.8,0.7c0.7,0,1.4-0.3,1.9-0.8l7.3-7.8
					c1-1,0.9-2.7-0.1-3.6c-0.5-0.5-1.1-0.7-1.8-0.7C29,22.6,28.3,22.8,27.8,23.4"/>
			</defs>
			<clipPath id="SVGID_31_">
				<use xlink:href="#SVGID_30_"  style="overflow:visible;"/>
			</clipPath>
			
				<linearGradient id="SVGID_32_" gradientUnits="userSpaceOnUse" x1="-1.0431" y1="-4.7758" x2="-0.7004" y2="-4.7758" gradientTransform="matrix(36.3676 0 0 -36.3676 57.7109 -144.6606)">
				<stop  offset="0" style="stop-color:#FE00FF"/>
				<stop  offset="0.1046" style="stop-color:#FE00FF"/>
				<stop  offset="0.782" style="stop-color:#FF007A"/>
				<stop  offset="1" style="stop-color:#FF007A"/>
			</linearGradient>
			<rect x="19.5" y="22.6" class="st10" width="13" height="12.9"/>
		</g>
	</g>
</g>
</svg>
