<?xml version="1.0" encoding="utf-8"?>
<!-- Generator: Adobe Illustrator 20.1.0, SVG Export Plug-In . SVG Version: 6.00 Build 0)  -->
<svg version="1.1" id="Layer_2" xmlns="http://www.w3.org/2000/svg" xmlns:xlink="http://www.w3.org/1999/xlink" x="0px" y="0px"
	 viewBox="0 0 141.7 141.7" style="enable-background:new 0 0 141.7 141.7;" xml:space="preserve">
<style type="text/css">
	.st0{fill:#FFFFFF;}
</style>
<title>Artboard 1 copy 5</title>
<path class="st0" d="M38.4,63.4c0,0-1.7-2.6-6.6-2.6c-4.8,0-10.9,3.2-10.9,10.1c0,6.9,6.4,9.8,10.9,9.8s6.6-2.6,6.6-2.6v2.4h4.3
	V61.1h-4.3V63.4z M31.7,77c-3.5,0.3-6.4-2.4-6.4-5.5s2.4-6.4,5.5-6.4c0.3,0,0.6,0,0.8,0c3.5-0.3,6.4,2.4,6.4,5.5S35.7,77,32.6,77
	C32.3,77,32,77,31.7,77z"/>
<polygon class="st0" points="60.2,61.1 55.4,67.5 50.1,61.1 44.7,61.1 52.5,70.9 45,80.8 50.4,80.8 55.4,74.7 60.2,80.8 65.5,80.8 
	58,70.9 65.8,61.1 "/>
<path class="st0" d="M81.6,71.8c0,2.6-1.4,4.8-4.8,4.8s-4.8-2.4-4.8-4.8V61.1h-4.3c0,0,0,10.4,0,11.2c0,10.4,12.7,9.6,14.1,6.6v1.4
	H86V61.1h-4.3C81.6,61.1,81.6,71.8,81.6,71.8z"/>
<path class="st0" d="M92.5,62.9v-1.7h-4.3v19.5h4.3V70.6c0-3.2,0.8-5.5,6.4-5.5v-4C95.7,60.8,93,62.1,92.5,62.9z"/>
<path class="st0" d="M110.1,60.8c-4.8,0-10.9,3.2-10.9,10.1c0,6.9,6.4,9.8,10.9,9.8c4.3,0,9-3.7,9-4.3l-4.8-0.8
	c-1.1,0.8-2.6,1.4-4,1.4c-2.6,0-4.8-1.4-6.1-3.7h16.7C122.3,65.2,115.1,60.8,110.1,60.8z M103.7,69.3c1.4-3.5,5.1-5.1,8.6-3.7
	c1.7,0.6,2.9,2.1,3.7,3.7H103.7z"/>
</svg>
