<?xml version="1.0" encoding="utf-8"?>
<!-- Generator: Adobe Illustrator 20.1.0, SVG Export Plug-In . SVG Version: 6.00 Build 0)  -->
<svg version="1.1" id="Layer_2" xmlns="http://www.w3.org/2000/svg" xmlns:xlink="http://www.w3.org/1999/xlink" x="0px" y="0px"
	 viewBox="0 0 141.7 141.7" style="enable-background:new 0 0 141.7 141.7;" xml:space="preserve">
<style type="text/css">
	.st0{fill:#FFFFFF;}
</style>
<title>Artboard 1 copy 6</title>
<g>
	<path class="st0" d="M34.2,77.8c0.7-0.2,1.2-0.8,1.6-1.4s0.6-1.3,0.6-2c0-0.6-0.1-1.3-0.5-1.7c-0.2-0.5-0.7-0.9-1.2-1.3
		c-0.5-0.3-1-0.5-1.6-0.6c-0.9-0.1-1.7-0.1-2.8-0.1h-6.3V86h5.3c2,0,3.2,0,3.7-0.1c0.8-0.1,1.4-0.3,2.1-0.7c0.6-0.5,1-0.9,1.4-1.5
		c0.3-0.6,0.5-1.3,0.5-2.1c0-0.8-0.2-1.6-0.8-2.3C35.8,78.5,35,78.1,34.2,77.8z M27.2,73.3H29c1.4,0,2.4,0,2.7,0.1
		c0.5,0,0.8,0.2,1.2,0.5c0.2,0.3,0.5,0.8,0.5,1.2c0,0.5-0.1,0.8-0.5,1.2c-0.3,0.3-0.8,0.5-1.3,0.5c-0.3,0.1-1.2,0.1-2.3,0.1h-2.1
		v-3.5H27.2z M33.4,82.6c-0.2,0.3-0.7,0.5-1.2,0.6c-0.7,0.1-1.4,0.1-2.1,0.1h-2.9v-3.9h2.6c0.9-0.1,1.9,0,2.8,0.2
		c0.5,0.1,0.8,0.3,0.9,0.7c0.2,0.3,0.3,0.8,0.3,1.2C34,81.9,33.7,82.3,33.4,82.6L33.4,82.6z"/>
	<path class="st0" d="M44.8,74.7c-1,0-2.1,0.2-3,0.7c-0.8,0.5-1.6,1.2-2.1,2.1c-0.5,0.8-0.7,1.7-0.7,2.8c0,1.2,0.2,2.2,0.8,3.2
		c0.5,0.8,1.2,1.5,2.1,2c0.9,0.5,1.9,0.7,2.9,0.7c3.1,0,5.7-2.6,5.7-5.7C50.5,77.3,48,74.7,44.8,74.7L44.8,74.7z M46.7,82.9
		c-0.9,1.2-2.7,1.2-3.7,0.1c-0.1-0.1-0.1-0.1-0.1-0.1c-1-1.5-1-3.5,0-5c0.9-1.2,2.7-1.2,3.7-0.1c0.1,0.1,0.1,0.1,0.1,0.1
		c0.6,0.7,0.8,1.6,0.8,2.4C47.5,81.3,47.3,82.3,46.7,82.9z"/>
	<path class="st0" d="M58,74.7c-1,0-2.1,0.2-3,0.7c-0.8,0.5-1.6,1.2-2.1,2.1c-0.5,0.8-0.7,1.7-0.7,2.8c0,1.2,0.2,2.2,0.7,3.2
		c0.5,0.8,1.2,1.5,2.1,2c0.9,0.5,1.9,0.7,2.9,0.7c3.1,0,5.7-2.6,5.7-5.7C63.6,77.3,61.1,74.7,58,74.7L58,74.7L58,74.7z M59.9,82.9
		c-0.9,1.2-2.7,1.2-3.7,0.1c-0.1-0.1-0.1-0.1-0.1-0.1c-1-1.5-1-3.5,0-5c0.9-1.2,2.7-1.2,3.7-0.1c0.1,0.1,0.1,0.1,0.1,0.1
		c0.6,0.7,0.8,1.6,0.8,2.4C60.8,81.3,60.4,82.3,59.9,82.9z"/>
	<path class="st0" d="M69.9,83.8c-0.1,0-0.3-0.1-0.5-0.1c-0.1-0.1-0.2-0.2-0.2-0.3c-0.1-0.5-0.1-1-0.1-1.5v-4.4h2.1v-2.3h-2.1v-3.8
		l-3,1.7v2.2h-1.4v2.3h1.4v4.8c0,0.7,0,1.4,0.1,2.1c0.1,0.5,0.1,0.8,0.5,1.2s0.6,0.5,0.9,0.7c0.5,0.1,0.9,0.2,1.4,0.2
		c0.8,0,1.6-0.1,2.4-0.5l-0.2-2.3C70.7,83.6,70.4,83.8,69.9,83.8z"/>
	<path class="st0" d="M78.4,79.1c-0.9-0.1-1.9-0.5-2.8-0.8c-0.1-0.1-0.2-0.3-0.2-0.5c0-0.2,0.1-0.5,0.3-0.6c0.5-0.2,1.2-0.3,1.7-0.3
		c0.5,0,1,0.1,1.4,0.3c0.3,0.2,0.6,0.6,0.7,1l2.8-0.5c-0.2-0.8-0.8-1.6-1.5-2.2c-1-0.6-2.2-0.8-3.4-0.8c-1.3-0.1-2.6,0.2-3.6,0.9
		c-0.8,0.6-1.2,1.4-1.2,2.4c0,1,0.5,2,1.4,2.4c1.4,0.7,3,1.2,4.5,1.4c0.3,0.1,0.7,0.1,1,0.3c0.1,0.1,0.1,0.2,0.1,0.5
		c0,0.3-0.1,0.6-0.5,0.8c-0.5,0.3-1.2,0.5-1.7,0.5s-1.2-0.1-1.6-0.5s-0.7-0.8-0.8-1.3l-3,0.5c0.2,1,0.8,1.9,1.7,2.4
		c1.2,0.7,2.4,0.9,3.7,0.8c1.4,0.1,2.8-0.2,3.8-1.2c0.8-0.6,1.3-1.5,1.3-2.6c0-0.8-0.3-1.6-0.9-2.2C80.6,79.7,79.4,79.2,78.4,79.1z"
		/>
	<path class="st0" d="M89,83.8c-0.1,0-0.3-0.1-0.5-0.1c-0.1-0.1-0.2-0.2-0.2-0.3c-0.1-0.5-0.1-1-0.1-1.5v-4.4h2.1v-2.3h-2.1v-3.8
		l-3,1.7v2.2h-1.4v2.3h1.4v4.8c0,0.7,0,1.4,0.1,2.1c0.1,0.5,0.1,0.8,0.5,1.2s0.6,0.5,0.9,0.7c0.5,0.1,0.9,0.2,1.4,0.2
		c0.8,0,1.6-0.1,2.3-0.5l-0.2-2.3C89.8,83.6,89.4,83.8,89,83.8z"/>
	<path class="st0" d="M96.2,75.1c-0.5,0.5-0.9,0.8-1.3,1.4v-1.6h-2.8v11h3v-3.4c-0.1-1.2,0-2.4,0.2-3.7c0.1-0.5,0.3-0.8,0.7-1.2
		c0.3-0.2,0.7-0.3,1-0.3c0.5,0,1,0.1,1.4,0.5l0.9-2.6c-0.6-0.3-1.3-0.5-2-0.5C97,74.6,96.6,74.8,96.2,75.1z"/>
	<path class="st0" d="M109.7,82.3v-3.4c0.1-0.8-0.1-1.7-0.5-2.7c-0.3-0.5-0.8-0.9-1.3-1.2c-0.9-0.3-2-0.5-3-0.5
		c-1.2-0.1-2.3,0.1-3.2,0.8c-0.8,0.6-1.4,1.4-1.5,2.4l2.8,0.5c0.1-0.5,0.3-0.8,0.7-1.2c0.3-0.2,0.8-0.3,1.2-0.3
		c0.6-0.1,1.2,0.1,1.6,0.3c0.3,0.3,0.5,0.8,0.5,1.2v0.2c-0.9,0.3-1.9,0.6-2.9,0.7c-0.8,0.1-1.6,0.3-2.4,0.7c-0.5,0.2-1,0.6-1.3,1.2
		c-0.3,0.5-0.5,1.2-0.5,1.6c0,0.9,0.3,1.7,1,2.4c0.8,0.6,1.7,0.9,2.8,0.8c0.6,0,1.3-0.1,1.9-0.3c0.6-0.2,1.2-0.6,1.6-1.2
		c0,0.1,0.1,0.1,0.1,0.3c0.1,0.3,0.1,0.7,0.2,0.8h2.9c-0.2-0.5-0.5-0.9-0.5-1.4C109.8,83.8,109.7,82.9,109.7,82.3z M106.8,81.2
		c0,0.5,0,0.9-0.1,1.4c-0.1,0.3-0.3,0.7-0.7,0.9c-0.5,0.3-0.9,0.5-1.5,0.5c-0.5,0-0.8-0.1-1.2-0.5c-0.2-0.2-0.5-0.7-0.5-1
		c0-0.5,0.2-0.8,0.6-1c0.5-0.2,1-0.5,1.6-0.5c0.8-0.1,1.4-0.3,1.7-0.5V81.2z"/>
	<path class="st0" d="M122.1,76.2c-0.8-0.9-2.1-1.5-3.4-1.5c-0.7,0-1.4,0.1-2.1,0.5c-0.6,0.3-1.2,0.8-1.4,1.4V75h-2.8v15.2h3v-5.6
		c0.5,0.5,1,0.9,1.6,1.3c0.5,0.2,1.2,0.3,1.7,0.3c1.3,0,2.4-0.5,3.4-1.5c0.9-1.2,1.4-2.8,1.4-4.3C123.6,78.9,123.1,77.4,122.1,76.2z
		 M119.9,83.1c-0.5,0.5-1,0.8-1.7,0.8c-0.7,0-1.4-0.3-1.7-0.8c-0.6-0.8-0.8-1.7-0.8-2.8c-0.1-0.8,0.1-1.7,0.7-2.4
		c0.5-0.5,1.2-0.8,1.7-0.8c0.6,0,1.4,0.3,1.7,0.8c0.5,0.8,0.8,1.6,0.7,2.6C120.6,81.3,120.3,82.3,119.9,83.1z"/>
	<path class="st0" d="M75.9,56.8c-0.9-0.1-1.9-0.2-2.8-0.2h-2.6v4.1h2.9c0.7,0,1.4,0,2.1-0.1c0.5-0.1,0.8-0.2,1.2-0.6
		c0.3-0.3,0.5-0.8,0.5-1.3c0-0.5-0.1-0.8-0.3-1.2C76.6,57.1,76.3,56.9,75.9,56.8z"/>
	<path class="st0" d="M75,54c0.5,0,0.9-0.2,1.3-0.5c0.3-0.3,0.5-0.8,0.5-1.2c0-0.5-0.1-0.8-0.5-1.2c-0.3-0.3-0.8-0.5-1.2-0.5
		s-1.2-0.1-2.7-0.1h-1.7v3.5h2.1C74,54,74.7,54,75,54z"/>
	<path class="st0" d="M82.2,42.8H65.4c-2.7,0-4.8,2.1-4.8,4.8v16.8c0,2.7,2.1,4.8,4.8,4.8h16.8c2.7,0,4.8-2.1,4.8-4.8V47.6
		C86.9,44.9,84.9,42.8,82.2,42.8z M80,60.8c-0.3,0.6-0.8,1.2-1.4,1.5C78,62.8,77.2,63,76.5,63c-0.5,0.1-1.7,0.1-3.7,0.1h-5.3V48.1
		h6.1c0.9,0,1.7,0,2.8,0.1c0.6,0.1,1.2,0.3,1.6,0.6c0.5,0.3,0.8,0.8,1.2,1.3c0.3,0.5,0.5,1.2,0.5,1.7c0,0.7-0.1,1.4-0.6,2
		s-0.9,1-1.6,1.4c0.8,0.2,1.6,0.7,2.1,1.4s0.8,1.4,0.8,2.3C80.5,59.5,80.2,60.2,80,60.8L80,60.8z"/>
</g>
</svg>
