<?xml version="1.0" encoding="utf-8"?>
<!-- Generator: Adobe Illustrator 20.1.0, SVG Export Plug-In . SVG Version: 6.00 Build 0)  -->
<svg version="1.1" id="Layer_2" xmlns="http://www.w3.org/2000/svg" xmlns:xlink="http://www.w3.org/1999/xlink" x="0px" y="0px"
	 viewBox="0 0 141.7 141.7" style="enable-background:new 0 0 141.7 141.7;" xml:space="preserve">
<style type="text/css">
	.st0{fill:#FFFFFF;}
</style>
<title>Artboard 1 copy 2</title>
<g>
	<polygon class="st0" points="60.6,43.2 66,43.2 66,40.8 58.2,40.8 58.2,48.9 66,48.9 66,47 60.6,47 	"/>
	<polygon class="st0" points="83.9,43.2 83.9,40.8 75.9,40.8 75.9,45.8 81.5,45.8 81.5,47 75.9,47 75.9,48.9 83.9,48.9 83.9,44.2 
		78,44.2 78,43.2 	"/>
	<polygon class="st0" points="67,45.8 72.6,45.8 72.6,47 67,47 67,48.9 74.9,48.9 74.9,44.2 69.1,44.2 69.1,43.2 74.9,43.2 
		74.9,40.8 67,40.8 	"/>
	<path class="st0" d="M49.5,52.3l3.9,43.6l17.5,4.9l17.5-4.9l3.9-43.6C92.2,52.3,49.5,52.3,49.5,52.3z M82.8,88.4L71,91.5l-11.9-3
		l-0.8-8.3h5.5l0.2,4l7.1,1.8l6.2-1.9l0.6-7.2H64.3l-0.5-5.1h14.5l0.4-5.3H56.9l-0.5-5.1h28.7L82.8,88.4z"/>
</g>
</svg>
