<?xml version="1.0" encoding="utf-8"?>
<!-- Generator: Adobe Illustrator 20.1.0, SVG Export Plug-In . SVG Version: 6.00 Build 0)  -->
<svg version="1.1" id="Layer_2" xmlns="http://www.w3.org/2000/svg" xmlns:xlink="http://www.w3.org/1999/xlink" x="0px" y="0px"
	 viewBox="0 0 141.7 141.7" style="enable-background:new 0 0 141.7 141.7;" xml:space="preserve">
<style type="text/css">
	.st0{fill:#FFFFFF;}
</style>
<title>Artboard 1 copy</title>
<g>
	<path class="st0" d="M53.6,41h2.7v2.7h2.6V41h2.7v8.1h-2.7v-2.7h-2.6v2.7h-2.7V41z"/>
	<path class="st0" d="M65,43.5h-2.4v-2.7h7.5v2.7h-2.4V49h-2.7v-5.5H65z"/>
	<path class="st0" d="M71.3,41h2.9l1.7,2.9l1.8-2.9h2.9v8.1H78V45l-1.8,2.9H76L74.2,45v4.1h-2.7L71.3,41z"/>
	<path class="st0" d="M81.8,41h2.7v5.5h3.9v2.7h-6.5V41z"/>
	<path class="st0" d="M49.5,52.4L53.4,96l17.4,4.8L88.3,96l3.9-43.6C92.2,52.4,49.5,52.4,49.5,52.4z M83.8,66.6H63.4l0.4,5.5h19.5
		l-1.5,16.4l-11,3l0,0l-11-3L59,80h5.3l0.4,4.3l6,1.6l0,0l6-1.6l0.6-7H58.9l-1.5-16.3h26.8L83.8,66.6z"/>
</g>
</svg>
