<?xml version="1.0" encoding="utf-8"?>
<!-- Generator: Adobe Illustrator 20.1.0, SVG Export Plug-In . SVG Version: 6.00 Build 0)  -->
<svg version="1.1" id="Layer_2" xmlns="http://www.w3.org/2000/svg" xmlns:xlink="http://www.w3.org/1999/xlink" x="0px" y="0px"
	 viewBox="0 0 141.7 141.7" style="enable-background:new 0 0 141.7 141.7;" xml:space="preserve">
<style type="text/css">
	.st0{fill:#FFFFFF;}
</style>
<title>Artboard 1 copy 3</title>
<g>
	<path class="st0" d="M117.6,61.4c-1.1,0-2.1,0-3.2,0c-0.4,0-0.7,0.1-1,0.5c-1.6,2.5-3.2,4.8-4.8,7.2c-0.1,0.1-0.2,0.2-0.4,0.4
		c-0.1-0.6-0.4-1.1-0.4-1.7c-0.1-0.4-0.2-0.4-0.5-0.4c-1.1,0-2,0-3.1,0c-0.4,0-0.4,0.1-0.4,0.4c0.4,1.2,0.7,2.6,1.1,3.8
		c0.4,1.1,0.4,2,0,3.1c-0.2,0.5-0.4,1.1-0.4,1.6c0.1,0,0.1,0.1,0.2,0.1c1.1,0,2.2,0,3.3,0c0.1,0,0.4-0.2,0.4-0.4
		c0.2-0.6,0.4-1.2,0.5-2c0.1-0.4,0.4-1,0.6-1.2c2.7-3.7,5.6-7.4,8.3-11.1v-0.1C118,61.4,117.9,61.4,117.6,61.4z"/>
	<path class="st0" d="M51.1,67.3c-0.9,0-1.8,0-2.6,0c-0.4,0-0.6,0.1-0.6,0.5c-0.4,1.7-0.7,3.3-1.1,5.1c-0.4,1.2-0.5,2.5-1,3.8
		c-0.4,1.5-1.1,1.5-2.1,1.2c-0.1,0-0.1,0-0.2,0c-0.4-0.1-0.4,0-0.4,0.4c-0.2,1-0.4,1.8-0.6,2.7c-0.1,0.2,0,0.4,0.4,0.4
		s0.7,0.1,1.1,0.2c0.7,0,1.5,0,2.2,0c1.7-0.4,2.5-1.6,3.2-3.1c0.1-0.4,0.2-0.6,0.4-1c0.7-3.2,1.5-6.5,2.2-9.8
		C51.6,67.5,51.4,67.3,51.1,67.3z"/>
	<path class="st0" d="M79.8,63.5c-0.7,0-0.7,0-0.9,0.7c-0.6,2.7-1.1,5.6-1.8,8.3C77,72.9,76.9,73,76.6,73c-0.6,0-1.1,0-1.8,0
		c-1.5,0-1.9-0.5-1.7-1.9V71c0.4-2.3,1-4.6,1.4-7c0.1-0.4,0-0.4-0.4-0.4c-0.9,0-1.8,0-2.6,0c-0.4,0-0.4,0.1-0.5,0.4
		c-0.4,1.6-0.6,3.1-0.9,4.6c-0.2,1.5-0.4,2.8-0.5,4.3c0,2.1,1.1,3.2,3.1,3.3c2.1,0.1,4.3,0,6.5,0.1c0.4,0,0.4-0.1,0.4-0.4
		c0.6-3,1.2-5.9,1.9-8.9c0.2-1.1,0.5-2.3,0.7-3.5C81.5,63.5,80.6,63.5,79.8,63.5z"/>
	<path class="st0" d="M107.5,66.2c-0.1-0.4-0.2-0.9-0.4-1.2c-0.2-0.6-0.5-1.1-1.1-1.1c-0.4-0.1-0.6-0.2-1.1-0.2c-2.3,0-4.6,0-7,0
		c-0.4,0-0.5,0.1-0.5,0.5c-0.7,3.7-1.6,7.3-2.3,11C95.1,75.5,95,76,95,76.3c0.2,0,0.4,0,0.5,0c0.9,0,1.6,0,2.5,0
		c0.4,0,0.5-0.2,0.6-0.5c0.5-2.8,1.1-5.7,1.7-8.4c0.1-0.7,0.1-0.7,1-0.7c2,0,4,0,6,0C107.5,66.6,107.6,66.5,107.5,66.2z"/>
	<path class="st0" d="M49.2,63.5c-0.1,0-0.4,0.2-0.4,0.4c-0.2,0.7-0.4,1.5-0.5,2.3c-0.1,0.4,0,0.4,0.4,0.4c1,0,1.9,0,2.8,0
		c0.2,0,0.4-0.2,0.4-0.4c0.2-0.9,0.4-1.7,0.6-2.6C51.3,63.5,50.2,63.5,49.2,63.5z"/>
	<path class="st0" d="M64.7,60.4c-0.5-0.2-6.4-1.2-9.1,2.5c-1.9,2.3-2.7,5.2-2.7,8.1c0,3.3,1.8,5.3,5.2,5.3c3.1,0.1,6.1,0.1,9,0.1
		c0.4,0,0.5-0.1,0.5-0.4c0.2-0.7,0.4-1.5,0.6-2.2c0.1-0.5,0.1-0.5-0.4-0.5c-0.4,0-0.9,0-1.2,0c0.1-0.4,0.2-0.5,0.2-0.7
		c0.7-1.8,1.5-3.7,1.7-5.6C68.8,64.1,67.5,61.3,64.7,60.4z M64.3,67.8c-0.4,1.5-0.9,3.1-1.2,4.6c-0.1,0.4-0.4,0.5-0.7,0.5
		c-0.5,0-1.1,0-1.6,0l0,0c-0.5,0-1,0-1.5,0c-1.6-0.1-2.5-0.9-2.5-2.5c-0.1-1.9,0.4-3.8,1.4-5.3c1.2-2,3.6-2,4.8-1.6
		c1,0.4,1.5,1.1,1.6,2.2C64.6,66.4,64.6,67.1,64.3,67.8z"/>
	<path class="st0" d="M91.7,63.8c-1-0.2-1.9-0.2-2.7-0.2c-1.9,0.1-3.6,0.7-4.6,2.3c-1.6,2.2-2.1,4.7-2,7.5c0,1.1,0.7,2,1.9,2.5
		c0.6,0.2,1.4,0.4,2.1,0.4c2.1,0.1,4.2,0.1,6.2,0.1c0.4,0,0.5-0.1,0.5-0.4c0.1-0.6,0.4-1.1,0.4-1.8c0.1-0.5,0.1-0.5-0.4-0.5
		c-1.7,0-3.3,0-4.9,0c-0.4,0-0.9-0.1-1.1-0.2c-0.7-0.2-1.1-0.9-1.1-1.6c0-0.4,0.2-0.6,0.6-0.6c1.2,0,2.5,0,3.7,0s2.5,0,3.7,0
		c0.4,0,0.4-0.1,0.5-0.4c0.2-1.2,0.4-2.5,0.4-3.8C94.4,65.4,93.5,64.1,91.7,63.8z M91.4,68.7c0,0.1-0.4,0.2-0.5,0.2
		c-0.6,0-1.4,0-2,0l0,0c-0.6,0-1.2,0-1.9,0c-0.4,0-0.5-0.1-0.4-0.6c0.2-0.9,0.7-1.4,1.6-1.5c0.6-0.1,1.4-0.2,2-0.1
		C91.1,66.8,91.7,67.7,91.4,68.7z"/>
	<path class="st0" d="M29.3,73.7c-6.8-4.1-3.6-10.5-3.6-10.5s-5.7,7.5,2,12.6C35.6,81,40.5,73,40.5,73S35.9,77.7,29.3,73.7z"/>
	<path class="st0" d="M32.8,69.4c-5.1-3.1-2.7-7.5-2.7-7.5s-4.1,5.6,1.4,9.1c5.7,3.7,9.3-2.1,9.3-2.1S37.8,72.4,32.8,69.4z"/>
	<path class="st0" d="M34.7,66.4c3.5,2.2,5.6-1.2,5.6-1.2s-1.8,2.1-4.8,0.4c-3.1-1.8-1.6-4.6-1.6-4.6S31.4,64.1,34.7,66.4z"/>
</g>
</svg>
