<?xml version="1.0" encoding="utf-8"?>
<!-- Generator: Adobe Illustrator 20.1.0, SVG Export Plug-In . SVG Version: 6.00 Build 0)  -->
<svg version="1.1" id="Layer_2" xmlns="http://www.w3.org/2000/svg" xmlns:xlink="http://www.w3.org/1999/xlink" x="0px" y="0px"
	 viewBox="0 0 141.7 141.7" style="enable-background:new 0 0 141.7 141.7;" xml:space="preserve">
<style type="text/css">
	.st0{fill:#FFFFFF;}
</style>
<title>Artboard 1 copy 4</title>
<g>
	<path class="st0" d="M83.4,81.2c-1.8,0.6-3.8,0.1-5-1.3c-0.4-0.4-0.6-0.9-1-1.3l-3.8,2.1c0.6,1.4,1.8,2.5,3.1,3.4
		c2.6,1.5,5.9,1.8,8.7,0.8c1.4-0.4,2.6-1.4,3.4-2.8c0.6-1.1,0.9-2.3,0.8-3.5c0-1.8-0.9-3.5-2.3-4.7c-1.9-1.3-3.9-2.4-6.2-3.1
		c-2.4-1-2-3.5-0.3-4c0.6-0.1,1.1-0.1,1.6,0c0.8,0.1,1.3,0.6,1.8,1.3c0.1,0.1,0.3,0.4,0.4,0.5l3.5-2.3v-0.1c-0.6-1.3-1.8-2.4-3.3-3
		c-1.8-0.6-3.6-0.9-5.4-0.4c-2.8,0.6-4.7,3-4.5,5.7c-0.1,2.3,1,4.4,2.9,5.7c1.6,1.1,5.9,2.4,6.5,3.5C85,78.3,85.5,80.8,83.4,81.2z"
		/>
	<path class="st0" d="M61,84.9c2,0.9,4.1,0.9,6.3,0.3c1.8-0.5,3-1.9,3.5-3.5c0.4-1,0.5-2,0.4-3c0-5,0-10.2,0-15.2c0-0.1,0-0.1,0-0.3
		h-4.7v0.4c0,5,0,9.9,0,15c0,0.4,0,2.3-1,2.8c-0.9,0.5-2,0.4-2.9-0.1c-0.6-0.6-1.1-1.3-1.5-1.9l-3.8,2.3C58.2,83,59.4,84.1,61,84.9z
		"/>
	<path class="st0" d="M48.6,46.9v28.3c-0.8,0.1-1.5,0.6-2,1.1c-1.8,1.8-1.8,4.7,0,6.5l0,0c0.6,0.6,1.3,1,2,1.1v10.8h47.9V46.9H48.6z
		 M94.1,92.4H51V84c0.8-0.1,1.5-0.6,2-1.1c1.8-1.8,1.8-4.7,0-6.5l0,0c-0.6-0.6-1.3-1-2-1.1V49.3h43.1C94.1,49.3,94.1,92.4,94.1,92.4
		z"/>
</g>
</svg>
