<?xml version="1.0" encoding="utf-8"?>
<!-- Generator: Adobe Illustrator 20.1.0, SVG Export Plug-In . SVG Version: 6.00 Build 0)  -->
<svg version="1.1" id="Layer_2" xmlns="http://www.w3.org/2000/svg" xmlns:xlink="http://www.w3.org/1999/xlink" x="0px" y="0px"
	 viewBox="0 0 141.7 141.7" style="enable-background:new 0 0 141.7 141.7;" xml:space="preserve">
<style type="text/css">
	.st0{fill:#FFFFFF;}
</style>
<title>Artboard 1 copy 7</title>
<g id="php7">
	<path class="st0" d="M38.8,61.1c3.1,0,5.7,1,7.1,2.7c1.4,1.7,2,3.8,1.7,6.7c-0.3,1.3-0.7,2.7-1.3,3.8c-0.7,1.3-1.4,2.4-2.7,3.4
		c-1.3,1.3-2.7,2-4.3,2.4c-1.7,0.3-3.1,0.4-4.8,0.4h-5l-1.4,7.1h-5.5L28,61C27.7,61.1,38.8,61.1,38.8,61.1z M32.5,65.5l-2.1,11.1
		c0.3,0,1,0,1.3,0c2.7,0,5,0,6.7-0.7c1.7-0.7,2.9-2.4,3.4-5.3c0.4-2.7,0-3.8-1.7-4.5c-0.7-0.3-1.4-0.4-2.1-0.4c-1.3,0-2.4,0-3.4,0
		C33.9,65.5,32.5,65.5,32.5,65.5z"/>
	<path class="st0" d="M58.5,54l-1.4,7.1h5.3c2.9,0,5,0.7,6.4,1.4c1.4,1,2,2.9,1.4,5.7l-2.4,12.2h-5.7l2.4-11.8c0.3-1,0.3-2-0.3-2.7
		c-0.7-0.7-2-1-2.9-0.7H57l-3.1,15.3h-5.7l5-26.3h5.5V54H58.5z"/>
	<path class="st0" d="M84.9,61.1c3.1,0,5.7,1,7.1,2.7c1.4,1.7,2,3.8,1.7,6.7c-0.3,1.3-0.7,2.7-1.3,3.8c-0.7,1.3-1.4,2.4-2.7,3.4
		c-1.3,1.3-2.7,2-4.3,2.4c-1.7,0.3-3.1,0.4-4.8,0.4h-5l-1.4,7.1h-5.7L73.8,61h11.1V61.1z M79,65.5l-2.1,11.1c0.3,0,1,0,1.3,0
		c2.7,0,5,0,6.7-0.7c1.7-0.7,2.9-2.4,3.4-5.3c0.4-2.7,0-3.8-1.7-4.5c-0.7-0.3-1.4-0.4-2.1-0.4c-1.3,0-2.4,0-3.4,0
		C80.4,65.5,79,65.5,79,65.5L79,65.5z"/>
	<path class="st0" d="M95.5,58.5V54h23.7v4.5l-16.1,22.3H96l16.8-22L95.5,58.5z"/>
</g>
</svg>
