<?xml version="1.0" encoding="utf-8"?>
<!-- Generator: Adobe Illustrator 20.1.0, SVG Export Plug-In . SVG Version: 6.00 Build 0)  -->
<svg version="1.1" id="Layer_2" xmlns="http://www.w3.org/2000/svg" xmlns:xlink="http://www.w3.org/1999/xlink" x="0px" y="0px"
	 viewBox="0 0 141.7 141.7" style="enable-background:new 0 0 141.7 141.7;" xml:space="preserve">
<style type="text/css">
	.st0{fill:#FFFFFF;}
</style>
<title>Artboard 1</title>
<path class="st0" d="M39.8,79.9V59.7c0-0.1,0.1-0.3,0.1-0.4c0.1-0.1,0.2-0.1,0.4-0.1h8.1c1.6,0,3.3,0.7,4.4,1.9
	c1.2,1.2,1.9,2.8,1.9,4.7c0,1.3-0.4,2.6-1.2,3.7c-0.8,1.1-1.9,2-3.2,2.5l3.9,7.8c0.1,0.1,0.1,0.4,0,0.7c-0.1,0.1-0.3,0.3-0.5,0.3h-3
	c-0.2,0-0.4-0.1-0.4-0.2l-3.9-8.1h-3.2v7.8c0,0.3-0.2,0.6-0.5,0.6h-2.4c-0.1,0-0.3-0.1-0.4-0.1C39.9,80.3,39.8,80.1,39.8,79.9z
	 M43.6,69h4.7c0.7,0,1.5-0.3,2-0.9c0.5-0.6,0.8-1.3,0.8-2.2c0-0.8-0.3-1.6-0.8-2c-0.5-0.6-1.3-0.9-2-0.9h-4.7V69z"/>
<path class="st0" d="M57.2,59.9c0-0.1,0-0.1,0-0.2s0.1-0.2,0.1-0.3c0.1-0.1,0.3-0.2,0.4-0.2h2.6c0.1,0,0.2,0.1,0.3,0.1
	c0.1,0,0.1,0.1,0.2,0.3l3,12.1h0.1l4.5-12.6c0.1-0.2,0.3-0.3,0.5-0.3h0.4c0.2,0,0.4,0.1,0.5,0.3l4.7,12.6h0.1l2.9-12.1
	c0-0.1,0.1-0.2,0.2-0.3c0.1-0.1,0.2-0.1,0.3-0.1h2.6c0.1,0,0.4,0.1,0.4,0.2c0.1,0.1,0.1,0.2,0.1,0.3c0,0.1,0,0.1,0,0.2l-5.4,20.5
	c0,0.1-0.1,0.2-0.2,0.3c-0.1,0.1-0.2,0.1-0.3,0.1h-0.4c-0.2,0-0.4-0.1-0.5-0.3l-5.2-13.8h-0.1L64,80.5c-0.1,0.2-0.3,0.3-0.5,0.3
	h-0.4c-0.1,0-0.2-0.1-0.3-0.1c-0.1-0.1-0.1-0.1-0.2-0.3L57.2,59.9z"/>
<path class="st0" d="M84.5,79.9V59.7c0-0.1,0.1-0.3,0.1-0.4c0.1-0.1,0.2-0.1,0.4-0.1h6.8c1.4,0,2.6,0.3,3.9,0.9
	c2.4,1.1,4.3,3,5.3,5.6c0.5,1.2,0.8,2.7,0.8,4.2c0,2.8-1.1,5.5-2.9,7.6c-0.8,0.9-2,1.7-3.2,2.2s-2.5,0.9-3.9,0.9h-6.8
	c-0.1,0-0.3-0.1-0.4-0.1C84.7,80.3,84.5,80.1,84.5,79.9z M88.4,76.8h3.3c1.7,0.1,3.4-0.7,4.7-2c2.4-2.8,2.4-7.1,0-10
	c-1.2-1.3-2.9-2-4.7-2h-3.3V76.8z"/>
</svg>
