<?xml version="1.0" encoding="utf-8"?>
<!-- Generator: Adobe Illustrator 20.0.0, SVG Export Plug-In . SVG Version: 6.00 Build 0)  -->
<!DOCTYPE svg PUBLIC "-//W3C//DTD SVG 1.1//EN" "http://www.w3.org/Graphics/SVG/1.1/DTD/svg11.dtd">
<svg version="1.1" id="Layer_2" xmlns="http://www.w3.org/2000/svg" xmlns:xlink="http://www.w3.org/1999/xlink" x="0px" y="0px"
	 viewBox="0 0 141.7 141.7" style="enable-background:new 0 0 141.7 141.7;" xml:space="preserve">
<style type="text/css">
	.st0{fill:#FFFFFF;}
</style>
<title>Artboard 1 copy 7</title>
<g>
	<g>
		<path class="st0" d="M47.9,70.8c0,9,5.3,16.9,12.9,20.6L49.9,61.5C48.7,64.4,47.9,67.5,47.9,70.8z"/>
		<path class="st0" d="M86.2,69.7c0-2.8-1-4.8-1.9-6.3c-1.2-1.9-2.3-3.5-2.3-5.4c0-2.1,1.6-4,3.8-4c0.1,0,0.2,0,0.3,0
			c-4.1-3.7-9.5-6-15.5-6c-8,0-15,4.1-19.1,10.3c0.5,0,1,0,1.5,0c2.4,0,6.1-0.3,6.1-0.3c1.2-0.1,1.4,1.7,0.1,1.9
			c0,0-1.2,0.1-2.6,0.2L65,85l5-15l-3.5-9.8c-1.2-0.1-2.4-0.2-2.4-0.2c-1.2-0.1-1.1-2,0.1-1.9c0,0,3.8,0.3,6,0.3
			c2.4,0,6.1-0.3,6.1-0.3c1.2-0.1,1.4,1.7,0.1,1.9c0,0-1.2,0.1-2.6,0.2l8.2,24.6l2.3-7.6C85.5,73.9,86.2,71.6,86.2,69.7z"/>
		<path class="st0" d="M71.2,72.8l-6.8,20c2.1,0.6,4.2,0.9,6.5,0.9c2.7,0,5.2-0.5,7.6-1.3c-0.1-0.1-0.1-0.2-0.2-0.3L71.2,72.8z"/>
		<path class="st0" d="M90.9,59.9c0.1,0.7,0.2,1.5,0.2,2.4c0,2.3-0.4,4.9-1.7,8.2l-7,20.2c6.8-4,11.4-11.4,11.4-19.8
			C93.7,66.9,92.7,63.1,90.9,59.9z"/>
		<path class="st0" d="M70.8,44.1c-14.7,0-26.7,12-26.7,26.7s12,26.7,26.7,26.7s26.7-12,26.7-26.7C97.5,56.1,85.5,44.1,70.8,44.1z
			 M70.8,96.3c-14.1,0-25.5-11.4-25.5-25.4c0-14.1,11.4-25.5,25.5-25.5s25.5,11.4,25.5,25.5C96.3,84.8,84.8,96.3,70.8,96.3z"/>
	</g>
</g>
</svg>
