<?xml version="1.0" encoding="utf-8"?>
<!-- Generator: Adobe Illustrator 20.0.0, SVG Export Plug-In . SVG Version: 6.00 Build 0)  -->
<!DOCTYPE svg PUBLIC "-//W3C//DTD SVG 1.1//EN" "http://www.w3.org/Graphics/SVG/1.1/DTD/svg11.dtd">
<svg version="1.1" id="Armand_Przygodzki" xmlns="http://www.w3.org/2000/svg" xmlns:xlink="http://www.w3.org/1999/xlink" x="0px"
	 y="0px" viewBox="0 0 66.3 20.6" style="enable-background:new 0 0 66.3 20.6;" xml:space="preserve">
<style type="text/css">
	.st0{fill:#FFF;}
	.st1{fill:#0B9DD9;}
	.st2{fill:#FBFBFA;}
</style>
<g>
	<g id="logo_x5F_pl_5_">
		<g>
			<path class="st0" d="M2.5,20.3c-0.1-0.5-0.2-1-0.3-1.5c-0.1-0.5-0.2-1-0.3-1.5v0.1v0.1l-0.6,2.7H0.9l-0.8-3.7h0.5
				c0.1,0.5,0.2,1,0.3,1.5c0.1,0.5,0.2,1,0.3,1.4c0.1-0.5,0.2-1,0.3-1.4c0.1-0.5,0.2-1,0.3-1.5h0.5c0.1,0.5,0.2,1,0.3,1.4
				c0.1,0.5,0.2,0.9,0.3,1.4c0.1-0.5,0.2-1,0.3-1.4c0.1-0.5,0.2-0.9,0.3-1.4h0.4l-0.8,3.7L2.5,20.3L2.5,20.3z"/>
			<path class="st0" d="M5.3,19.4c0,0.1,0.1,0.2,0.1,0.3s0.1,0.2,0.2,0.2C5.7,20,5.8,20,5.9,20c0.1,0,0.3-0.1,0.3-0.2
				c0.1-0.1,0.1-0.2,0.2-0.4l0.4,0.1c-0.1,0.3-0.2,0.5-0.3,0.6c-0.2,0.2-0.4,0.2-0.6,0.2s-0.4,0-0.5-0.1S5.2,20,5.1,19.9
				C5,19.8,5,19.6,4.9,19.5c0-0.2,0-0.3,0-0.5c0-0.1,0-0.3,0-0.5S5,18.2,5.1,18c0.1-0.1,0.2-0.3,0.3-0.4c0.1-0.1,0.3-0.1,0.5-0.1
				s0.3,0,0.5,0.1c0.1,0.1,0.2,0.2,0.3,0.3c0.1,0.1,0.1,0.3,0.2,0.4c0,0.2,0,0.3,0,0.5V19H5.3C5.2,19.2,5.3,19.3,5.3,19.4z M5.6,18
				c-0.1,0-0.1,0.1-0.2,0.2c0,0.1-0.1,0.2-0.1,0.2c0,0.1,0,0.2,0,0.3h1.1c0-0.1,0-0.2,0-0.3s-0.1-0.2-0.1-0.3S6.2,18,6.1,17.9
				c-0.1,0-0.1-0.1-0.2-0.1C5.7,17.9,5.7,17.9,5.6,18z"/>
			<path class="st0" d="M8.9,20.3c-0.1-0.1-0.2-0.1-0.2-0.2v0.2H8.3v-3.7h0.4v1.2c0.1-0.1,0.1-0.1,0.2-0.2c0.1-0.1,0.2-0.1,0.3-0.1
				c0.2,0,0.3,0,0.4,0.1s0.2,0.2,0.3,0.3C10,18,10,18.2,10,18.3c0,0.2,0,0.3,0,0.4c0,0.1,0,0.3,0,0.5s-0.1,0.3-0.1,0.5
				c-0.1,0.1-0.2,0.3-0.3,0.4c-0.1,0.1-0.3,0.2-0.5,0.2C9.1,20.3,9,20.3,8.9,20.3z M9,18c-0.1,0.1-0.1,0.2-0.2,0.3s-0.1,0.2-0.1,0.3
				s0,0.2,0,0.3s0,0.2,0,0.3s0,0.2,0.1,0.3c0,0.1,0.1,0.2,0.2,0.3s0.2,0.1,0.3,0.1c0.1,0,0.2,0,0.3-0.1c0.1-0.1,0.1-0.2,0.2-0.3
				c0-0.1,0.1-0.2,0.1-0.3s0-0.2,0-0.3s0-0.2,0-0.3s0-0.2-0.1-0.3c0-0.1-0.1-0.2-0.2-0.3s-0.2-0.1-0.3-0.1C9.1,17.9,9,17.9,9,18z"/>
			<path class="st0" d="M15.6,20.1c-0.1-0.1-0.1-0.2-0.2-0.2c-0.1,0.1-0.2,0.2-0.3,0.3c-0.1,0.1-0.3,0.1-0.5,0.1s-0.3,0-0.4-0.1
				S14,20.1,13.9,20c-0.1-0.1-0.1-0.2-0.2-0.3c0-0.1-0.1-0.3-0.1-0.4c0-0.2,0.1-0.5,0.2-0.6c0.1-0.2,0.3-0.3,0.5-0.4
				c-0.1-0.1-0.1-0.2-0.2-0.4C14,17.8,14,17.6,14,17.5c0-0.1,0-0.2,0-0.3s0.1-0.2,0.1-0.3c0.1-0.1,0.1-0.1,0.2-0.2
				c0.1-0.1,0.2-0.1,0.3-0.1c0.1,0,0.2,0,0.3,0.1c0.1,0,0.2,0.1,0.2,0.2s0.1,0.2,0.1,0.3s0,0.2,0,0.3c0,0.2,0,0.4-0.1,0.5
				s-0.2,0.3-0.4,0.4l0.5,0.8c0-0.1,0-0.1,0.1-0.2c0-0.1,0-0.1,0-0.2l0.4,0.1c0,0.1-0.1,0.3-0.1,0.4c0,0.1-0.1,0.2-0.1,0.3
				c0.1,0.1,0.1,0.2,0.2,0.3s0.2,0.2,0.2,0.3l-0.2,0.4C15.8,20.3,15.7,20.2,15.6,20.1z M14.2,18.8c-0.1,0.1-0.1,0.3-0.1,0.4
				c0,0.1,0,0.2,0,0.2c0,0.1,0.1,0.2,0.1,0.2c0,0.1,0.1,0.1,0.2,0.2c0.1,0,0.1,0.1,0.2,0.1s0.1,0,0.2,0s0.1-0.1,0.2-0.1l0.1-0.1
				c0-0.1,0.1-0.1,0.1-0.2l-0.6-1C14.4,18.6,14.3,18.7,14.2,18.8z M14.5,17c-0.1,0.1-0.1,0.2-0.1,0.3s0,0.2,0.1,0.3s0.1,0.2,0.2,0.3
				c0.1-0.1,0.2-0.2,0.2-0.2c0.1-0.1,0.1-0.2,0.1-0.3s0-0.1,0-0.2c0-0.1,0-0.1-0.1-0.1L14.8,17h-0.1C14.6,16.9,14.6,17,14.5,17z"/>
			<path class="st0" d="M22,17.6l-0.7,2.7h-0.4l-0.8-2.8v2.8h-0.5v-3.7h0.6c0,0.1,0.1,0.3,0.1,0.5s0.1,0.4,0.1,0.6
				c0.1,0.2,0.1,0.4,0.2,0.6c0.1,0.2,0.1,0.4,0.1,0.5c0,0.2,0.1,0.3,0.1,0.4c0,0.1,0.1,0.2,0.1,0.3c0-0.1,0.1-0.2,0.1-0.3
				s0.1-0.3,0.1-0.4c0-0.2,0.1-0.3,0.1-0.5c0.1-0.2,0.1-0.4,0.2-0.6c0.1-0.2,0.1-0.4,0.2-0.6c0.1-0.2,0.1-0.3,0.1-0.5h0.6v3.7h-0.4
				v-2.7H22z"/>
			<path class="st0" d="M25,20.3c-0.2,0-0.4,0-0.5-0.1s-0.2-0.2-0.3-0.3c-0.1-0.1-0.1-0.3-0.2-0.5c0-0.2,0-0.3,0-0.5s0-0.3,0-0.5
				s0.1-0.3,0.2-0.5c0.1-0.1,0.2-0.3,0.3-0.3c0.1-0.1,0.3-0.1,0.5-0.1s0.3,0,0.5,0.1c0.1,0.1,0.2,0.2,0.3,0.3
				c0.1,0.1,0.1,0.3,0.2,0.4c0,0.2,0,0.3,0,0.5c0,0.1,0,0.2,0,0.4c0,0.1,0,0.2-0.1,0.3c0,0.1-0.1,0.2-0.1,0.3
				c-0.1,0.1-0.1,0.2-0.2,0.3C25.3,20.3,25.2,20.3,25,20.3z M24.7,18c-0.1,0.1-0.1,0.2-0.2,0.3c0,0.1-0.1,0.2-0.1,0.3s0,0.2,0,0.3
				s0,0.2,0,0.3s0,0.2,0.1,0.3c0,0.1,0.1,0.2,0.2,0.3s0.2,0.1,0.3,0.1c0.1,0,0.2,0,0.3-0.1c0.1-0.1,0.1-0.2,0.2-0.3
				c0-0.1,0.1-0.2,0.1-0.3s0-0.2,0-0.3s0-0.2,0-0.3s0-0.2-0.1-0.3c0-0.1-0.1-0.2-0.2-0.3s-0.2-0.1-0.3-0.1
				C24.9,17.9,24.8,17.9,24.7,18z"/>
			<path class="st0" d="M28.1,20.3c-0.1-0.1-0.2-0.1-0.2-0.2v0.2h-0.4v-3.7h0.4v1.2c0.1-0.1,0.1-0.1,0.2-0.2
				c0.1-0.1,0.2-0.1,0.3-0.1c0.2,0,0.3,0,0.4,0.1s0.2,0.2,0.3,0.3c0.1,0.1,0.1,0.3,0.1,0.4c0,0.2,0,0.3,0,0.4c0,0.1,0,0.3,0,0.5
				s-0.1,0.3-0.1,0.5c-0.1,0.1-0.2,0.3-0.3,0.4c-0.1,0.1-0.3,0.2-0.5,0.2C28.3,20.3,28.2,20.3,28.1,20.3z M28.2,18
				c-0.1,0.1-0.1,0.2-0.2,0.3c0,0.1-0.1,0.2-0.1,0.3s0,0.2,0,0.3s0,0.2,0,0.3s0,0.2,0.1,0.3c0,0.1,0.1,0.2,0.2,0.3s0.2,0.1,0.3,0.1
				c0.1,0,0.2,0,0.3-0.1c0.1-0.1,0.1-0.2,0.2-0.3c0-0.1,0.1-0.2,0.1-0.3s0-0.2,0-0.3s0-0.2,0-0.3s0-0.2-0.1-0.3
				c0-0.1-0.1-0.2-0.2-0.3s-0.2-0.1-0.3-0.1C28.3,17.9,28.3,17.9,28.2,18z"/>
			<path class="st0" d="M30.8,16.6h0.4v0.5h-0.4V16.6z M30.8,17.6h0.4v2.7h-0.4V17.6z"/>
			<path class="st0" d="M32.7,16.6h0.4v3.7h-0.4V16.6z"/>
			<path class="st0" d="M35.1,19.4c0,0.1,0.1,0.2,0.1,0.3s0.1,0.2,0.2,0.2c0.1,0.1,0.2,0.1,0.3,0.1c0.1,0,0.3-0.1,0.3-0.2
				c0.1-0.1,0.1-0.2,0.2-0.4l0.4,0.1c-0.1,0.3-0.2,0.5-0.3,0.6c-0.2,0.2-0.4,0.2-0.6,0.2c-0.2,0-0.4,0-0.5-0.1S35,20,34.9,19.9
				c-0.1-0.1-0.1-0.3-0.2-0.4c0-0.2,0-0.3,0-0.5c0-0.1,0-0.3,0-0.5s0.1-0.3,0.2-0.5c0.1-0.1,0.2-0.3,0.3-0.4
				c0.1-0.1,0.3-0.1,0.5-0.1s0.3,0,0.5,0.1c0.1,0.1,0.2,0.2,0.3,0.3s0.1,0.3,0.2,0.4c0,0.2,0,0.3,0,0.5V19h-1.6
				C35.1,19.2,35.1,19.3,35.1,19.4z M35.5,18c-0.1,0-0.1,0.1-0.2,0.2c0,0.1-0.1,0.2-0.1,0.2c0,0.1,0,0.2,0,0.3h1.1
				c0-0.1,0-0.2,0-0.3s-0.1-0.2-0.1-0.3S36.1,18,36,17.9c-0.1,0-0.1-0.1-0.2-0.1C35.6,17.9,35.5,17.9,35.5,18z"/>
			<path class="st0" d="M40.5,20c-0.2-0.2-0.3-0.5-0.3-0.9h0.4c0,0.3,0.1,0.5,0.2,0.6c0.1,0.1,0.3,0.2,0.6,0.2
				c0.2,0,0.4-0.1,0.5-0.2c0.1-0.1,0.2-0.3,0.2-0.5c0-0.1,0-0.2,0-0.2c0-0.1-0.1-0.1-0.1-0.2c0,0-0.1-0.1-0.2-0.1
				c-0.1,0-0.1-0.1-0.2-0.1c-0.1,0-0.1,0-0.2-0.1c-0.1,0-0.1,0-0.2-0.1c-0.1,0-0.2-0.1-0.3-0.1s-0.2-0.1-0.3-0.2
				c-0.1-0.1-0.2-0.2-0.2-0.3c-0.1-0.1-0.1-0.3-0.1-0.4c0-0.2,0-0.3,0.1-0.4c0-0.1,0.1-0.2,0.2-0.3c0.1-0.1,0.2-0.2,0.3-0.2
				s0.3-0.1,0.4-0.1c0.3,0,0.6,0.1,0.8,0.3s0.3,0.5,0.3,0.8H42c0-0.2-0.1-0.4-0.2-0.5c-0.1-0.1-0.3-0.2-0.5-0.2s-0.3,0-0.4,0.1
				c-0.1,0.1-0.2,0.2-0.2,0.4c0,0.1,0,0.2,0,0.2c0,0.1,0.1,0.1,0.1,0.2c0.1,0,0.1,0.1,0.2,0.1c0.1,0,0.1,0.1,0.2,0.1
				c0.1,0,0.1,0,0.2,0.1c0.1,0,0.1,0,0.2,0.1c0.1,0,0.2,0.1,0.3,0.1s0.2,0.1,0.3,0.2c0.1,0.1,0.2,0.2,0.2,0.3
				c0.1,0.1,0.1,0.3,0.1,0.5s0,0.3-0.1,0.4c-0.1,0.1-0.1,0.2-0.2,0.3c-0.1,0.1-0.2,0.2-0.3,0.2c-0.1,0.1-0.3,0.1-0.4,0.1
				C41,20.3,40.7,20.2,40.5,20z"/>
			<path class="st0" d="M45,20.3c-0.2,0-0.4,0-0.5-0.1s-0.2-0.2-0.3-0.3s-0.1-0.3-0.2-0.5c0-0.2,0-0.3,0-0.5s0-0.3,0-0.5
				s0.1-0.3,0.2-0.5c0.1-0.1,0.2-0.3,0.3-0.3c0.1-0.1,0.3-0.1,0.5-0.1s0.3,0,0.5,0.1c0.1,0.1,0.2,0.2,0.3,0.3s0.1,0.3,0.2,0.4
				c0,0.2,0,0.3,0,0.5c0,0.1,0,0.2,0,0.4c0,0.1,0,0.2-0.1,0.3c0,0.1-0.1,0.2-0.1,0.3c-0.1,0.1-0.1,0.2-0.2,0.3
				C45.3,20.3,45.1,20.3,45,20.3z M44.7,18c-0.1,0.1-0.1,0.2-0.2,0.3c0,0.1-0.1,0.2-0.1,0.3s0,0.2,0,0.3s0,0.2,0,0.3s0,0.2,0.1,0.3
				c0,0.1,0.1,0.2,0.2,0.3c0.1,0.1,0.2,0.1,0.3,0.1s0.2,0,0.3-0.1s0.1-0.2,0.2-0.3c0-0.1,0.1-0.2,0.1-0.3s0-0.2,0-0.3s0-0.2,0-0.3
				s0-0.2-0.1-0.3c0-0.1-0.1-0.2-0.2-0.3c-0.1-0.1-0.2-0.1-0.3-0.1C44.8,17.9,44.7,17.9,44.7,18z"/>
			<path class="st0" d="M47.5,16.6h0.4v3.7h-0.4V16.6z"/>
			<path class="st0" d="M50.8,20c-0.1,0.1-0.2,0.2-0.3,0.2s-0.2,0.1-0.4,0.1c-0.1,0-0.1,0-0.2,0c-0.1,0-0.1,0-0.2-0.1
				c-0.1-0.1-0.2-0.1-0.2-0.2c-0.1-0.1-0.1-0.2-0.1-0.2c0-0.1,0-0.2,0-0.3s0-0.2,0-0.3v-1.7h0.4V19c0,0.1,0,0.2,0,0.3s0,0.2,0,0.3
				s0.1,0.2,0.1,0.2c0.1,0.1,0.1,0.1,0.2,0.1c0.1,0,0.2,0,0.3-0.1s0.1-0.1,0.2-0.2c0-0.1,0.1-0.2,0.1-0.3s0-0.2,0-0.3v-1.5h0.4v2.7
				h-0.4L50.8,20L50.8,20z"/>
			<path class="st0" d="M53.2,20.2c-0.1-0.1-0.1-0.1-0.1-0.2c0-0.1,0-0.2,0-0.3s0-0.2,0-0.3v-1.5h-0.3v-0.3h0.3V17h0.4v0.6h0.4v0.3
				h-0.4v1.6v0.1v0.1c0,0,0,0,0,0.1h0.1h0.1h0.1l0.1,0.4c-0.1,0-0.1,0-0.2,0h-0.1C53.4,20.3,53.3,20.3,53.2,20.2z"/>
			<path class="st0" d="M55.4,16.6h0.4v0.5h-0.4V16.6z M55.4,17.6h0.4v2.7h-0.4V17.6z"/>
			<path class="st0" d="M58.3,20.3c-0.2,0-0.4,0-0.5-0.1s-0.2-0.2-0.3-0.3s-0.1-0.3-0.2-0.5c0-0.2,0-0.3,0-0.5s0-0.3,0-0.5
				s0.1-0.3,0.2-0.5c0.1-0.1,0.2-0.3,0.3-0.3c0.1-0.1,0.3-0.1,0.5-0.1s0.3,0,0.5,0.1c0.1,0.1,0.2,0.2,0.3,0.3s0.1,0.3,0.2,0.4
				c0,0.2,0,0.3,0,0.5c0,0.1,0,0.2,0,0.4c0,0.1,0,0.2-0.1,0.3c0,0.1-0.1,0.2-0.1,0.3C59,19.9,59,20,58.9,20.1
				C58.7,20.3,58.5,20.3,58.3,20.3z M58,18c-0.1,0.1-0.1,0.2-0.2,0.3c0,0.1-0.1,0.2-0.1,0.3s0,0.2,0,0.3s0,0.2,0,0.3s0,0.2,0.1,0.3
				c0,0.1,0.1,0.2,0.2,0.3c0.1,0.1,0.2,0.1,0.3,0.1s0.2,0,0.3-0.1s0.1-0.2,0.2-0.3c0-0.1,0.1-0.2,0.1-0.3s0-0.2,0-0.3s0-0.2,0-0.3
				s0-0.2-0.1-0.3c0-0.1-0.1-0.2-0.2-0.3c-0.1-0.1-0.2-0.1-0.3-0.1C58.2,17.9,58.1,17.9,58,18z"/>
			<path class="st0" d="M62.2,18.6c0-0.1,0-0.2,0-0.2c0-0.1,0-0.2-0.1-0.2c0-0.1-0.1-0.1-0.1-0.2c-0.1,0-0.1-0.1-0.2-0.1
				c-0.1,0-0.2,0-0.3,0.1s-0.1,0.1-0.2,0.2c0,0.1-0.1,0.2-0.1,0.3s0,0.2,0,0.3v1.5h-0.4v-2.7h0.4v0.3c0.1-0.1,0.2-0.2,0.3-0.2
				c0.1-0.1,0.2-0.1,0.4-0.1s0.3,0,0.4,0.1c0.1,0.1,0.2,0.1,0.2,0.3c0.1,0.1,0.1,0.2,0.1,0.3s0,0.3,0,0.4v1.7h-0.4L62.2,18.6
				L62.2,18.6z"/>
			<path class="st0" d="M64.5,20.1c-0.1-0.1-0.2-0.3-0.3-0.6l0.4-0.1c0,0.2,0.1,0.3,0.2,0.4c0.1,0.1,0.2,0.1,0.4,0.1
				c0.1,0,0.2,0,0.3-0.1s0.1-0.2,0.1-0.3s0-0.1,0-0.2l-0.1-0.1l-0.1-0.1c0,0-0.1,0-0.1-0.1h-0.1h-0.1c-0.1,0-0.2-0.1-0.2-0.1
				c-0.1,0-0.2-0.1-0.2-0.1c-0.1-0.1-0.1-0.1-0.2-0.2c0-0.1-0.1-0.2-0.1-0.3s0-0.2,0.1-0.3c0-0.1,0.1-0.2,0.2-0.2
				c0.1-0.1,0.1-0.1,0.2-0.2c0.1,0,0.2-0.1,0.3-0.1c0.2,0,0.4,0.1,0.6,0.2c0.1,0.1,0.2,0.3,0.3,0.6l-0.4,0.1c0-0.3-0.2-0.4-0.4-0.4
				c-0.1,0-0.2,0-0.3,0.1s-0.1,0.1-0.1,0.3c0,0.1,0,0.1,0,0.2l0.1,0.1l0.1,0.1c0,0,0.1,0,0.1,0.1h0.1h0.1c0.1,0,0.2,0.1,0.2,0.1
				c0.1,0,0.2,0.1,0.2,0.1c0.1,0.1,0.1,0.1,0.2,0.2c0,0.1,0.1,0.2,0.1,0.3s0,0.2-0.1,0.3c0,0.1-0.1,0.2-0.2,0.3
				c-0.1,0.1-0.2,0.1-0.3,0.2c-0.1,0-0.2,0.1-0.3,0.1C64.8,20.3,64.6,20.3,64.5,20.1z"/>
		</g>
	</g>
	<g id="logo_x5F_pl_1_">
		<rect class="st1" width="12.1" height="13"/>
		<g>
			<path class="st2" d="M7.9,9.8H6.8L6.6,8.5H5.2L5,9.8H4l1.1-7h1.6L7.9,9.8z M5.4,7.6h1.1L6,4L5.4,7.6z"/>
		</g>
		<rect x="13.5" class="st1" width="12.1" height="13"/>
		<g>
			<path class="st2" d="M17.9,2.8h1.7c1.1,0,1.6,0.6,1.6,1.7v3.6c0,1.1-0.5,1.7-1.6,1.7h-1.7V2.8z M19,3.8v5h0.6
				c0.4,0,0.6-0.2,0.6-0.7V4.4c0-0.5-0.2-0.7-0.6-0.7L19,3.8L19,3.8z"/>
		</g>
		<rect x="27.1" class="st1" width="12.1" height="13"/>
		<g>
			<path class="st2" d="M33.2,8.6L34,2.9h1l-1.1,7h-1.6l-1.1-7h1.1L33.2,8.6z"/>
		</g>
		<rect x="40.6" class="st1" width="12.1" height="13"/>
		<g>
			<path class="st2" d="M45,4.5c0-1.1,0.6-1.8,1.7-1.8s1.7,0.6,1.7,1.8v3.7c0,1.1-0.6,1.8-1.7,1.8S45,9.4,45,8.2V4.5z M46.1,8.2
				c0,0.5,0.2,0.7,0.6,0.7s0.6-0.2,0.6-0.7V4.4c0-0.5-0.2-0.7-0.6-0.7s-0.6,0.2-0.6,0.7V8.2z"/>
		</g>
		<rect x="54.2" class="st1" width="12.1" height="13"/>
		<g>
			<path class="st2" d="M62.3,2.8l-1.2,3.4l1.2,3.6h-1.2L60.2,7l-0.9,2.8h-1l1.2-3.6l-1.2-3.4h1.1l0.8,2.6l0.9-2.6
				C61.1,2.8,62.3,2.8,62.3,2.8z"/>
		</g>
	</g>
</g>
</svg>
