<?xml version="1.0" encoding="utf-8"?>
<!-- Generator: Adobe Illustrator 20.0.0, SVG Export Plug-In . SVG Version: 6.00 Build 0)  -->
<!DOCTYPE svg PUBLIC "-//W3C//DTD SVG 1.1//EN" "http://www.w3.org/Graphics/SVG/1.1/DTD/svg11.dtd">
<svg version="1.1" id="ADVOX_STUDIO" xmlns="http://www.w3.org/2000/svg" xmlns:xlink="http://www.w3.org/1999/xlink" x="0px"
	 y="0px" viewBox="0 0 340.7 69.7" style="enable-background:new 0 0 340.7 69.7;" xml:space="preserve">
<style type="text/css">
	.st0{fill:#FDFDFD;}
</style>
<g>
	<g id="logo_x5F_pl_5_">
		<g>
			<path class="st0" d="M12.9,49.7c-0.5-2.6-1.1-5.1-1.6-7.7c-0.5-2.5-1.1-5.1-1.7-7.7c0,0.2-0.1,0.4-0.1,0.6c0,0.2-0.1,0.4-0.1,0.6
				L6.2,49.7H4L0,30.8h2.3c0.5,2.5,0.9,5,1.4,7.5c0.5,2.5,0.9,4.9,1.3,7.4c0.5-2.5,1-4.9,1.6-7.4c0.6-2.4,1.1-5,1.7-7.5h2.6
				c0.6,2.5,1.1,4.9,1.7,7.4c0.6,2.4,1,4.9,1.4,7.3c0.4-2.5,0.9-4.9,1.4-7.3c0.5-2.4,1-4.9,1.5-7.4h2.3L15,49.7H12.9z"/>
			<path class="st0" d="M27.3,44.9c0.1,0.6,0.3,1.1,0.5,1.5c0.2,0.5,0.5,0.8,0.9,1.1c0.4,0.3,0.8,0.5,1.4,0.5c0.8,0,1.3-0.3,1.7-0.8
				c0.4-0.5,0.7-1.2,1-1.9l2.1,0.3c-0.3,1.3-0.9,2.4-1.6,3.2c-0.8,0.8-1.8,1.2-3.1,1.2c-1,0-1.8-0.2-2.5-0.7c-0.7-0.4-1.2-1-1.6-1.7
				c-0.4-0.7-0.7-1.5-0.8-2.3c-0.2-0.8-0.2-1.6-0.2-2.4c0-0.8,0.1-1.6,0.2-2.4c0.2-0.9,0.4-1.7,0.8-2.4c0.4-0.7,0.9-1.3,1.6-1.8
				c0.7-0.5,1.5-0.7,2.5-0.7c1,0,1.8,0.2,2.4,0.7c0.6,0.5,1.1,1,1.5,1.7c0.4,0.7,0.6,1.5,0.8,2.3c0.2,0.8,0.2,1.6,0.2,2.4v0.8h-8
				C27.1,43.9,27.2,44.4,27.3,44.9z M28.9,37.8c-0.4,0.2-0.6,0.6-0.9,1c-0.2,0.4-0.4,0.8-0.5,1.3c-0.1,0.5-0.2,0.9-0.2,1.4h5.7
				c0-0.4-0.1-0.9-0.2-1.4c-0.1-0.5-0.3-0.9-0.5-1.3c-0.2-0.4-0.5-0.7-0.8-1c-0.3-0.2-0.8-0.4-1.2-0.4
				C29.7,37.4,29.2,37.5,28.9,37.8z"/>
			<path class="st0" d="M46.1,49.6c-0.5-0.3-0.8-0.6-1.1-1.1v1.2h-2V30.8h2.1v6.1c0.3-0.4,0.7-0.7,1.2-1c0.4-0.3,0.9-0.4,1.5-0.4
				c0.9,0,1.7,0.2,2.3,0.7c0.6,0.5,1.1,1.1,1.4,1.8c0.4,0.7,0.6,1.5,0.7,2.3c0.1,0.8,0.2,1.6,0.2,2.3c0,0.7-0.1,1.5-0.2,2.3
				c-0.1,0.9-0.4,1.7-0.7,2.4c-0.4,0.8-0.8,1.4-1.5,1.9c-0.6,0.5-1.4,0.8-2.3,0.8C47.1,50,46.6,49.8,46.1,49.6z M46.3,37.9
				c-0.4,0.4-0.6,0.8-0.8,1.4c-0.2,0.5-0.3,1.1-0.4,1.7C45,41.6,45,42.2,45,42.6c0,0.4,0,1,0.1,1.6c0,0.6,0.2,1.2,0.3,1.8
				c0.2,0.6,0.4,1.1,0.8,1.5c0.4,0.4,0.8,0.6,1.5,0.6c0.6,0,1-0.2,1.4-0.6c0.4-0.4,0.6-0.8,0.8-1.4c0.2-0.6,0.3-1.1,0.4-1.8
				c0.1-0.6,0.1-1.2,0.1-1.6c0-0.4,0-0.9-0.1-1.5c-0.1-0.6-0.2-1.2-0.4-1.7c-0.2-0.6-0.5-1-0.8-1.4c-0.4-0.4-0.8-0.6-1.4-0.6
				C47.1,37.4,46.7,37.6,46.3,37.9z"/>
			<path class="st0" d="M80.4,48.8c-0.4-0.4-0.7-0.8-1-1.2c-0.5,0.7-1.1,1.2-1.8,1.7C77,49.8,76.2,50,75.2,50c-0.8,0-1.5-0.2-2-0.5
				c-0.6-0.3-1.1-0.7-1.5-1.2c-0.4-0.5-0.7-1.1-0.9-1.8c-0.2-0.7-0.3-1.3-0.3-2c0-1.3,0.3-2.3,1-3.2c0.6-0.9,1.5-1.7,2.4-2.3
				c-0.4-0.6-0.8-1.2-1.1-1.9c-0.3-0.7-0.5-1.4-0.5-2.1c0-0.5,0.1-1,0.2-1.6c0.2-0.5,0.4-1,0.7-1.4c0.3-0.4,0.7-0.8,1.2-1
				c0.5-0.3,1-0.4,1.6-0.4c0.6,0,1.1,0.1,1.5,0.4c0.4,0.2,0.8,0.6,1.1,0.9s0.5,0.8,0.7,1.3c0.2,0.5,0.2,1,0.2,1.5
				c0,1-0.3,1.9-0.8,2.6c-0.5,0.7-1.1,1.4-1.9,1.9l2.4,3.9c0.1-0.3,0.2-0.6,0.3-0.9c0.1-0.3,0.1-0.7,0.2-1.1l2.1,0.5
				c-0.1,0.7-0.3,1.4-0.5,2c-0.2,0.6-0.4,1.2-0.7,1.8c0.3,0.5,0.6,1,1,1.4c0.4,0.5,0.8,0.9,1.3,1.4L81.7,50
				C81.2,49.6,80.8,49.2,80.4,48.8z M73.3,42.3c-0.4,0.6-0.7,1.3-0.7,2.1c0,0.4,0.1,0.8,0.2,1.2c0.1,0.4,0.3,0.8,0.5,1.1
				c0.2,0.3,0.5,0.6,0.8,0.8c0.3,0.2,0.7,0.3,1.1,0.3c0.3,0,0.6-0.1,0.9-0.2c0.3-0.1,0.5-0.3,0.8-0.5c0.2-0.2,0.5-0.5,0.7-0.7
				c0.2-0.3,0.4-0.5,0.5-0.8l-3.2-5C74.3,41.1,73.7,41.7,73.3,42.3z M74.8,33c-0.3,0.4-0.4,0.9-0.4,1.4c0,0.5,0.2,1.1,0.5,1.6
				c0.3,0.5,0.6,1,1,1.4c0.5-0.4,0.9-0.8,1.2-1.3c0.3-0.4,0.4-1,0.4-1.6c0-0.3,0-0.5-0.1-0.8c-0.1-0.3-0.2-0.5-0.3-0.7
				c-0.1-0.2-0.3-0.4-0.5-0.5c-0.2-0.1-0.4-0.2-0.7-0.2C75.4,32.4,75,32.6,74.8,33z"/>
			<path class="st0" d="M113,35.8l-3.8,13.9h-2.1l-3.9-14.4v14.4H101V30.8h3.2c0.2,0.8,0.4,1.6,0.7,2.5c0.2,0.9,0.5,1.9,0.8,2.8
				c0.3,1,0.5,1.9,0.8,2.9c0.3,1,0.5,1.9,0.7,2.7c0.2,0.8,0.4,1.6,0.6,2.3c0.2,0.7,0.3,1.2,0.4,1.6c0.1-0.4,0.3-0.9,0.5-1.6
				c0.2-0.7,0.4-1.4,0.6-2.3c0.2-0.8,0.5-1.8,0.8-2.7c0.3-1,0.5-1.9,0.8-2.9c0.3-1,0.5-1.9,0.8-2.8c0.3-0.9,0.5-1.8,0.7-2.5h2.9
				v18.9H113V35.8z"/>
			<path class="st0" d="M128.5,50c-1,0-1.8-0.2-2.5-0.7c-0.7-0.5-1.2-1-1.6-1.8c-0.4-0.7-0.7-1.5-0.8-2.3c-0.2-0.9-0.2-1.7-0.2-2.4
				c0-0.8,0.1-1.6,0.2-2.4c0.2-0.9,0.4-1.6,0.8-2.3c0.4-0.7,0.9-1.3,1.6-1.8c0.7-0.5,1.5-0.7,2.5-0.7c1,0,1.8,0.2,2.4,0.7
				c0.7,0.4,1.2,1,1.6,1.7c0.4,0.7,0.7,1.5,0.8,2.3c0.2,0.8,0.2,1.6,0.2,2.4c0,0.6,0,1.2-0.1,1.8c-0.1,0.6-0.2,1.2-0.3,1.8
				c-0.2,0.6-0.4,1.1-0.7,1.6c-0.3,0.5-0.7,1-1.3,1.3C130.3,49.7,129.4,50,128.5,50z M127,37.9c-0.4,0.4-0.7,0.8-0.9,1.4
				c-0.2,0.5-0.4,1.1-0.5,1.7c-0.1,0.6-0.1,1.2-0.1,1.7c0,0.5,0,1.1,0.1,1.7c0.1,0.6,0.2,1.2,0.5,1.7c0.2,0.5,0.5,1,0.9,1.4
				c0.4,0.4,0.9,0.5,1.5,0.5c0.6,0,1.1-0.2,1.5-0.6c0.4-0.4,0.7-0.8,0.9-1.4c0.2-0.5,0.4-1.1,0.4-1.8c0.1-0.6,0.1-1.2,0.1-1.7
				c0-0.5,0-1.1-0.1-1.7c-0.1-0.6-0.2-1.2-0.5-1.7c-0.2-0.5-0.5-1-0.9-1.3c-0.4-0.4-0.9-0.5-1.5-0.5C127.9,37.4,127.4,37.6,127,37.9
				z"/>
			<path class="st0" d="M144.7,49.6c-0.5-0.3-0.8-0.6-1.1-1.1v1.2h-2V30.8h2.1v6.1c0.3-0.4,0.7-0.7,1.2-1c0.4-0.3,0.9-0.4,1.5-0.4
				c0.9,0,1.7,0.2,2.3,0.7c0.6,0.5,1.1,1.1,1.4,1.8c0.4,0.7,0.6,1.5,0.7,2.3c0.1,0.8,0.2,1.6,0.2,2.3c0,0.7-0.1,1.5-0.2,2.3
				c-0.1,0.9-0.4,1.7-0.7,2.4c-0.4,0.8-0.8,1.4-1.5,1.9c-0.6,0.5-1.4,0.8-2.3,0.8C145.7,50,145.2,49.8,144.7,49.6z M145,37.9
				c-0.4,0.4-0.6,0.8-0.8,1.4c-0.2,0.5-0.3,1.1-0.4,1.7c-0.1,0.6-0.1,1.1-0.1,1.6c0,0.4,0,1,0.1,1.6c0,0.6,0.2,1.2,0.3,1.8
				c0.2,0.6,0.4,1.1,0.8,1.5c0.4,0.4,0.8,0.6,1.5,0.6c0.6,0,1-0.2,1.4-0.6c0.4-0.4,0.6-0.8,0.8-1.4c0.2-0.6,0.3-1.1,0.4-1.8
				c0.1-0.6,0.1-1.2,0.1-1.6c0-0.4,0-0.9-0.1-1.5c-0.1-0.6-0.2-1.2-0.4-1.7c-0.2-0.6-0.5-1-0.8-1.4c-0.4-0.4-0.8-0.6-1.4-0.6
				C145.8,37.4,145.3,37.6,145,37.9z"/>
			<path class="st0" d="M158.4,30.8h2.1v2.5h-2.1V30.8z M158.4,35.8h2.1v13.9h-2.1V35.8z"/>
			<path class="st0" d="M168.2,30.8h2.1v18.9h-2.1V30.8z"/>
			<path class="st0" d="M180.7,44.9c0.1,0.6,0.3,1.1,0.5,1.5c0.2,0.5,0.5,0.8,0.9,1.1c0.4,0.3,0.8,0.5,1.4,0.5
				c0.8,0,1.3-0.3,1.7-0.8c0.4-0.5,0.7-1.2,1-1.9l2.1,0.3c-0.3,1.3-0.9,2.4-1.6,3.2c-0.8,0.8-1.8,1.2-3.1,1.2c-1,0-1.8-0.2-2.5-0.7
				c-0.7-0.4-1.2-1-1.6-1.7c-0.4-0.7-0.7-1.5-0.8-2.3c-0.2-0.8-0.2-1.6-0.2-2.4c0-0.8,0.1-1.6,0.2-2.4c0.2-0.9,0.4-1.7,0.8-2.4
				c0.4-0.7,0.9-1.3,1.6-1.8c0.7-0.5,1.5-0.7,2.5-0.7c1,0,1.8,0.2,2.4,0.7c0.6,0.5,1.1,1,1.5,1.7c0.4,0.7,0.6,1.5,0.8,2.3
				c0.2,0.8,0.2,1.6,0.2,2.4v0.8h-8C180.5,43.9,180.6,44.4,180.7,44.9z M182.3,37.8c-0.4,0.2-0.6,0.6-0.9,1
				c-0.2,0.4-0.4,0.8-0.5,1.3c-0.1,0.5-0.2,0.9-0.2,1.4h5.7c0-0.4-0.1-0.9-0.2-1.4c-0.1-0.5-0.3-0.9-0.5-1.3c-0.2-0.4-0.5-0.7-0.8-1
				c-0.3-0.2-0.8-0.4-1.2-0.4C183,37.4,182.6,37.5,182.3,37.8z"/>
			<path class="st0" d="M208.3,48.4c-1.1-1.1-1.7-2.6-1.7-4.7l2-0.2c0.1,1.4,0.5,2.4,1.2,3.2c0.7,0.7,1.7,1.1,3,1.1
				c1,0,1.8-0.3,2.5-0.8c0.7-0.5,1-1.3,1-2.4c0-0.5-0.1-0.9-0.2-1.2c-0.1-0.3-0.3-0.6-0.6-0.9c-0.2-0.2-0.5-0.4-0.9-0.6
				c-0.3-0.2-0.7-0.3-1.1-0.5c-0.3-0.1-0.6-0.2-0.8-0.3c-0.3-0.1-0.6-0.2-0.8-0.3c-0.6-0.2-1.1-0.4-1.7-0.6
				c-0.6-0.2-1.1-0.5-1.5-0.9c-0.5-0.4-0.8-0.9-1.1-1.5c-0.3-0.6-0.4-1.3-0.4-2.2c0-0.8,0.1-1.5,0.4-2.1c0.2-0.6,0.6-1.2,1.1-1.7
				c0.5-0.5,1-0.8,1.6-1.1c0.6-0.2,1.3-0.4,2.1-0.4c1.6,0,3,0.5,4,1.4c1,1,1.5,2.3,1.6,4.1l-2.1,0.2c-0.1-1.2-0.4-2.1-1-2.7
				c-0.5-0.6-1.3-0.9-2.4-0.9c-0.9,0-1.7,0.2-2.3,0.7c-0.6,0.4-0.9,1.1-0.9,2.1c0,0.4,0.1,0.8,0.2,1.1c0.2,0.3,0.4,0.6,0.6,0.8
				c0.3,0.2,0.6,0.4,0.9,0.5c0.3,0.1,0.7,0.3,1,0.4c0.3,0.1,0.5,0.2,0.8,0.3c0.3,0.1,0.6,0.2,0.9,0.3c0.6,0.2,1.2,0.4,1.7,0.7
				c0.6,0.2,1.1,0.6,1.5,1c0.4,0.4,0.8,0.9,1.1,1.5c0.3,0.6,0.4,1.4,0.4,2.3c0,0.8-0.1,1.6-0.4,2.2c-0.3,0.7-0.6,1.3-1.1,1.8
				c-0.5,0.5-1.1,0.9-1.7,1.2c-0.7,0.3-1.4,0.4-2.2,0.4C210.9,50,209.4,49.5,208.3,48.4z"/>
			<path class="st0" d="M231.1,50c-1,0-1.8-0.2-2.5-0.7c-0.7-0.5-1.2-1-1.6-1.8c-0.4-0.7-0.7-1.5-0.8-2.3c-0.2-0.9-0.2-1.7-0.2-2.4
				c0-0.8,0.1-1.6,0.2-2.4c0.2-0.9,0.4-1.6,0.8-2.3c0.4-0.7,0.9-1.3,1.6-1.8c0.7-0.5,1.5-0.7,2.5-0.7c1,0,1.8,0.2,2.4,0.7
				c0.7,0.4,1.2,1,1.6,1.7c0.4,0.7,0.7,1.5,0.8,2.3c0.2,0.8,0.2,1.6,0.2,2.4c0,0.6,0,1.2-0.1,1.8c-0.1,0.6-0.2,1.2-0.3,1.8
				c-0.2,0.6-0.4,1.1-0.7,1.6c-0.3,0.5-0.7,1-1.3,1.3C232.9,49.7,232,50,231.1,50z M229.6,37.9c-0.4,0.4-0.7,0.8-0.9,1.4
				c-0.2,0.5-0.4,1.1-0.5,1.7c-0.1,0.6-0.1,1.2-0.1,1.7c0,0.5,0,1.1,0.1,1.7c0.1,0.6,0.2,1.2,0.5,1.7c0.2,0.5,0.5,1,0.9,1.4
				c0.4,0.4,0.9,0.5,1.5,0.5c0.6,0,1.1-0.2,1.5-0.6c0.4-0.4,0.7-0.8,0.9-1.4c0.2-0.5,0.4-1.1,0.4-1.8c0.1-0.6,0.1-1.2,0.1-1.7
				c0-0.5,0-1.1-0.1-1.7c-0.1-0.6-0.2-1.2-0.5-1.7c-0.2-0.5-0.5-1-0.9-1.3c-0.4-0.4-0.9-0.5-1.5-0.5C230.5,37.4,230,37.6,229.6,37.9
				z"/>
			<path class="st0" d="M244.3,30.8h2.1v18.9h-2.1V30.8z"/>
			<path class="st0" d="M261.1,48.3c-0.4,0.5-0.8,0.9-1.3,1.2c-0.5,0.3-1.1,0.5-1.8,0.5c-0.3,0-0.6,0-0.9-0.1
				c-0.3-0.1-0.6-0.2-0.9-0.4c-0.5-0.3-0.8-0.6-1.1-1c-0.3-0.4-0.5-0.8-0.6-1.2c-0.1-0.4-0.2-0.9-0.2-1.4c0-0.5,0-0.9,0-1.4v-8.8
				h2.1v7.9c0,0.4,0,0.8,0,1.3c0,0.5,0.1,1,0.2,1.4c0.1,0.4,0.3,0.8,0.6,1.1c0.3,0.3,0.7,0.5,1.3,0.5c0.6,0,1-0.1,1.4-0.4
				c0.3-0.3,0.6-0.7,0.8-1.1c0.2-0.4,0.3-0.9,0.4-1.5c0.1-0.5,0.1-1,0.1-1.5v-7.7h2.1v13.9h-2V48.3z"/>
			<path class="st0" d="M273.4,49.4c-0.4-0.3-0.6-0.6-0.8-1.1c-0.2-0.4-0.2-0.9-0.2-1.4c0-0.5,0-1,0-1.5v-7.8h-1.3v-1.8h1.3v-3.2
				l2.1-0.1v3.3h1.8v1.7h-1.8v8.4c0,0.2,0,0.4,0,0.6c0,0.2,0,0.4,0.1,0.6c0.1,0.1,0.1,0.3,0.2,0.3c0.1,0.1,0.3,0.1,0.5,0.1
				c0.1,0,0.3,0,0.4,0c0.1,0,0.3-0.1,0.6-0.1l0.3,2.2c-0.3,0.1-0.6,0.1-0.8,0.2c-0.2,0-0.5,0.1-0.7,0.1
				C274.3,49.8,273.8,49.7,273.4,49.4z"/>
			<path class="st0" d="M284.4,30.8h2.1v2.5h-2.1V30.8z M284.4,35.8h2.1v13.9h-2.1V35.8z"/>
			<path class="st0" d="M299.7,50c-1,0-1.8-0.2-2.5-0.7c-0.7-0.5-1.2-1-1.6-1.8c-0.4-0.7-0.7-1.5-0.8-2.3c-0.2-0.9-0.2-1.7-0.2-2.4
				c0-0.8,0.1-1.6,0.2-2.4c0.2-0.9,0.4-1.6,0.8-2.3c0.4-0.7,0.9-1.3,1.6-1.8c0.7-0.5,1.5-0.7,2.5-0.7c1,0,1.8,0.2,2.4,0.7
				c0.7,0.4,1.2,1,1.6,1.7c0.4,0.7,0.7,1.5,0.8,2.3c0.2,0.8,0.2,1.6,0.2,2.4c0,0.6,0,1.2-0.1,1.8c-0.1,0.6-0.2,1.2-0.3,1.8
				c-0.2,0.6-0.4,1.1-0.7,1.6c-0.3,0.5-0.7,1-1.3,1.3C301.6,49.7,300.7,50,299.7,50z M298.3,37.9c-0.4,0.4-0.7,0.8-0.9,1.4
				c-0.2,0.5-0.4,1.1-0.5,1.7c-0.1,0.6-0.1,1.2-0.1,1.7c0,0.5,0,1.1,0.1,1.7c0.1,0.6,0.2,1.2,0.5,1.7c0.2,0.5,0.5,1,0.9,1.4
				c0.4,0.4,0.9,0.5,1.5,0.5c0.6,0,1.1-0.2,1.5-0.6c0.4-0.4,0.7-0.8,0.9-1.4c0.2-0.5,0.4-1.1,0.4-1.8c0.1-0.6,0.1-1.2,0.1-1.7
				c0-0.5,0-1.1-0.1-1.7c-0.1-0.6-0.2-1.2-0.5-1.7c-0.2-0.5-0.5-1-0.9-1.3c-0.4-0.4-0.9-0.5-1.5-0.5
				C299.1,37.4,298.6,37.6,298.3,37.9z"/>
			<path class="st0" d="M319.7,41c0-0.4,0-0.8-0.1-1.2c0-0.4-0.1-0.8-0.3-1.1c-0.1-0.3-0.3-0.6-0.6-0.8c-0.3-0.2-0.6-0.3-1.1-0.3
				c-0.6,0-1,0.1-1.4,0.4c-0.3,0.3-0.6,0.6-0.8,1.1c-0.2,0.4-0.3,0.9-0.4,1.4c-0.1,0.5-0.1,1-0.1,1.5v7.8h-2.1V35.8h1.9v1.4
				c0.4-0.5,0.8-0.9,1.3-1.2c0.5-0.3,1.1-0.5,1.9-0.5c0.8,0,1.5,0.2,2,0.5c0.5,0.3,0.9,0.8,1.2,1.3c0.3,0.5,0.4,1.1,0.5,1.8
				c0.1,0.7,0.1,1.3,0.1,1.9v8.7h-2.1V41z"/>
			<path class="st0" d="M331.2,48.9c-0.7-0.7-1.2-1.8-1.4-3.2l2-0.4c0.1,0.9,0.4,1.6,0.8,2.1c0.4,0.5,1,0.7,1.8,0.7
				c0.7,0,1.3-0.2,1.7-0.6c0.4-0.4,0.6-0.9,0.6-1.6c0-0.3-0.1-0.6-0.2-0.8c-0.1-0.2-0.3-0.4-0.4-0.5c-0.2-0.1-0.4-0.3-0.6-0.4
				c-0.2-0.1-0.5-0.2-0.7-0.3c-0.2-0.1-0.4-0.1-0.6-0.2c-0.2-0.1-0.4-0.1-0.6-0.2c-0.4-0.1-0.8-0.3-1.2-0.5
				c-0.4-0.2-0.8-0.4-1.1-0.7c-0.3-0.3-0.6-0.7-0.8-1.1c-0.2-0.4-0.3-1-0.3-1.7c0-0.6,0.1-1.1,0.3-1.6c0.2-0.5,0.5-0.9,0.8-1.3
				c0.3-0.4,0.8-0.6,1.2-0.8c0.5-0.2,1-0.3,1.6-0.3c1.3,0,2.2,0.3,2.9,0.9c0.7,0.6,1.1,1.6,1.3,2.9l-2,0.3c-0.2-1.5-0.9-2.2-2.2-2.2
				c-0.6,0-1.1,0.1-1.5,0.4c-0.4,0.3-0.6,0.8-0.6,1.4c0,0.3,0.1,0.6,0.2,0.8c0.1,0.2,0.3,0.4,0.5,0.5c0.2,0.1,0.4,0.3,0.6,0.4
				c0.2,0.1,0.5,0.2,0.7,0.3c0.2,0.1,0.4,0.1,0.6,0.2c0.2,0.1,0.4,0.1,0.6,0.2c0.4,0.1,0.9,0.3,1.3,0.5c0.4,0.2,0.8,0.4,1.1,0.7
				c0.3,0.3,0.6,0.7,0.8,1.1c0.2,0.5,0.3,1,0.3,1.7c0,0.6-0.1,1.2-0.3,1.8c-0.2,0.5-0.5,1-0.9,1.4c-0.4,0.4-0.8,0.7-1.4,0.9
				c-0.5,0.2-1.1,0.3-1.8,0.3C333,50,331.9,49.6,331.2,48.9z"/>
		</g>
	</g>
</g>
</svg>
