<?xml version="1.0" encoding="utf-8"?>
<!-- Generator: Adobe Illustrator 20.0.0, SVG Export Plug-In . SVG Version: 6.00 Build 0)  -->
<!DOCTYPE svg PUBLIC "-//W3C//DTD SVG 1.1//EN" "http://www.w3.org/Graphics/SVG/1.1/DTD/svg11.dtd">
<svg version="1.1" id="ADVOX_STUDIO" xmlns="http://www.w3.org/2000/svg" xmlns:xlink="http://www.w3.org/1999/xlink" x="0px"
	 y="0px" viewBox="0 0 147 43" style="enable-background:new 0 0 147 43;" xml:space="preserve">
<style type="text/css">
	.st0{fill:#FFFFFF;}
	.st1{fill:#0B9DD9;}
	.st2{fill:#FBFBFA;}
	.st3{fill:#FFF;}
</style>
<rect class="st0" width="147" height="29"/>
<g>
	<g>
		<g id="logo_x5F_pl_1_">
			<rect x="0.4" y="0.4" class="st1" width="26.9" height="28.7"/>
			<g>
				<path class="st2" d="M18,22.3h-2.5l-0.4-2.8h-3l-0.4,2.8H9.5l2.4-15.5h3.6L18,22.3z M12.4,17.3h2.3l-1.2-7.8L12.4,17.3z"/>
			</g>
			<rect x="30.3" y="0.4" class="st1" width="26.9" height="28.7"/>
			<g>
				<path class="st2" d="M40.1,6.7H44c2.4,0,3.7,1.3,3.7,3.9v7.8c0,2.5-1.2,3.9-3.7,3.9h-3.9V6.7z M42.5,8.9V20h1.4
					c0.8,0,1.3-0.4,1.3-1.5v-8.1c0-1.1-0.5-1.5-1.3-1.5C43.9,8.9,42.5,8.9,42.5,8.9z"/>
			</g>
			<rect x="60.3" y="0.4" class="st1" width="26.9" height="28.7"/>
			<g>
				<path class="st2" d="M73.8,19.4l1.8-12.7h2.2l-2.3,15.5h-3.7L69.4,6.7h2.5L73.8,19.4z"/>
			</g>
			<rect x="90.2" y="0.4" class="st1" width="26.9" height="28.7"/>
			<g>
				<path class="st2" d="M99.9,10.4c0-2.5,1.3-3.9,3.7-3.9s3.7,1.4,3.7,3.9v8.1c0,2.5-1.3,3.9-3.7,3.9s-3.7-1.4-3.7-3.9V10.4z
					 M102.3,18.7c0,1.1,0.5,1.6,1.3,1.6c0.8,0,1.3-0.4,1.3-1.6v-8.4c0-1.1-0.5-1.6-1.3-1.6c-0.8,0-1.3,0.4-1.3,1.6V18.7z"/>
			</g>
			<rect x="120.2" y="0.4" class="st1" width="26.9" height="28.7"/>
			<g>
				<path class="st2" d="M138.2,6.7l-2.6,7.6l2.7,8h-2.6l-2-6.2l-2,6.1h-2.3l2.7-8l-2.5-7.5h2.5l1.8,5.7l1.9-5.7
					C135.9,6.7,138.2,6.7,138.2,6.7z"/>
			</g>
		</g>
	</g>
	<g>
		<g id="logo_x5F_pl_5_">
			<g>
				<path class="st3" d="M6.6,41.7c-0.2-1.1-0.5-2.2-0.7-3.3c-0.2-1.1-0.5-2.2-0.7-3.3c0,0.1,0,0.2,0,0.3s0,0.2,0,0.3l-1.4,6.1H2.8
					l-1.7-8.1h1c0.2,1.1,0.4,2.1,0.6,3.2s0.4,2.1,0.6,3.2c0.2-1.1,0.4-2.1,0.7-3.2c0.3-1,0.5-2.1,0.7-3.2h1.1
					c0.3,1.1,0.5,2.1,0.7,3.2c0.3,1,0.4,2.1,0.6,3.1c0.2-1.1,0.4-2.1,0.6-3.1c0.2-1,0.4-2.1,0.6-3.2h1l-1.8,8.1H6.6z"/>
				<path class="st3" d="M12.8,39.6c0,0.3,0.1,0.5,0.2,0.6c0.1,0.2,0.2,0.3,0.4,0.5c0.2,0.1,0.3,0.2,0.6,0.2c0.3,0,0.6-0.1,0.7-0.3
					c0.2-0.2,0.3-0.5,0.4-0.8l0.9,0.1c-0.1,0.6-0.4,1-0.7,1.4c-0.3,0.3-0.8,0.5-1.3,0.5c-0.4,0-0.8-0.1-1.1-0.3
					c-0.3-0.2-0.5-0.4-0.7-0.7s-0.3-0.6-0.3-1c-0.1-0.3-0.1-0.7-0.1-1c0-0.3,0-0.7,0.1-1c0.1-0.4,0.2-0.7,0.3-1
					c0.2-0.3,0.4-0.6,0.7-0.8c0.3-0.2,0.6-0.3,1.1-0.3c0.4,0,0.8,0.1,1,0.3c0.3,0.2,0.5,0.4,0.6,0.7s0.3,0.6,0.3,1s0.1,0.7,0.1,1V39
					h-3.4C12.7,39.2,12.8,39.4,12.8,39.6z M13.5,36.6c-0.2,0.1-0.3,0.3-0.4,0.4c-0.1,0.2-0.2,0.3-0.2,0.6c0,0.2-0.1,0.4-0.1,0.6h2.4
					c0-0.2,0-0.4-0.1-0.6c0-0.2-0.1-0.4-0.2-0.6c-0.1-0.2-0.2-0.3-0.3-0.4c-0.1-0.1-0.3-0.2-0.5-0.2C13.9,36.4,13.6,36.4,13.5,36.6z
					"/>
				<path class="st3" d="M20.9,41.6c-0.2-0.1-0.3-0.3-0.5-0.5v0.5h-0.9v-8.1h0.9v2.6c0.1-0.2,0.3-0.3,0.5-0.4
					c0.2-0.1,0.4-0.2,0.6-0.2c0.4,0,0.7,0.1,1,0.3c0.3,0.2,0.5,0.5,0.6,0.8c0.2,0.3,0.3,0.6,0.3,1c0,0.3,0.1,0.7,0.1,1s0,0.6-0.1,1
					c0,0.4-0.2,0.7-0.3,1c-0.2,0.3-0.3,0.6-0.6,0.8c-0.3,0.2-0.6,0.3-1,0.3C21.3,41.8,21.1,41.7,20.9,41.6z M21,36.6
					c-0.2,0.2-0.3,0.3-0.3,0.6c-0.1,0.2-0.1,0.5-0.2,0.7c0,0.3,0,0.5,0,0.7s0,0.4,0,0.7c0,0.3,0.1,0.5,0.1,0.8
					c0.1,0.3,0.2,0.5,0.3,0.6c0.2,0.2,0.3,0.3,0.6,0.3c0.3,0,0.4-0.1,0.6-0.3c0.2-0.2,0.3-0.3,0.3-0.6c0.1-0.3,0.1-0.5,0.2-0.8
					c0-0.3,0-0.5,0-0.7s0-0.4,0-0.6c0-0.3-0.1-0.5-0.2-0.7c-0.1-0.3-0.2-0.4-0.3-0.6c-0.2-0.2-0.3-0.3-0.6-0.3
					C21.3,36.4,21.2,36.5,21,36.6z"/>
				<path class="st3" d="M35.6,41.3c-0.2-0.2-0.3-0.3-0.4-0.5c-0.2,0.3-0.5,0.5-0.8,0.7c-0.3,0.2-0.6,0.3-1,0.3
					c-0.3,0-0.6-0.1-0.9-0.2c-0.3-0.1-0.5-0.3-0.6-0.5s-0.3-0.5-0.4-0.8c-0.1-0.3-0.1-0.6-0.1-0.9c0-0.6,0.1-1,0.4-1.4
					c0.3-0.4,0.6-0.7,1-1c-0.2-0.3-0.3-0.5-0.5-0.8s-0.2-0.6-0.2-0.9c0-0.2,0-0.4,0.1-0.7c0.1-0.2,0.2-0.4,0.3-0.6
					c0.1-0.2,0.3-0.3,0.5-0.4c0.2-0.1,0.4-0.2,0.7-0.2c0.3,0,0.5,0,0.6,0.2c0.2,0.1,0.3,0.3,0.5,0.4c0.1,0.1,0.2,0.3,0.3,0.6
					c0.1,0.2,0.1,0.4,0.1,0.6c0,0.4-0.1,0.8-0.3,1.1c-0.2,0.3-0.5,0.6-0.8,0.8l1,1.7c0-0.1,0.1-0.3,0.1-0.4s0-0.3,0.1-0.5l0.9,0.2
					c0,0.3-0.1,0.6-0.2,0.9s-0.2,0.5-0.3,0.8c0.1,0.2,0.3,0.4,0.4,0.6c0.2,0.2,0.3,0.4,0.6,0.6l-0.5,0.8
					C36,41.6,35.8,41.5,35.6,41.3z M32.6,38.5c-0.2,0.3-0.3,0.6-0.3,0.9c0,0.2,0,0.3,0.1,0.5c0,0.2,0.1,0.3,0.2,0.5
					c0.1,0.1,0.2,0.3,0.3,0.3c0.1,0.1,0.3,0.1,0.5,0.1c0.1,0,0.3,0,0.4-0.1c0.1,0,0.2-0.1,0.3-0.2c0.1-0.1,0.2-0.2,0.3-0.3
					c0.1-0.1,0.2-0.2,0.2-0.3l-1.4-2.1C33,38,32.8,38.3,32.6,38.5z M33.2,34.5c-0.1,0.2-0.2,0.4-0.2,0.6c0,0.2,0.1,0.5,0.2,0.7
					c0.1,0.2,0.3,0.4,0.4,0.6c0.2-0.2,0.4-0.3,0.5-0.6c0.1-0.2,0.2-0.4,0.2-0.7c0-0.1,0-0.2,0-0.3s-0.1-0.2-0.1-0.3
					c0-0.1-0.1-0.2-0.2-0.2c-0.1,0-0.2-0.1-0.3-0.1C33.5,34.3,33.3,34.3,33.2,34.5z"/>
				<path class="st3" d="M49.6,35.7l-1.6,6h-0.9l-1.7-6.2v6.2h-0.9v-8.1h1.4c0.1,0.3,0.2,0.7,0.3,1.1c0.1,0.4,0.2,0.8,0.3,1.2
					c0.1,0.4,0.2,0.8,0.3,1.2s0.2,0.8,0.3,1.2c0.1,0.3,0.2,0.7,0.3,1s0.1,0.5,0.2,0.7c0-0.2,0.1-0.4,0.2-0.7c0.1-0.3,0.2-0.6,0.3-1
					c0.1-0.3,0.2-0.8,0.3-1.2c0.1-0.4,0.2-0.8,0.3-1.2c0.1-0.4,0.2-0.8,0.3-1.2c0.1-0.4,0.2-0.8,0.3-1.1h1.2v8.1h-1V35.7z"/>
				<path class="st3" d="M56.3,41.8c-0.4,0-0.8-0.1-1.1-0.3c-0.3-0.2-0.5-0.4-0.7-0.8c-0.2-0.3-0.3-0.6-0.3-1
					c-0.1-0.4-0.1-0.7-0.1-1c0-0.3,0-0.7,0.1-1c0.1-0.4,0.2-0.7,0.3-1s0.4-0.6,0.7-0.8c0.3-0.2,0.6-0.3,1.1-0.3s0.8,0.1,1,0.3
					c0.3,0.2,0.5,0.4,0.7,0.7c0.2,0.3,0.3,0.6,0.3,1c0.1,0.3,0.1,0.7,0.1,1c0,0.3,0,0.5,0,0.8c0,0.3-0.1,0.5-0.1,0.8
					c-0.1,0.3-0.2,0.5-0.3,0.7c-0.1,0.2-0.3,0.4-0.6,0.6C57.1,41.7,56.7,41.8,56.3,41.8z M55.7,36.6c-0.2,0.2-0.3,0.3-0.4,0.6
					c-0.1,0.2-0.2,0.5-0.2,0.7c0,0.3,0,0.5,0,0.7c0,0.2,0,0.5,0,0.7c0,0.3,0.1,0.5,0.2,0.7c0.1,0.2,0.2,0.4,0.4,0.6
					c0.2,0.2,0.4,0.2,0.6,0.2c0.3,0,0.5-0.1,0.6-0.3c0.2-0.2,0.3-0.3,0.4-0.6c0.1-0.2,0.2-0.5,0.2-0.8c0-0.3,0-0.5,0-0.7
					c0-0.2,0-0.5,0-0.7s-0.1-0.5-0.2-0.7c-0.1-0.2-0.2-0.4-0.4-0.6c-0.2-0.2-0.4-0.2-0.6-0.2C56,36.4,55.8,36.5,55.7,36.6z"/>
				<path class="st3" d="M63.3,41.6c-0.2-0.1-0.3-0.3-0.5-0.5v0.5h-0.9v-8.1h0.9v2.6c0.1-0.2,0.3-0.3,0.5-0.4
					c0.2-0.1,0.4-0.2,0.6-0.2c0.4,0,0.7,0.1,1,0.3c0.3,0.2,0.5,0.5,0.6,0.8c0.2,0.3,0.3,0.6,0.3,1c0,0.3,0.1,0.7,0.1,1s0,0.6-0.1,1
					c0,0.4-0.2,0.7-0.3,1c-0.2,0.3-0.3,0.6-0.6,0.8c-0.3,0.2-0.6,0.3-1,0.3C63.7,41.8,63.5,41.7,63.3,41.6z M63.4,36.6
					c-0.2,0.2-0.3,0.3-0.3,0.6c-0.1,0.2-0.1,0.5-0.2,0.7c0,0.3,0,0.5,0,0.7c0,0.2,0,0.4,0,0.7c0,0.3,0.1,0.5,0.1,0.8
					c0.1,0.3,0.2,0.5,0.3,0.6c0.2,0.2,0.3,0.3,0.6,0.3c0.3,0,0.4-0.1,0.6-0.3s0.3-0.3,0.3-0.6s0.1-0.5,0.2-0.8c0-0.3,0-0.5,0-0.7
					s0-0.4,0-0.6c0-0.3-0.1-0.5-0.2-0.7c-0.1-0.3-0.2-0.4-0.3-0.6c-0.2-0.2-0.3-0.3-0.6-0.3C63.7,36.4,63.5,36.5,63.4,36.6z"/>
				<path class="st3" d="M69.1,33.6H70v1.1h-0.9V33.6z M69.1,35.7H70v6h-0.9V35.7z"/>
				<path class="st3" d="M73.3,33.6h0.9v8.1h-0.9V33.6z"/>
				<path class="st3" d="M78.7,39.6c0,0.3,0.1,0.5,0.2,0.6c0.1,0.2,0.2,0.3,0.4,0.5s0.3,0.2,0.6,0.2c0.3,0,0.6-0.1,0.7-0.3
					c0.2-0.2,0.3-0.5,0.4-0.8l0.9,0.1c-0.1,0.6-0.4,1-0.7,1.4c-0.3,0.3-0.8,0.5-1.3,0.5c-0.4,0-0.8-0.1-1.1-0.3
					c-0.3-0.2-0.5-0.4-0.7-0.7c-0.2-0.3-0.3-0.6-0.3-1c-0.1-0.3-0.1-0.7-0.1-1c0-0.3,0-0.7,0.1-1c0.1-0.4,0.2-0.7,0.3-1
					c0.2-0.3,0.4-0.6,0.7-0.8c0.3-0.2,0.6-0.3,1.1-0.3c0.4,0,0.8,0.1,1,0.3c0.3,0.2,0.5,0.4,0.6,0.7c0.2,0.3,0.3,0.6,0.3,1
					s0.1,0.7,0.1,1V39h-3.4C78.6,39.2,78.7,39.4,78.7,39.6z M79.4,36.6c-0.2,0.1-0.3,0.3-0.4,0.4c-0.1,0.2-0.2,0.3-0.2,0.6
					c0,0.2-0.1,0.4-0.1,0.6h2.4c0-0.2,0-0.4-0.1-0.6c0-0.2-0.1-0.4-0.2-0.6s-0.2-0.3-0.3-0.4c-0.1-0.1-0.3-0.2-0.5-0.2
					C79.7,36.4,79.5,36.4,79.4,36.6z"/>
				<path class="st3" d="M90.6,41.1c-0.5-0.5-0.7-1.1-0.7-2l0.9-0.1c0,0.6,0.2,1,0.5,1.4c0.3,0.3,0.7,0.5,1.3,0.5
					c0.4,0,0.8-0.1,1.1-0.3c0.3-0.2,0.4-0.6,0.4-1c0-0.2,0-0.4-0.1-0.5s-0.1-0.3-0.3-0.4c-0.1-0.1-0.2-0.2-0.4-0.3
					c-0.1-0.1-0.3-0.1-0.5-0.2c-0.1,0-0.3-0.1-0.3-0.1c-0.1,0-0.3-0.1-0.3-0.1c-0.3-0.1-0.5-0.2-0.7-0.3c-0.3-0.1-0.5-0.2-0.6-0.4
					c-0.2-0.2-0.3-0.4-0.5-0.6c-0.1-0.3-0.2-0.6-0.2-0.9c0-0.3,0-0.6,0.2-0.9c0.1-0.3,0.3-0.5,0.5-0.7c0.2-0.2,0.4-0.3,0.7-0.5
					c0.3-0.1,0.6-0.2,0.9-0.2c0.7,0,1.3,0.2,1.7,0.6c0.4,0.4,0.6,1,0.7,1.8l-0.9,0.1c0-0.5-0.2-0.9-0.4-1.2c-0.2-0.3-0.6-0.4-1-0.4
					c-0.4,0-0.7,0.1-1,0.3C91.1,34.7,91,35,91,35.5c0,0.2,0,0.3,0.1,0.5c0.1,0.1,0.2,0.3,0.3,0.3c0.1,0.1,0.3,0.2,0.4,0.2
					c0.1,0,0.3,0.1,0.4,0.2c0.1,0,0.2,0.1,0.3,0.1s0.3,0.1,0.4,0.1c0.3,0.1,0.5,0.2,0.7,0.3c0.3,0.1,0.5,0.3,0.6,0.4
					c0.2,0.2,0.3,0.4,0.5,0.6c0.1,0.3,0.2,0.6,0.2,1c0,0.3,0,0.7-0.2,0.9c-0.1,0.3-0.3,0.6-0.5,0.8c-0.2,0.2-0.5,0.4-0.7,0.5
					c-0.3,0.1-0.6,0.2-0.9,0.2C91.7,41.8,91,41.6,90.6,41.1z"/>
				<path class="st3" d="M100.4,41.8c-0.4,0-0.8-0.1-1.1-0.3c-0.3-0.2-0.5-0.4-0.7-0.8c-0.2-0.3-0.3-0.6-0.3-1
					c-0.1-0.4-0.1-0.7-0.1-1c0-0.3,0-0.7,0.1-1c0.1-0.4,0.2-0.7,0.3-1c0.2-0.3,0.4-0.6,0.7-0.8c0.3-0.2,0.6-0.3,1.1-0.3
					c0.4,0,0.8,0.1,1,0.3c0.3,0.2,0.5,0.4,0.7,0.7c0.2,0.3,0.3,0.6,0.3,1c0.1,0.3,0.1,0.7,0.1,1c0,0.3,0,0.5,0,0.8
					c0,0.3-0.1,0.5-0.1,0.8c-0.1,0.3-0.2,0.5-0.3,0.7c-0.1,0.2-0.3,0.4-0.6,0.6C101.1,41.7,100.8,41.8,100.4,41.8z M99.7,36.6
					c-0.2,0.2-0.3,0.3-0.4,0.6c-0.1,0.2-0.2,0.5-0.2,0.7c0,0.3,0,0.5,0,0.7c0,0.2,0,0.5,0,0.7c0,0.3,0.1,0.5,0.2,0.7
					c0.1,0.2,0.2,0.4,0.4,0.6c0.2,0.2,0.4,0.2,0.6,0.2c0.3,0,0.5-0.1,0.6-0.3c0.2-0.2,0.3-0.3,0.4-0.6c0.1-0.2,0.2-0.5,0.2-0.8
					c0-0.3,0-0.5,0-0.7c0-0.2,0-0.5,0-0.7c0-0.3-0.1-0.5-0.2-0.7c-0.1-0.2-0.2-0.4-0.4-0.6c-0.2-0.2-0.4-0.2-0.6-0.2
					C100.1,36.4,99.9,36.5,99.7,36.6z"/>
				<path class="st3" d="M106,33.6h0.9v8.1H106V33.6z"/>
				<path class="st3" d="M113.3,41.1c-0.2,0.2-0.3,0.4-0.6,0.5c-0.2,0.1-0.5,0.2-0.8,0.2c-0.1,0-0.3,0-0.4,0s-0.3-0.1-0.4-0.2
					c-0.2-0.1-0.3-0.3-0.5-0.4c-0.1-0.2-0.2-0.3-0.3-0.5c0-0.2-0.1-0.4-0.1-0.6s0-0.4,0-0.6v-3.8h0.9v3.4c0,0.2,0,0.3,0,0.6
					c0,0.2,0,0.4,0.1,0.6c0,0.2,0.1,0.3,0.3,0.5c0.1,0.1,0.3,0.2,0.6,0.2c0.3,0,0.4,0,0.6-0.2c0.1-0.1,0.3-0.3,0.3-0.5
					c0.1-0.2,0.1-0.4,0.2-0.6c0-0.2,0-0.4,0-0.6v-3.3h0.9v6h-0.9L113.3,41.1L113.3,41.1z"/>
				<path class="st3" d="M118.5,41.6c-0.2-0.1-0.3-0.3-0.3-0.5c-0.1-0.2-0.1-0.4-0.1-0.6c0-0.2,0-0.4,0-0.6v-3.4h-0.6v-0.8h0.6v-1.4
					l0.9,0v1.4h0.8v0.7H119v3.6c0,0.1,0,0.2,0,0.3c0,0.1,0,0.2,0,0.3c0,0,0,0.1,0.1,0.1c0,0,0.1,0,0.2,0c0,0,0.1,0,0.2,0
					c0,0,0.1,0,0.3,0l0.1,0.9c-0.1,0-0.3,0-0.3,0.1c-0.1,0-0.2,0-0.3,0C118.9,41.7,118.7,41.7,118.5,41.6z"/>
				<path class="st3" d="M123.3,33.6h0.9v1.1h-0.9V33.6z M123.3,35.7h0.9v6h-0.9V35.7z"/>
				<path class="st3" d="M129.8,41.8c-0.4,0-0.8-0.1-1.1-0.3c-0.3-0.2-0.5-0.4-0.7-0.8c-0.2-0.3-0.3-0.6-0.3-1
					c-0.1-0.4-0.1-0.7-0.1-1c0-0.3,0-0.7,0.1-1c0.1-0.4,0.2-0.7,0.3-1s0.4-0.6,0.7-0.8s0.6-0.3,1.1-0.3s0.8,0.1,1,0.3
					c0.3,0.2,0.5,0.4,0.7,0.7s0.3,0.6,0.3,1c0.1,0.3,0.1,0.7,0.1,1c0,0.3,0,0.5,0,0.8c0,0.3-0.1,0.5-0.1,0.8
					c-0.1,0.3-0.2,0.5-0.3,0.7c-0.1,0.2-0.3,0.4-0.6,0.6C130.7,41.7,130.3,41.8,129.8,41.8z M129.2,36.6c-0.2,0.2-0.3,0.3-0.4,0.6
					c-0.1,0.2-0.2,0.5-0.2,0.7c0,0.3,0,0.5,0,0.7c0,0.2,0,0.5,0,0.7c0,0.3,0.1,0.5,0.2,0.7c0.1,0.2,0.2,0.4,0.4,0.6
					c0.2,0.2,0.4,0.2,0.6,0.2c0.3,0,0.5-0.1,0.6-0.3c0.2-0.2,0.3-0.3,0.4-0.6c0.1-0.2,0.2-0.5,0.2-0.8c0-0.3,0-0.5,0-0.7
					c0-0.2,0-0.5,0-0.7s-0.1-0.5-0.2-0.7c-0.1-0.2-0.2-0.4-0.4-0.6c-0.2-0.2-0.4-0.2-0.6-0.2C129.6,36.4,129.4,36.5,129.2,36.6z"/>
				<path class="st3" d="M138.4,38c0-0.2,0-0.3,0-0.5c0-0.2,0-0.3-0.1-0.5c0-0.1-0.1-0.3-0.3-0.3c-0.1-0.1-0.3-0.1-0.5-0.1
					c-0.3,0-0.4,0-0.6,0.2c-0.1,0.1-0.3,0.3-0.3,0.5c-0.1,0.2-0.1,0.4-0.2,0.6c0,0.2,0,0.4,0,0.6v3.4h-0.9v-6h0.8v0.6
					c0.2-0.2,0.3-0.4,0.6-0.5c0.2-0.1,0.5-0.2,0.8-0.2c0.3,0,0.6,0.1,0.9,0.2s0.4,0.3,0.5,0.6c0.1,0.2,0.2,0.5,0.2,0.8
					c0,0.3,0,0.6,0,0.8v3.7h-0.9L138.4,38L138.4,38z"/>
				<path class="st3" d="M143.4,41.3c-0.3-0.3-0.5-0.8-0.6-1.4l0.9-0.2c0,0.4,0.2,0.7,0.3,0.9c0.2,0.2,0.4,0.3,0.8,0.3
					c0.3,0,0.6-0.1,0.7-0.3c0.2-0.2,0.3-0.4,0.3-0.7c0-0.1,0-0.3-0.1-0.3c0-0.1-0.1-0.2-0.2-0.2c-0.1,0-0.2-0.1-0.3-0.2
					c-0.1,0-0.2-0.1-0.3-0.1c-0.1,0-0.2,0-0.3-0.1c-0.1,0-0.2,0-0.3-0.1c-0.2,0-0.3-0.1-0.5-0.2c-0.2-0.1-0.3-0.2-0.5-0.3
					c-0.1-0.1-0.3-0.3-0.3-0.5c-0.1-0.2-0.1-0.4-0.1-0.7c0-0.3,0-0.5,0.1-0.7c0.1-0.2,0.2-0.4,0.3-0.6s0.3-0.3,0.5-0.3
					c0.2-0.1,0.4-0.1,0.7-0.1c0.6,0,0.9,0.1,1.2,0.4c0.3,0.3,0.5,0.7,0.6,1.2l-0.9,0.1c-0.1-0.6-0.4-0.9-0.9-0.9
					c-0.3,0-0.5,0-0.6,0.2c-0.2,0.1-0.3,0.3-0.3,0.6c0,0.1,0,0.3,0.1,0.3c0,0.1,0.1,0.2,0.2,0.2c0.1,0,0.2,0.1,0.3,0.2
					c0.1,0,0.2,0.1,0.3,0.1c0.1,0,0.2,0,0.3,0.1c0.1,0,0.2,0,0.3,0.1c0.2,0,0.4,0.1,0.6,0.2c0.2,0.1,0.3,0.2,0.5,0.3
					c0.1,0.1,0.3,0.3,0.3,0.5c0.1,0.2,0.1,0.4,0.1,0.7c0,0.3,0,0.5-0.1,0.8c-0.1,0.2-0.2,0.4-0.4,0.6c-0.2,0.2-0.3,0.3-0.6,0.4
					c-0.2,0.1-0.5,0.1-0.8,0.1C144.1,41.8,143.7,41.6,143.4,41.3z"/>
			</g>
		</g>
	</g>
</g>
</svg>
