<?xml version="1.0" encoding="utf-8"?>
<!-- Generator: Adobe Illustrator 20.0.0, SVG Export Plug-In . SVG Version: 6.00 Build 0)  -->
<!DOCTYPE svg PUBLIC "-//W3C//DTD SVG 1.1//EN" "http://www.w3.org/Graphics/SVG/1.1/DTD/svg11.dtd">
<svg version="1.1" id="ADVOX_STUDIO" xmlns="http://www.w3.org/2000/svg" xmlns:xlink="http://www.w3.org/1999/xlink" x="0px"
	 y="0px" viewBox="0 0 348.8 69.7" style="enable-background:new 0 0 348.8 69.7;" xml:space="preserve">
<style type="text/css">
	.st0{fill-rule:evenodd;clip-rule:evenodd;fill:#0B9DD9;}
	.st1{fill:#FBFBFA;}
</style>
<g>
	<g id="logo_x5F_pl_1_">
		<rect class="st0" width="64" height="68.5"/>
		<g>
			<path class="st1" d="M42,52h-5.9l-1-6.7h-7.1l-1,6.7h-5.3L27.5,15h8.5L42,52z M28.7,40.3h5.6l-2.8-18.7L28.7,40.3z"/>
		</g>
		<rect x="71.2" class="st0" width="64" height="68.5"/>
		<g>
			<path class="st1" d="M94.6,15h9.2c5.8,0,8.7,3.2,8.7,9.2v18.7c0,5.9-2.9,9.2-8.7,9.2h-9.2V15z M100.4,20.2v26.5h3.3
				c1.9,0,3-1,3-3.6V23.8c0-2.6-1.1-3.6-3-3.6H100.4z"/>
		</g>
		<rect x="142.7" class="st0" width="64" height="68.5"/>
		<g>
			<path class="st1" d="M174.8,45.2l4.4-30.2h5.3L178.9,52h-8.7L164.5,15h5.9L174.8,45.2z"/>
		</g>
		<rect x="214.1" class="st0" width="64" height="68.5"/>
		<g>
			<path class="st1" d="M237,23.8c0-5.9,3.1-9.3,8.8-9.3c5.7,0,8.8,3.4,8.8,9.3v19.3c0,5.9-3.1,9.3-8.8,9.3c-5.7,0-8.8-3.4-8.8-9.3
				V23.8z M242.8,43.5c0,2.6,1.2,3.7,3,3.7s3-1,3-3.7v-20c0-2.6-1.2-3.7-3-3.7s-3,1-3,3.7V43.5z"/>
		</g>
		<rect x="285.6" class="st0" width="64" height="68.5"/>
		<g>
			<path class="st1" d="M328.3,15l-6.1,18l6.5,19.1h-6.1l-4.8-14.7L313,52h-5.5l6.5-19.1L308,15h6l4.4,13.7l4.5-13.7H328.3z"/>
		</g>
	</g>
</g>
</svg>
