<?xml version="1.0" encoding="utf-8"?>
<!-- Generator: Adobe Illustrator 20.0.0, SVG Export Plug-In . SVG Version: 6.00 Build 0)  -->
<!DOCTYPE svg PUBLIC "-//W3C//DTD SVG 1.1//EN" "http://www.w3.org/Graphics/SVG/1.1/DTD/svg11.dtd">
<svg version="1.1" id="ADVOX_STUDIO" xmlns="http://www.w3.org/2000/svg" xmlns:xlink="http://www.w3.org/1999/xlink" x="0px"
	 y="0px" viewBox="0 0 764.1 217.9" style="enable-background:new 0 0 764.1 217.9;" xml:space="preserve">
<style type="text/css">
	.st0{fill:#FFFFFF;}
	.st1{fill:#0B9DD9;}
	.st2{fill:#FBFBFA;}
</style>
<g id="logo_x5F_pl_1_">
	<g>
		<path class="st0" d="M28.9,217.2c-1.2-5.8-2.5-11.5-3.7-17.2s-2.5-11.5-3.8-17.2c-0.1,0.4-0.2,0.9-0.2,1.3
			c-0.1,0.4-0.2,0.9-0.3,1.4l-7,31.8h-5L0,174.8h5.2c1,5.7,2.1,11.3,3.2,16.9c1.1,5.5,2,11.1,2.9,16.6c1.1-5.6,2.3-11.1,3.6-16.6
			s2.6-11.1,3.8-16.9h5.8c1.3,5.6,2.6,11.1,3.9,16.6s2.4,10.9,3.1,16.5c0.9-5.5,2-11,3.1-16.4s2.2-11,3.3-16.6h5.2l-9.2,42.5h-5
			L28.9,217.2z"/>
		<path class="st0" d="M61.4,206.5c0.3,1.2,0.6,2.4,1.2,3.4c0.5,1,1.2,1.9,2,2.6s1.9,1,3.1,1c1.7,0,3-0.6,3.9-1.7
			c0.9-1.2,1.6-2.6,2.2-4.3l4.8,0.6c-0.7,3-1.9,5.3-3.7,7.1c-1.7,1.8-4.1,2.6-7.1,2.6c-2.3,0-4.2-0.5-5.6-1.5
			c-1.5-1-2.6-2.3-3.5-3.9s-1.5-3.3-1.8-5.2s-0.5-3.7-0.5-5.5c0-1.7,0.2-3.5,0.5-5.5s1-3.8,1.8-5.4c0.9-1.6,2-3,3.5-4.1
			s3.3-1.6,5.6-1.6c2.2,0,4,0.5,5.4,1.6c1.4,1,2.6,2.3,3.4,3.9c0.9,1.6,1.5,3.3,1.8,5.2s0.5,3.6,0.5,5.3v1.8h-18
			C61,204.1,61.2,205.2,61.4,206.5z M65,190.4c-0.8,0.6-1.5,1.3-2,2.1c-0.5,0.9-0.9,1.8-1.2,2.9c-0.3,1-0.4,2.1-0.5,3.1h12.8
			c-0.1-1-0.2-2-0.5-3c-0.3-1.1-0.6-2-1.1-2.9s-1.1-1.6-1.9-2.1c-0.8-0.6-1.7-0.8-2.8-0.8C66.7,189.6,65.8,189.8,65,190.4z"/>
		<path class="st0" d="M103.7,216.9c-1-0.6-1.9-1.4-2.6-2.4v2.7h-4.4v-42.5h4.7v13.6c0.8-0.9,1.6-1.7,2.6-2.3s2.1-0.9,3.4-0.9
			c2,0,3.8,0.5,5.1,1.6c1.4,1.1,2.4,2.4,3.2,4s1.4,3.3,1.7,5.1c0.3,1.8,0.5,3.5,0.5,5.1c0,1.5-0.2,3.3-0.5,5.2s-0.9,3.8-1.7,5.5
			s-1.9,3.2-3.3,4.3c-1.4,1.2-3.2,1.7-5.3,1.7C105.9,217.8,104.7,217.5,103.7,216.9z M104.2,190.7c-0.8,0.8-1.4,1.8-1.9,3
			s-0.8,2.5-1,3.9s-0.3,2.6-0.3,3.6s0,2.2,0.1,3.6c0.1,1.4,0.3,2.7,0.7,4c0.4,1.3,1,2.4,1.8,3.3s1.9,1.4,3.3,1.4
			c1.3,0,2.3-0.4,3.1-1.3c0.8-0.8,1.4-1.9,1.9-3.2c0.4-1.3,0.8-2.6,0.9-4c0.2-1.4,0.3-2.6,0.3-3.7c0-1-0.1-2.1-0.2-3.5
			s-0.4-2.7-0.8-3.9c-0.4-1.3-1-2.3-1.8-3.2s-1.8-1.3-3.2-1.3C106.1,189.5,105,189.9,104.2,190.7z"/>
		<path class="st0" d="M181,215.2c-0.8-0.9-1.5-1.8-2.2-2.8c-1.1,1.5-2.5,2.8-4,3.8s-3.4,1.6-5.5,1.6c-1.7,0-3.3-0.4-4.6-1.1
			s-2.5-1.7-3.4-2.8c-0.9-1.2-1.6-2.5-2.1-4s-0.7-3-0.7-4.6c0-2.8,0.7-5.2,2.1-7.3c1.4-2,3.3-3.7,5.5-5.1c-0.9-1.4-1.7-2.8-2.4-4.2
			c-0.7-1.5-1.1-3.1-1.1-4.8c0-1.2,0.2-2.3,0.6-3.5c0.4-1.2,0.9-2.2,1.6-3.2c0.7-0.9,1.6-1.7,2.6-2.3s2.2-0.9,3.6-0.9
			c1.3,0,2.4,0.3,3.4,0.8s1.8,1.2,2.5,2.1c0.7,0.9,1.2,1.9,1.5,3s0.5,2.2,0.5,3.3c0,2.2-0.6,4.2-1.7,5.9c-1.1,1.7-2.6,3.1-4.3,4.2
			l5.4,8.8c0.2-0.7,0.4-1.3,0.6-2c0.2-0.7,0.3-1.5,0.5-2.4l4.6,1.2c-0.3,1.6-0.7,3.1-1.1,4.5c-0.4,1.4-0.9,2.7-1.5,4
			c0.7,1.1,1.4,2.2,2.2,3.2s1.8,2,2.8,3l-2.8,4.3C182.7,217,181.8,216.1,181,215.2z M165,200.5c-1,1.3-1.5,2.9-1.5,4.8
			c0,0.9,0.1,1.7,0.4,2.7c0.3,0.9,0.6,1.8,1.1,2.5c0.5,0.8,1.1,1.4,1.8,1.9s1.5,0.8,2.4,0.8c0.7,0,1.4-0.1,2-0.4s1.2-0.7,1.8-1.2
			s1.1-1,1.5-1.6c0.5-0.6,0.8-1.2,1.2-1.8l-7.2-11.3C167.1,197.9,165.9,199.1,165,200.5z M168.3,179.7c-0.6,0.9-0.9,2-0.9,3.2
			s0.4,2.4,1.1,3.6c0.7,1.2,1.5,2.2,2.1,3.2c1.1-0.9,2-1.9,2.7-2.8c0.7-1,1-2.2,1-3.7c0-0.6-0.1-1.2-0.2-1.7
			c-0.1-0.6-0.3-1.1-0.6-1.5s-0.6-0.8-1.1-1.1c-0.4-0.3-0.9-0.4-1.5-0.4C169.7,178.2,168.9,178.7,168.3,179.7z"/>
		<path class="st0" d="M254.3,186l-8.5,31.2h-4.7l-8.7-32.4v32.4h-5v-42.5h7.1c0.5,1.7,1,3.6,1.5,5.7c0.6,2.1,1.1,4.2,1.7,6.4
			c0.6,2.2,1.2,4.3,1.7,6.5c0.6,2.2,1.1,4.2,1.7,6.1c0.5,1.9,1,3.6,1.4,5.1s0.8,2.7,1,3.6c0.3-0.9,0.6-2.1,1-3.6s0.9-3.2,1.5-5.1
			c0.5-1.9,1.1-3.9,1.7-6.1c0.6-2.1,1.2-4.3,1.8-6.5s1.2-4.3,1.8-6.4c0.6-2.1,1.1-4,1.6-5.7h6.4v42.5h-5L254.3,186L254.3,186z"/>
		<path class="st0" d="M289.2,217.8c-2.3,0-4.2-0.5-5.6-1.6c-1.5-1-2.6-2.4-3.5-3.9c-0.9-1.6-1.5-3.3-1.8-5.3
			c-0.3-1.9-0.5-3.8-0.5-5.5s0.2-3.6,0.5-5.5s1-3.7,1.8-5.3c0.9-1.6,2-2.9,3.5-3.9s3.3-1.6,5.6-1.6c2.2,0,4,0.5,5.5,1.5
			s2.6,2.3,3.5,3.9s1.5,3.3,1.9,5.1c0.4,1.9,0.6,3.7,0.6,5.4c0,1.3-0.1,2.7-0.2,4.1c-0.1,1.4-0.4,2.7-0.8,4s-0.9,2.5-1.7,3.7
			c-0.7,1.2-1.7,2.2-2.9,3C293.3,217.2,291.3,217.8,289.2,217.8z M285.8,190.7c-0.9,0.8-1.5,1.8-2,3s-0.8,2.5-1,3.9
			s-0.3,2.7-0.3,3.8c0,1.2,0.1,2.4,0.3,3.8c0.2,1.4,0.5,2.7,1,3.9s1.2,2.2,2,3c0.9,0.8,2,1.2,3.4,1.2s2.5-0.4,3.4-1.2
			c0.8-0.8,1.5-1.9,2-3.1s0.8-2.6,1-4s0.3-2.7,0.3-3.9s-0.1-2.4-0.3-3.8c-0.2-1.4-0.5-2.6-1-3.8s-1.2-2.2-2-3
			c-0.9-0.8-2-1.2-3.3-1.2C287.8,189.5,286.7,189.9,285.8,190.7z"/>
		<path class="st0" d="M325.8,216.9c-1-0.6-1.9-1.4-2.6-2.4v2.7h-4.4v-42.5h4.7v13.6c0.8-0.9,1.6-1.7,2.6-2.3s2.1-0.9,3.4-0.9
			c2,0,3.8,0.5,5.1,1.6c1.4,1.1,2.4,2.4,3.2,4c0.8,1.6,1.4,3.3,1.7,5.1c0.3,1.8,0.5,3.5,0.5,5.1c0,1.5-0.2,3.3-0.5,5.2
			s-0.9,3.8-1.7,5.5c-0.8,1.7-1.9,3.2-3.3,4.3c-1.4,1.2-3.2,1.7-5.3,1.7C328,217.8,326.8,217.5,325.8,216.9z M326.3,190.7
			c-0.8,0.8-1.4,1.8-1.9,3s-0.8,2.5-1,3.9s-0.3,2.6-0.3,3.6s0,2.2,0.1,3.6c0.1,1.4,0.3,2.7,0.7,4c0.4,1.3,1,2.4,1.8,3.3
			s1.9,1.4,3.3,1.4c1.3,0,2.3-0.4,3.1-1.3c0.8-0.8,1.4-1.9,1.9-3.2c0.4-1.3,0.8-2.6,0.9-4c0.2-1.4,0.3-2.6,0.3-3.7
			c0-1-0.1-2.1-0.2-3.5s-0.4-2.7-0.8-3.9c-0.4-1.3-1-2.3-1.8-3.2s-1.8-1.3-3.2-1.3C328.1,189.5,327.1,189.9,326.3,190.7z"/>
		<path class="st0" d="M356.4,174.7h4.7v5.6h-4.7V174.7z M356.4,185.9h4.7v31.3h-4.7V185.9z"/>
		<path class="st0" d="M378.7,174.7h4.7v42.5h-4.7V174.7z"/>
		<path class="st0" d="M406.7,206.5c0.3,1.2,0.6,2.4,1.2,3.4c0.5,1,1.2,1.9,2,2.6s1.9,1,3.1,1c1.7,0,3-0.6,3.9-1.7
			c0.9-1.2,1.6-2.6,2.2-4.3l4.8,0.6c-0.7,3-1.9,5.3-3.7,7.1c-1.7,1.8-4.1,2.6-7.1,2.6c-2.3,0-4.2-0.5-5.6-1.5
			c-1.5-1-2.6-2.3-3.5-3.9s-1.5-3.3-1.8-5.2s-0.5-3.7-0.5-5.5c0-1.7,0.2-3.5,0.5-5.5s1-3.8,1.8-5.4c0.9-1.6,2-3,3.5-4.1
			s3.3-1.6,5.6-1.6c2.2,0,4,0.5,5.4,1.6c1.4,1,2.6,2.3,3.4,3.9c0.8,1.6,1.4,3.3,1.8,5.2c0.3,1.9,0.5,3.6,0.5,5.3v1.8h-18
			C406.3,204.1,406.5,205.2,406.7,206.5z M410.3,190.4c-0.8,0.6-1.5,1.3-2,2.1c-0.5,0.9-0.9,1.8-1.2,2.9c-0.3,1-0.4,2.1-0.5,3.1
			h12.7c-0.1-1-0.2-2-0.5-3c-0.3-1.1-0.6-2-1.1-2.9s-1.1-1.6-1.9-2.1c-0.8-0.6-1.7-0.8-2.8-0.8C412,189.6,411.1,189.8,410.3,190.4z"
			/>
		<path class="st0" d="M468.8,214.3c-2.5-2.4-3.8-5.9-3.9-10.5l4.5-0.5c0.3,3.1,1.2,5.5,2.8,7.1c1.5,1.6,3.8,2.5,6.7,2.5
			c2.3,0,4.2-0.6,5.6-1.8c1.5-1.2,2.2-3,2.2-5.3c0-1-0.2-1.9-0.5-2.7s-0.8-1.4-1.3-1.9c-0.6-0.5-1.2-1-2-1.4s-1.6-0.7-2.4-1
			c-0.6-0.2-1.2-0.4-1.9-0.6c-0.6-0.2-1.3-0.4-1.9-0.6c-1.3-0.4-2.6-0.8-3.8-1.4c-1.3-0.5-2.4-1.2-3.5-2.1c-1-0.9-1.8-2-2.5-3.3
			c-0.6-1.3-0.9-3-0.9-4.9c0-1.7,0.3-3.3,0.8-4.8c0.6-1.5,1.4-2.7,2.4-3.7s2.3-1.8,3.7-2.4c1.4-0.6,3-0.8,4.8-0.8
			c3.7,0,6.7,1.1,9,3.2c2.3,2.2,3.5,5.2,3.6,9.2l-4.7,0.5c-0.2-2.7-0.9-4.7-2.1-6s-3-2-5.5-2c-2,0-3.8,0.5-5.1,1.5
			c-1.4,1-2,2.6-2,4.7c0,1,0.2,1.8,0.6,2.5s0.8,1.3,1.4,1.7c0.6,0.5,1.2,0.9,2,1.2s1.5,0.6,2.3,0.9c0.6,0.2,1.2,0.4,1.8,0.6
			c0.6,0.2,1.3,0.4,1.9,0.6c1.3,0.4,2.6,0.9,3.9,1.5s2.4,1.3,3.4,2.2s1.8,2.1,2.4,3.5s0.9,3.1,0.9,5.2c0,1.8-0.3,3.5-0.9,5
			s-1.4,2.9-2.6,4c-1.1,1.1-2.4,2-3.9,2.7s-3.2,1-5,1C474.7,217.9,471.3,216.7,468.8,214.3z"/>
		<path class="st0" d="M520.1,217.8c-2.3,0-4.2-0.5-5.6-1.6c-1.5-1-2.6-2.4-3.5-3.9c-0.9-1.6-1.5-3.3-1.8-5.3
			c-0.3-1.9-0.5-3.8-0.5-5.5s0.2-3.6,0.5-5.5s1-3.7,1.8-5.3c0.9-1.6,2-2.9,3.5-3.9s3.3-1.6,5.6-1.6c2.2,0,4,0.5,5.5,1.5
			s2.6,2.3,3.5,3.9s1.5,3.3,1.9,5.1c0.4,1.9,0.6,3.7,0.6,5.4c0,1.3-0.1,2.7-0.2,4.1c-0.1,1.4-0.4,2.7-0.8,4
			c-0.4,1.3-0.9,2.5-1.7,3.7c-0.7,1.2-1.7,2.2-2.9,3C524.3,217.2,522.3,217.8,520.1,217.8z M516.8,190.7c-0.9,0.8-1.5,1.8-2,3
			s-0.8,2.5-1,3.9s-0.3,2.7-0.3,3.8c0,1.2,0.1,2.4,0.3,3.8c0.2,1.4,0.5,2.7,1,3.9s1.2,2.2,2,3c0.9,0.8,2,1.2,3.4,1.2
			s2.5-0.4,3.4-1.2c0.8-0.8,1.5-1.9,2-3.1s0.8-2.6,1-4s0.3-2.7,0.3-3.9s-0.1-2.4-0.3-3.8c-0.2-1.4-0.5-2.6-1-3.8s-1.2-2.2-2-3
			c-0.9-0.8-2-1.2-3.3-1.2C518.8,189.5,517.7,189.9,516.8,190.7z"/>
		<path class="st0" d="M549.9,174.7h4.7v42.5h-4.7V174.7z"/>
		<path class="st0" d="M587.7,214c-0.8,1.1-1.8,2-3,2.8c-1.2,0.7-2.5,1.1-4.1,1.1c-0.7,0-1.4-0.1-2.1-0.2c-0.7-0.2-1.4-0.4-2-0.8
			c-1-0.6-1.9-1.3-2.5-2.1s-1-1.8-1.3-2.8s-0.4-2-0.5-3.1s-0.1-2.1-0.1-3.1v-19.7h4.6V204c0,0.9,0,1.8,0,3c0,1.1,0.1,2.2,0.4,3.2
			c0.3,1,0.7,1.8,1.3,2.5s1.6,1,2.8,1c1.3,0,2.4-0.3,3.1-1c0.8-0.7,1.4-1.5,1.8-2.5c0.4-1,0.7-2.1,0.8-3.3s0.2-2.4,0.2-3.5v-17.3
			h4.7v31.3h-4.4V214H587.7z"/>
		<path class="st0" d="M615.5,216.5c-0.8-0.6-1.4-1.5-1.7-2.4c-0.3-1-0.5-2.1-0.6-3.2c0-1.2,0-2.3,0-3.4v-17.6h-3V186h2.9v-7.4
			l4.7-0.2v7.4h4.1v3.8h-4.1v19c0,0.4,0,0.9,0,1.3c0,0.5,0.1,0.9,0.2,1.3c0.1,0.3,0.3,0.6,0.5,0.8s0.6,0.3,1.1,0.3
			c0.3,0,0.6,0,0.9-0.1c0.3,0,0.7-0.1,1.3-0.2l0.6,4.9c-0.7,0.2-1.3,0.3-1.8,0.4s-1.1,0.1-1.6,0.1
			C617.5,217.5,616.3,217.2,615.5,216.5z"/>
		<path class="st0" d="M640.2,174.7h4.7v5.6h-4.7V174.7z M640.2,185.9h4.7v31.3h-4.7V185.9z"/>
		<path class="st0" d="M674.7,217.8c-2.3,0-4.2-0.5-5.6-1.6c-1.5-1-2.6-2.4-3.5-3.9c-0.9-1.6-1.5-3.3-1.8-5.3
			c-0.3-1.9-0.5-3.8-0.5-5.5s0.2-3.6,0.5-5.5s1-3.7,1.8-5.3c0.9-1.6,2-2.9,3.5-3.9s3.3-1.6,5.6-1.6c2.2,0,4,0.5,5.5,1.5
			s2.6,2.3,3.5,3.9s1.5,3.3,1.9,5.1c0.4,1.9,0.6,3.7,0.6,5.4c0,1.3-0.1,2.7-0.2,4.1c-0.1,1.4-0.4,2.7-0.8,4
			c-0.4,1.3-0.9,2.5-1.7,3.7c-0.7,1.2-1.7,2.2-2.9,3C678.8,217.2,676.9,217.8,674.7,217.8z M671.4,190.7c-0.9,0.8-1.5,1.8-2,3
			s-0.8,2.5-1,3.9s-0.3,2.7-0.3,3.8c0,1.2,0.1,2.4,0.3,3.8c0.2,1.4,0.5,2.7,1,3.9s1.2,2.2,2,3c0.9,0.8,2,1.2,3.4,1.2
			s2.5-0.4,3.4-1.2c0.8-0.8,1.5-1.9,2-3.1s0.8-2.6,1-4s0.3-2.7,0.3-3.9s-0.1-2.4-0.3-3.8c-0.2-1.4-0.5-2.6-1-3.8s-1.2-2.2-2-3
			c-0.9-0.8-2-1.2-3.3-1.2C673.4,189.5,672.2,189.9,671.4,190.7z"/>
		<path class="st0" d="M719.6,197.6c0-0.9,0-1.8-0.1-2.7s-0.3-1.8-0.6-2.6s-0.8-1.4-1.4-1.9c-0.6-0.5-1.4-0.7-2.4-0.7
			c-1.3,0-2.3,0.3-3.1,0.9s-1.4,1.4-1.8,2.4c-0.4,1-0.7,2-0.8,3.2s-0.2,2.3-0.2,3.4v17.6h-4.8v-31.3h4.3v3.1c0.8-1.2,1.8-2.1,3-2.8
			s2.6-1,4.2-1c1.9,0,3.4,0.4,4.6,1.1c1.1,0.8,2,1.7,2.6,2.9s1,2.5,1.2,4s0.3,2.9,0.3,4.3v19.6h-4.8v-19.5H719.6z"/>
		<path class="st0" d="M745.6,215.5c-1.6-1.5-2.7-3.9-3.2-7.2l4.4-1c0.3,2,0.9,3.6,1.7,4.6c0.9,1,2.2,1.6,4.1,1.6
			c1.6,0,2.8-0.4,3.7-1.3s1.4-2.1,1.4-3.7c0-0.7-0.1-1.3-0.4-1.7c-0.3-0.5-0.6-0.9-1-1.2s-0.9-0.6-1.4-0.8s-1.1-0.4-1.6-0.6
			c-0.4-0.2-0.9-0.3-1.3-0.4c-0.5-0.1-0.9-0.3-1.4-0.4c-0.9-0.3-1.9-0.7-2.8-1.1c-0.9-0.4-1.8-1-2.5-1.6c-0.7-0.7-1.3-1.5-1.8-2.5
			s-0.7-2.3-0.7-3.8c0-1.3,0.2-2.5,0.6-3.6c0.4-1.1,1-2.1,1.8-2.9c0.8-0.8,1.7-1.4,2.8-1.9c1.1-0.4,2.3-0.7,3.7-0.7
			c2.8,0,5,0.7,6.6,2s2.6,3.5,3,6.5l-4.4,0.7c-0.4-3.3-2-4.9-4.9-4.9c-1.4,0-2.5,0.3-3.4,1s-1.3,1.7-1.3,3.2c0,0.7,0.1,1.3,0.4,1.8
			c0.3,0.5,0.6,0.9,1,1.2s0.9,0.6,1.4,0.8s1.1,0.4,1.6,0.6c0.4,0.2,0.9,0.3,1.4,0.4s1,0.3,1.4,0.4c1,0.3,1.9,0.7,2.8,1.1
			c0.9,0.4,1.8,0.9,2.5,1.6c0.8,0.7,1.4,1.5,1.8,2.6c0.5,1,0.7,2.3,0.7,3.8c0,1.4-0.2,2.7-0.7,3.9s-1.1,2.2-2,3.1s-1.9,1.5-3.1,2
			c-1.2,0.5-2.5,0.7-3.9,0.7C749.6,217.8,747.2,217,745.6,215.5z"/>
	</g>
	<rect x="2.5" y="0" class="st1" width="139.4" height="149.2"/>
	<g>
		<path class="st2" d="M93.9,113.4H81.1l-2.2-14.7H63.4l-2.2,14.7H49.5l13-80.8h18.6L93.9,113.4z M65,87.8h12.2L71.1,47L65,87.8z"/>
	</g>
	<rect x="157.7" y="0" class="st1" width="139.4" height="149.2"/>
	<g>
		<path class="st2" d="M208.5,32.6h20.1c12.7,0,18.9,7,18.9,20v40.8c0,12.9-6.2,20-18.9,20h-20.1V32.6L208.5,32.6z M221.2,44.1v57.7
			h7.2c4,0,6.5-2.1,6.5-7.8V52c0-5.8-2.4-7.8-6.5-7.8L221.2,44.1L221.2,44.1z"/>
	</g>
	<rect x="313.4" y="0" class="st1" width="139.4" height="149.2"/>
	<g>
		<path class="st2" d="M383.3,98.5l9.7-65.9h11.7l-12.5,80.8h-18.9l-12.5-80.8h12.8L383.3,98.5z"/>
	</g>
	<rect x="469" y="0" class="st1" width="139.4" height="149.2"/>
	<g>
		<path class="st2" d="M518.8,52c0-12.9,6.8-20.3,19.3-20.3s19.3,7.4,19.3,20.3v42c0,12.9-6.8,20.3-19.3,20.3s-19.3-7.4-19.3-20.3
			V52z M531.5,94.8c0,5.8,2.5,8,6.6,8s6.6-2.2,6.6-8V51.2c0-5.8-2.5-8-6.6-8s-6.6,2.2-6.6,8V94.8z"/>
	</g>
	<rect x="624.7" y="0" class="st1" width="139.4" height="149.2"/>
	<g>
		<path class="st2" d="M717.8,32.6l-13.3,39.2l14.2,41.5h-13.4l-10.4-32l-10.5,32h-11.9l14.2-41.5l-13.2-39.2h13.2l9.6,29.8
			l9.8-29.8L717.8,32.6z"/>
	</g>
</g>
</svg>
