<?xml version="1.0" encoding="utf-8"?>
<!-- Generator: Adobe Illustrator 20.0.0, SVG Export Plug-In . SVG Version: 6.00 Build 0)  -->
<!DOCTYPE svg PUBLIC "-//W3C//DTD SVG 1.1//EN" "http://www.w3.org/Graphics/SVG/1.1/DTD/svg11.dtd">
<svg version="1.1" id="Warstwa_1" xmlns="http://www.w3.org/2000/svg" xmlns:xlink="http://www.w3.org/1999/xlink" x="0px" y="0px"
	 viewBox="0 0 439.3 439.3" style="enable-background:new 0 0 439.3 439.3;" xml:space="preserve">
<style type="text/css">
	.st0{fill:url(#SVGID_1_);}
	.st1{fill:url(#SVGID_2_);}
	.st2{fill:url(#SVGID_3_);}
	.st3{fill:url(#SVGID_4_);}
	.st4{fill:url(#SVGID_5_);}
	.st5{fill:url(#SVGID_6_);}
	.st6{fill:url(#SVGID_7_);}
	.st7{fill:url(#SVGID_8_);}
	.st8{fill:url(#SVGID_9_);}
	.st9{fill:url(#SVGID_10_);}
</style>
<g>
	<linearGradient id="SVGID_1_" gradientUnits="userSpaceOnUse" x1="344.118" y1="269.0231" x2="412.941" y2="269.0231">
		<stop  offset="0.1046" style="stop-color:#FE00FF"/>
		<stop  offset="0.782" style="stop-color:#FF007A"/>
	</linearGradient>
	<path class="st0" d="M351.2,305.1c-1.7,0-3.5-0.6-4.9-1.9c-2.8-2.7-3-7.2-0.3-10l54.7-57.9c2.7-2.8,7.2-3,10-0.3
		c2.8,2.7,3,7.2,0.3,10l-54.7,57.9C355,304.3,353.1,305.1,351.2,305.1z"/>
	<linearGradient id="SVGID_2_" gradientUnits="userSpaceOnUse" x1="304.4053" y1="330.127" x2="337.3306" y2="330.127">
		<stop  offset="0.1046" style="stop-color:#FE00FF"/>
		<stop  offset="0.782" style="stop-color:#FF007A"/>
	</linearGradient>
	<path class="st1" d="M311.5,347.1c-1.7,0-3.5-0.6-4.9-1.9c-2.8-2.7-3-7.2-0.3-10l18.8-19.9c2.7-2.8,7.2-3,10-0.3
		c2.8,2.7,3,7.2,0.3,10l-18.8,19.9C315.2,346.4,313.4,347.1,311.5,347.1z"/>
	<linearGradient id="SVGID_3_" gradientUnits="userSpaceOnUse" x1="378.7793" y1="205.2578" x2="404.1148" y2="205.2578">
		<stop  offset="0.1046" style="stop-color:#FE00FF"/>
		<stop  offset="0.782" style="stop-color:#FF007A"/>
	</linearGradient>
	<path class="st2" d="M385.9,218.3c-1.7,0-3.5-0.6-4.9-1.9c-2.8-2.7-3-7.2-0.3-10l11.2-11.8c2.7-2.8,7.2-3,10-0.3
		c2.8,2.7,3,7.2,0.3,10L391,216C389.6,217.5,387.7,218.3,385.9,218.3z"/>
	<linearGradient id="SVGID_4_" gradientUnits="userSpaceOnUse" x1="257.1494" y1="283.9347" x2="377.255" y2="283.9347">
		<stop  offset="0.1046" style="stop-color:#FE00FF"/>
		<stop  offset="0.782" style="stop-color:#FF007A"/>
	</linearGradient>
	<path class="st3" d="M264.2,347.1c-1.7,0-3.5-0.6-4.9-1.9c-2.8-2.7-3-7.2-0.3-10L365,222.9c2.7-2.8,7.2-3,10-0.3
		c2.8,2.7,3,7.2,0.3,10L269.4,344.9C268,346.4,266.1,347.1,264.2,347.1z"/>
	<linearGradient id="SVGID_5_" gradientUnits="userSpaceOnUse" x1="296.792" y1="188.429" x2="404.4491" y2="188.429">
		<stop  offset="0.1046" style="stop-color:#FE00FF"/>
		<stop  offset="0.782" style="stop-color:#FF007A"/>
	</linearGradient>
	<path class="st4" d="M303.9,245c-1.7,0-3.5-0.6-4.9-1.9c-2.8-2.7-3-7.2-0.3-10l93.5-99.1c2.7-2.8,7.2-3,10-0.3
		c2.8,2.7,3,7.2,0.3,10L309,242.8C307.6,244.3,305.8,245,303.9,245z"/>
	<linearGradient id="SVGID_6_" gradientUnits="userSpaceOnUse" x1="200.4427" y1="306.2639" x2="278.4056" y2="306.2639">
		<stop  offset="0.1046" style="stop-color:#FE00FF"/>
		<stop  offset="0.782" style="stop-color:#FF007A"/>
	</linearGradient>
	<path class="st5" d="M207.5,347.1c-1.7,0-3.5-0.6-4.9-1.9c-2.8-2.7-3-7.2-0.3-10l63.8-67.6c2.7-2.8,7.2-3,10-0.3
		c2.8,2.7,3,7.2,0.3,10l-63.8,67.6C211.3,346.4,209.4,347.1,207.5,347.1z"/>
	<linearGradient id="SVGID_7_" gradientUnits="userSpaceOnUse" x1="143.736" y1="239.4798" x2="347.7425" y2="239.4798">
		<stop  offset="0.1046" style="stop-color:#FE00FF"/>
		<stop  offset="0.782" style="stop-color:#FF007A"/>
	</linearGradient>
	<path class="st6" d="M150.8,347.1c-1.7,0-3.5-0.6-4.9-1.9c-2.8-2.7-3-7.2-0.3-10L335.5,134c2.7-2.8,7.2-3,10-0.3
		c2.8,2.7,3,7.2,0.3,10L156,344.9C154.6,346.4,152.7,347.1,150.8,347.1z"/>
	<linearGradient id="SVGID_8_" gradientUnits="userSpaceOnUse" x1="87.0289" y1="239.4798" x2="291.0358" y2="239.4798">
		<stop  offset="0.1046" style="stop-color:#FE00FF"/>
		<stop  offset="0.782" style="stop-color:#FF007A"/>
	</linearGradient>
	<path class="st7" d="M94.1,347.1c-1.7,0-3.5-0.6-4.9-1.9c-2.8-2.7-3-7.2-0.3-10L278.8,134c2.7-2.8,7.2-3,10-0.3
		c2.8,2.7,3,7.2,0.3,10L99.3,344.9C97.9,346.4,96,347.1,94.1,347.1z"/>
	<linearGradient id="SVGID_9_" gradientUnits="userSpaceOnUse" x1="182.9806" y1="158.093" x2="233.3837" y2="158.093">
		<stop  offset="0.1046" style="stop-color:#FE00FF"/>
		<stop  offset="0.782" style="stop-color:#FF007A"/>
	</linearGradient>
	<path class="st8" d="M190.1,184.4c-1.7,0-3.5-0.6-4.9-1.9c-2.8-2.7-3-7.2-0.3-10l36.2-38.4c2.7-2.8,7.2-3,10-0.3
		c2.8,2.7,3,7.2,0.3,10l-36.2,38.4C193.8,183.6,191.9,184.4,190.1,184.4z"/>
	<linearGradient id="SVGID_10_" gradientUnits="userSpaceOnUse" x1="141.538" y1="210.5152" x2="175.8879" y2="210.5152">
		<stop  offset="0.1046" style="stop-color:#FE00FF"/>
		<stop  offset="0.782" style="stop-color:#FF007A"/>
	</linearGradient>
	<path class="st9" d="M148.6,228.3c-1.7,0-3.5-0.6-4.9-1.9c-2.8-2.7-3-7.2-0.3-10l20.2-21.4c2.7-2.8,7.2-3,10-0.3
		c2.8,2.7,3,7.2,0.3,10l-20.2,21.4C152.4,227.5,150.5,228.3,148.6,228.3z"/>
</g>
</svg>
